EBGaramondVF-Compressed_XBold.ufo
<glyph name="numbersign" format="1">
  <advance width="432"/>
  <unicode hex="0023"/>
  <outline>
    <contour>
      <point x="53" y="-79" type="curve" smooth="yes"/>
      <point x="64" y="-79"/>
      <point x="86" y="-77"/>
      <point x="88" y="-65" type="curve" smooth="yes"/>
      <point x="128" y="114" type="line"/>
      <point x="224" y="120" type="line"/>
      <point x="185" y="-53" type="line"/>
      <point x="185" y="-57" type="line" smooth="yes"/>
      <point x="185" y="-63"/>
      <point x="188" y="-68"/>
      <point x="193" y="-68" type="curve" smooth="yes"/>
      <point x="204" y="-68"/>
      <point x="228" y="-66"/>
      <point x="230" y="-54" type="curve" smooth="yes"/>
      <point x="270" y="122" type="line"/>
      <point x="320" y="125" type="line" smooth="yes"/>
      <point x="340" y="126"/>
      <point x="348" y="164"/>
      <point x="348" y="174" type="curve" smooth="yes"/>
      <point x="348" y="181"/>
      <point x="343" y="186"/>
      <point x="336" y="186" type="curve"/>
      <point x="284" y="183" type="line"/>
      <point x="314" y="321" type="line"/>
      <point x="363" y="324" type="line" smooth="yes"/>
      <point x="383" y="325"/>
      <point x="392" y="364"/>
      <point x="392" y="374" type="curve" smooth="yes"/>
      <point x="392" y="381"/>
      <point x="386" y="385"/>
      <point x="380" y="385" type="curve"/>
      <point x="329" y="382" type="line"/>
      <point x="367" y="554" type="line"/>
      <point x="367" y="556"/>
      <point x="368" y="557"/>
      <point x="368" y="559" type="curve" smooth="yes"/>
      <point x="368" y="564"/>
      <point x="362" y="570"/>
      <point x="358" y="570" type="curve" smooth="yes"/>
      <point x="346" y="570"/>
      <point x="324" y="567"/>
      <point x="321" y="554" type="curve" smooth="yes"/>
      <point x="282" y="379" type="line"/>
      <point x="187" y="374" type="line"/>
      <point x="225" y="542" type="line" smooth="yes"/>
      <point x="225" y="544"/>
      <point x="226" y="546"/>
      <point x="226" y="549" type="curve" smooth="yes"/>
      <point x="225" y="554"/>
      <point x="222" y="559"/>
      <point x="217" y="559" type="curve" smooth="yes"/>
      <point x="205" y="559"/>
      <point x="183" y="556"/>
      <point x="180" y="541" type="curve" smooth="yes"/>
      <point x="142" y="372" type="line"/>
      <point x="81" y="369" type="line" smooth="yes"/>
      <point x="62" y="368"/>
      <point x="59" y="330"/>
      <point x="59" y="320" type="curve" smooth="yes"/>
      <point x="59" y="313"/>
      <point x="65" y="308"/>
      <point x="72" y="308" type="curve"/>
      <point x="128" y="311" type="line"/>
      <point x="97" y="173" type="line"/>
      <point x="38" y="170" type="line" smooth="yes"/>
      <point x="18" y="169"/>
      <point x="16" y="131"/>
      <point x="16" y="121" type="curve" smooth="yes"/>
      <point x="16" y="114"/>
      <point x="22" y="109"/>
      <point x="28" y="109" type="curve"/>
      <point x="84" y="112" type="line"/>
      <point x="44" y="-64" type="line"/>
      <point x="44" y="-68" type="line" smooth="yes"/>
      <point x="44" y="-74"/>
      <point x="48" y="-79"/>
    </contour>
    <contour>
      <point x="143" y="176" type="line"/>
      <point x="173" y="313" type="line"/>
      <point x="268" y="318" type="line"/>
      <point x="238" y="181" type="line"/>
    </contour>
  </outline>
</glyph>
<glyph name="dollar" format="1">
  <advance width="414"/>
  <unicode hex="0024"/>
  <outline>
    <contour>
      <point x="157" y="-80" type="curve" smooth="yes"/>
      <point x="171" y="-80"/>
      <point x="187" y="-76"/>
      <point x="188" y="-65" type="curve" smooth="yes"/>
      <point x="198" y="11" type="line" smooth="yes"/>
      <point x="198" y="16"/>
      <point x="201" y="17"/>
      <point x="206" y="18" type="curve" smooth="yes"/>
      <point x="305" y="22"/>
      <point x="374" y="94"/>
      <point x="374" y="195" type="curve" smooth="yes"/>
      <point x="374" y="281"/>
      <point x="311" y="327"/>
      <point x="254" y="365" type="curve" smooth="yes"/>
      <point x="242" y="374"/>
      <point x="241" y="377"/>
      <point x="242" y="385" type="curve" smooth="yes"/>
      <point x="264" y="566" type="line"/>
      <point x="264" y="568"/>
      <point x="266" y="570"/>
      <point x="268" y="570" type="curve" smooth="yes"/>
      <point x="293" y="566"/>
      <point x="311" y="531"/>
      <point x="324" y="495" type="curve" smooth="yes"/>
      <point x="328" y="485"/>
      <point x="339" y="479"/>
      <point x="352" y="479" type="curve" smooth="yes"/>
      <point x="359" y="479"/>
      <point x="368" y="483"/>
      <point x="368" y="492" type="curve" smooth="yes"/>
      <point x="368" y="520"/>
      <point x="357" y="563"/>
      <point x="350" y="588" type="curve" smooth="yes"/>
      <point x="347" y="596"/>
      <point x="341" y="606"/>
      <point x="331" y="610" type="curve" smooth="yes"/>
      <point x="318" y="616"/>
      <point x="301" y="623"/>
      <point x="280" y="627" type="curve" smooth="yes"/>
      <point x="275" y="628"/>
      <point x="274" y="631"/>
      <point x="274" y="634" type="curve" smooth="yes"/>
      <point x="275" y="643"/>
      <point x="280" y="688"/>
      <point x="281" y="698" type="curve"/>
      <point x="281" y="705"/>
      <point x="276" y="712"/>
      <point x="269" y="712" type="curve" smooth="yes"/>
      <point x="257" y="712"/>
      <point x="229" y="710"/>
      <point x="227" y="697" type="curve" smooth="yes"/>
      <point x="220" y="638" type="line" smooth="yes"/>
      <point x="220" y="635"/>
      <point x="217" y="632"/>
      <point x="211" y="632" type="curve" smooth="yes"/>
      <point x="109" y="629"/>
      <point x="52" y="553"/>
      <point x="52" y="469" type="curve" smooth="yes"/>
      <point x="52" y="394"/>
      <point x="111" y="347"/>
      <point x="167" y="311" type="curve" smooth="yes"/>
      <point x="178" y="304"/>
      <point x="181" y="298"/>
      <point x="179" y="292" type="curve" smooth="yes"/>
      <point x="154" y="80" type="line" smooth="yes"/>
      <point x="154" y="76"/>
      <point x="149" y="75"/>
      <point x="145" y="77" type="curve" smooth="yes"/>
      <point x="115" y="92"/>
      <point x="94" y="116"/>
      <point x="75" y="178" type="curve" smooth="yes"/>
      <point x="73" y="186"/>
      <point x="66" y="190"/>
      <point x="57" y="190" type="curve" smooth="yes"/>
      <point x="45" y="190"/>
      <point x="37" y="183"/>
      <point x="37" y="175" type="curve"/>
      <point x="39" y="150"/>
      <point x="39" y="104"/>
      <point x="45" y="79" type="curve" smooth="yes"/>
      <point x="47" y="72"/>
      <point x="52" y="66"/>
      <point x="56" y="61" type="curve" smooth="yes"/>
      <point x="81" y="40"/>
      <point x="114" y="24"/>
      <point x="140" y="19" type="curve" smooth="yes"/>
      <point x="143" y="19"/>
      <point x="148" y="16"/>
      <point x="147" y="10" type="curve"/>
      <point x="138" y="-61" type="line" smooth="yes"/>
      <point x="137" y="-73"/>
      <point x="147" y="-80"/>
    </contour>
    <contour>
      <point x="213" y="66" type="curve"/>
      <point x="208" y="66"/>
      <point x="206" y="68"/>
      <point x="206" y="74" type="curve"/>
      <point x="229" y="260" type="line" smooth="yes"/>
      <point x="229" y="264"/>
      <point x="232" y="267"/>
      <point x="236" y="265" type="curve" smooth="yes"/>
      <point x="268" y="245"/>
      <point x="292" y="218"/>
      <point x="292" y="167" type="curve" smooth="yes"/>
      <point x="292" y="108"/>
      <point x="257" y="68"/>
    </contour>
    <contour>
      <point x="185" y="414" type="curve"/>
      <point x="152" y="437"/>
      <point x="134" y="459"/>
      <point x="134" y="494" type="curve" smooth="yes"/>
      <point x="134" y="553"/>
      <point x="169" y="581"/>
      <point x="206" y="582" type="curve" smooth="yes"/>
      <point x="210" y="582"/>
      <point x="212" y="579"/>
      <point x="212" y="575" type="curve"/>
      <point x="194" y="415" type="line"/>
      <point x="194" y="412"/>
      <point x="192" y="410"/>
    </contour>
  </outline>
</glyph>
<glyph name="ampersand" format="1">
  <advance width="704"/>
  <unicode hex="0026"/>
  <outline>
    <contour>
      <point x="197" y="-15" type="curve" smooth="yes"/>
      <point x="282" y="-15"/>
      <point x="329" y="39"/>
      <point x="387" y="107" type="curve"/>
      <point x="393" y="113" type="line"/>
      <point x="403" y="97" type="line" smooth="yes"/>
      <point x="455" y="20"/>
      <point x="477" y="-15"/>
      <point x="546" y="-15" type="curve" smooth="yes"/>
      <point x="597" y="-15"/>
      <point x="665" y="35"/>
      <point x="665" y="52" type="curve" smooth="yes"/>
      <point x="665" y="60"/>
      <point x="662" y="65"/>
      <point x="654" y="65" type="curve" smooth="yes"/>
      <point x="649" y="65"/>
      <point x="643" y="63"/>
      <point x="638" y="59" type="curve" smooth="yes"/>
      <point x="618" y="46"/>
      <point x="596" y="40"/>
      <point x="569" y="40" type="curve" smooth="yes"/>
      <point x="522" y="40"/>
      <point x="487" y="81"/>
      <point x="446" y="141" type="curve" smooth="yes"/>
      <point x="433" y="162" type="line"/>
      <point x="433" y="162"/>
      <point x="575" y="325"/>
      <point x="587" y="336" type="curve"/>
      <point x="604" y="354"/>
      <point x="631" y="370"/>
      <point x="658" y="372" type="curve" smooth="yes"/>
      <point x="671" y="373"/>
      <point x="686" y="383"/>
      <point x="686" y="394" type="curve" smooth="yes"/>
      <point x="686" y="401"/>
      <point x="677" y="408"/>
      <point x="672" y="408" type="curve" smooth="yes"/>
      <point x="650" y="408"/>
      <point x="611" y="399"/>
      <point x="583" y="399" type="curve" smooth="yes"/>
      <point x="569" y="399"/>
      <point x="520" y="406"/>
      <point x="515" y="406" type="curve" smooth="yes"/>
      <point x="508" y="406"/>
      <point x="494" y="402"/>
      <point x="494" y="390" type="curve" smooth="yes"/>
      <point x="494" y="382"/>
      <point x="503" y="377"/>
      <point x="507" y="375" type="curve"/>
      <point x="521" y="372"/>
      <point x="529" y="360"/>
      <point x="529" y="351" type="curve" smooth="yes"/>
      <point x="529" y="335"/>
      <point x="473" y="258"/>
      <point x="430" y="209" type="curve" smooth="yes"/>
      <point x="414" y="190" type="line"/>
      <point x="402" y="207" type="line" smooth="yes"/>
      <point x="361" y="263"/>
      <point x="340" y="286"/>
      <point x="294" y="341" type="curve" smooth="yes"/>
      <point x="282" y="355" type="line"/>
      <point x="295" y="361" type="line" smooth="yes"/>
      <point x="356" y="387"/>
      <point x="391" y="427"/>
      <point x="390" y="479" type="curve" smooth="yes"/>
      <point x="390" y="530"/>
      <point x="352" y="599"/>
      <point x="268" y="599" type="curve" smooth="yes"/>
      <point x="202" y="599"/>
      <point x="134" y="554"/>
      <point x="134" y="484" type="curve" smooth="yes"/>
      <point x="134" y="425"/>
      <point x="174" y="394"/>
      <point x="192" y="372" type="curve"/>
      <point x="207" y="355" type="line"/>
      <point x="188" y="346" type="line" smooth="yes"/>
      <point x="97" y="302"/>
      <point x="34" y="233"/>
      <point x="34" y="127" type="curve" smooth="yes"/>
      <point x="34" y="45"/>
      <point x="100" y="-15"/>
    </contour>
    <contour>
      <point x="223" y="50" type="curve" smooth="yes"/>
      <point x="158" y="50"/>
      <point x="114" y="99"/>
      <point x="114" y="160" type="curve" smooth="yes"/>
      <point x="114" y="219"/>
      <point x="129" y="282"/>
      <point x="212" y="318" type="curve" smooth="yes"/>
      <point x="231" y="325" type="line"/>
      <point x="242" y="312" type="line" smooth="yes"/>
      <point x="294" y="251"/>
      <point x="325" y="210"/>
      <point x="360" y="162" type="curve" smooth="yes"/>
      <point x="372" y="145" type="line"/>
      <point x="364" y="136" type="line" smooth="yes"/>
      <point x="317" y="85"/>
      <point x="282" y="50"/>
    </contour>
    <contour>
      <point x="262" y="382" type="line"/>
      <point x="247" y="398" type="line" smooth="yes"/>
      <point x="201" y="447"/>
      <point x="195" y="467"/>
      <point x="195" y="498" type="curve" smooth="yes"/>
      <point x="195" y="534"/>
      <point x="227" y="563"/>
      <point x="263" y="563" type="curve" smooth="yes"/>
      <point x="304" y="563"/>
      <point x="325" y="522"/>
      <point x="325" y="479" type="curve" smooth="yes"/>
      <point x="325" y="445"/>
      <point x="308" y="407"/>
      <point x="277" y="390" type="curve" smooth="yes"/>
    </contour>
  </outline>
</glyph>
<glyph name="quotesingle" format="1">
  <advance width="202"/>
  <unicode hex="0027"/>
  <outline>
    <contour>
      <point x="70" y="453" type="curve" smooth="yes"/>
      <point x="72" y="448"/>
      <point x="81" y="450"/>
      <point x="90" y="457" type="curve" smooth="yes"/>
      <point x="104" y="479"/>
      <point x="132" y="534"/>
      <point x="133" y="571" type="curve" smooth="yes"/>
      <point x="135" y="597"/>
      <point x="138" y="641"/>
      <point x="132" y="662" type="curve" smooth="yes"/>
      <point x="122" y="670"/>
      <point x="114" y="671"/>
      <point x="100" y="664" type="curve" smooth="yes"/>
      <point x="88" y="660"/>
      <point x="77" y="648"/>
      <point x="70" y="634" type="curve"/>
      <point x="67" y="627"/>
      <point x="65" y="589"/>
      <point x="65" y="564" type="curve" smooth="yes"/>
      <point x="65" y="553"/>
      <point x="67" y="517"/>
      <point x="67" y="490" type="curve" smooth="yes"/>
      <point x="67" y="477"/>
      <point x="68" y="461"/>
    </contour>
  </outline>
</glyph>
<glyph name="asterisk" format="1">
  <advance width="315"/>
  <unicode hex="002A"/>
  <outline>
    <contour>
      <point x="170" y="372" type="curve" smooth="yes"/>
      <point x="181" y="372"/>
      <point x="189" y="383"/>
      <point x="188" y="396" type="curve" smooth="yes"/>
      <point x="187" y="429"/>
      <point x="185" y="459"/>
      <point x="182" y="487" type="curve"/>
      <point x="206" y="476"/>
      <point x="230" y="463"/>
      <point x="259" y="452" type="curve" smooth="yes"/>
      <point x="267" y="449"/>
      <point x="284" y="452"/>
      <point x="284" y="465" type="curve" smooth="yes"/>
      <point x="284" y="472"/>
      <point x="281" y="481"/>
      <point x="275" y="484" type="curve" smooth="yes"/>
      <point x="246" y="501"/>
      <point x="222" y="512"/>
      <point x="199" y="525" type="curve"/>
      <point x="265" y="582" type="line" smooth="yes"/>
      <point x="270" y="586"/>
      <point x="273" y="594"/>
      <point x="273" y="601" type="curve" smooth="yes"/>
      <point x="273" y="610"/>
      <point x="264" y="615"/>
      <point x="257" y="615" type="curve" smooth="yes"/>
      <point x="253" y="615"/>
      <point x="247" y="612"/>
      <point x="243" y="609" type="curve" smooth="yes"/>
      <point x="216" y="592"/>
      <point x="196" y="576"/>
      <point x="175" y="560" type="curve"/>
      <point x="164" y="649" type="line" smooth="yes"/>
      <point x="163" y="660"/>
      <point x="155" y="670"/>
      <point x="146" y="670" type="curve" smooth="yes"/>
      <point x="135" y="670"/>
      <point x="126" y="660"/>
      <point x="127" y="644" type="curve" smooth="yes"/>
      <point x="129" y="612"/>
      <point x="131" y="583"/>
      <point x="134" y="555" type="curve"/>
      <point x="109" y="567"/>
      <point x="83" y="578"/>
      <point x="57" y="590" type="curve" smooth="yes"/>
      <point x="48" y="593"/>
      <point x="31" y="591"/>
      <point x="31" y="578" type="curve" smooth="yes"/>
      <point x="31" y="571"/>
      <point x="35" y="561"/>
      <point x="45" y="557" type="curve" smooth="yes"/>
      <point x="71" y="541"/>
      <point x="94" y="529"/>
      <point x="118" y="517" type="curve"/>
      <point x="52" y="461" type="line" smooth="yes"/>
      <point x="46" y="456"/>
      <point x="43" y="449"/>
      <point x="43" y="442" type="curve" smooth="yes"/>
      <point x="43" y="433"/>
      <point x="52" y="429"/>
      <point x="59" y="429" type="curve" smooth="yes"/>
      <point x="63" y="429"/>
      <point x="70" y="430"/>
      <point x="73" y="433" type="curve" smooth="yes"/>
      <point x="100" y="451"/>
      <point x="120" y="466"/>
      <point x="141" y="482" type="curve"/>
      <point x="152" y="390" type="line" smooth="yes"/>
      <point x="154" y="380"/>
      <point x="163" y="372"/>
    </contour>
  </outline>
</glyph>
<glyph name="plus" format="1">
  <advance width="540"/>
  <unicode hex="002B"/>
  <outline>
    <contour>
      <point x="252" y="13" type="curve" smooth="yes"/>
      <point x="261" y="13"/>
      <point x="301" y="15"/>
      <point x="301" y="35" type="curve" smooth="yes"/>
      <point x="301" y="211" type="line" smooth="yes"/>
      <point x="301" y="215"/>
      <point x="301" y="216"/>
      <point x="304" y="216" type="curve" smooth="yes"/>
      <point x="467" y="216" type="line" smooth="yes"/>
      <point x="486" y="216"/>
      <point x="498" y="242"/>
      <point x="498" y="260" type="curve" smooth="yes"/>
      <point x="498" y="267"/>
      <point x="492" y="272"/>
      <point x="485" y="272" type="curve" smooth="yes"/>
      <point x="303" y="272" type="line" smooth="yes"/>
      <point x="301" y="272"/>
      <point x="301" y="273"/>
      <point x="301" y="278" type="curve" smooth="yes"/>
      <point x="301" y="451" type="line" smooth="yes"/>
      <point x="301" y="458"/>
      <point x="293" y="463"/>
      <point x="286" y="463" type="curve" smooth="yes"/>
      <point x="279" y="463"/>
      <point x="239" y="455"/>
      <point x="239" y="435" type="curve" smooth="yes"/>
      <point x="239" y="281" type="line" smooth="yes"/>
      <point x="239" y="274"/>
      <point x="238" y="272"/>
      <point x="232" y="272" type="curve" smooth="yes"/>
      <point x="65" y="272" type="line" smooth="yes"/>
      <point x="47" y="272"/>
      <point x="41" y="240"/>
      <point x="41" y="230" type="curve" smooth="yes"/>
      <point x="41" y="223"/>
      <point x="48" y="216"/>
      <point x="55" y="216" type="curve" smooth="yes"/>
      <point x="235" y="216" type="line" smooth="yes"/>
      <point x="238" y="216"/>
      <point x="239" y="214"/>
      <point x="239" y="210" type="curve" smooth="yes"/>
      <point x="239" y="26" type="line" smooth="yes"/>
      <point x="239" y="19"/>
      <point x="246" y="13"/>
    </contour>
  </outline>
</glyph>
<glyph name="comma" format="1">
  <advance width="231"/>
  <unicode hex="002C"/>
  <outline>
    <contour>
      <point x="38" y="-147" type="curve" smooth="yes"/>
      <point x="90" y="-147"/>
      <point x="183" y="-81"/>
      <point x="183" y="21" type="curve" smooth="yes"/>
      <point x="183" y="77"/>
      <point x="148" y="118"/>
      <point x="100" y="118" type="curve" smooth="yes"/>
      <point x="70" y="118"/>
      <point x="44" y="99"/>
      <point x="44" y="72" type="curve" smooth="yes"/>
      <point x="44" y="49"/>
      <point x="62" y="32"/>
      <point x="91" y="29" type="curve" smooth="yes"/>
      <point x="113" y="26"/>
      <point x="131" y="1"/>
      <point x="131" y="-17" type="curve" smooth="yes"/>
      <point x="131" y="-85"/>
      <point x="77" y="-117"/>
      <point x="34" y="-126" type="curve" smooth="yes"/>
      <point x="25" y="-127"/>
      <point x="20" y="-132"/>
      <point x="20" y="-137" type="curve" smooth="yes"/>
      <point x="20" y="-142"/>
      <point x="26" y="-147"/>
    </contour>
  </outline>
</glyph>
<glyph name="hyphen" format="1">
  <advance width="251"/>
  <unicode hex="002D"/>
  <outline>
    <contour>
      <point x="32" y="210" type="curve"/>
      <point x="93" y="216"/>
      <point x="149" y="225"/>
      <point x="205" y="232" type="curve" smooth="yes"/>
      <point x="219" y="234"/>
      <point x="224" y="264"/>
      <point x="224" y="286" type="curve" smooth="yes"/>
      <point x="224" y="290"/>
      <point x="220" y="292"/>
      <point x="217" y="292" type="curve"/>
      <point x="158" y="285"/>
      <point x="100" y="277"/>
      <point x="41" y="270" type="curve"/>
      <point x="32" y="269"/>
      <point x="27" y="236"/>
      <point x="27" y="216" type="curve" smooth="yes"/>
      <point x="27" y="212"/>
      <point x="28" y="210"/>
    </contour>
  </outline>
</glyph>
<glyph name="zero" format="1">
  <advance width="456"/>
  <unicode hex="0030"/>
  <outline>
    <contour>
      <point x="223" y="-14" type="curve" smooth="yes"/>
      <point x="365" y="-14"/>
      <point x="424" y="164"/>
      <point x="424" y="316" type="curve" smooth="yes"/>
      <point x="424" y="463"/>
      <point x="363" y="630"/>
      <point x="233" y="630" type="curve" smooth="yes"/>
      <point x="91" y="630"/>
      <point x="32" y="456"/>
      <point x="32" y="302" type="curve" smooth="yes"/>
      <point x="32" y="152"/>
      <point x="93" y="-14"/>
    </contour>
    <contour>
      <point x="239" y="33" type="curve" smooth="yes"/>
      <point x="158" y="33"/>
      <point x="118" y="177"/>
      <point x="118" y="319" type="curve" smooth="yes"/>
      <point x="118" y="461"/>
      <point x="144" y="581"/>
      <point x="215" y="581" type="curve" smooth="yes"/>
      <point x="296" y="581"/>
      <point x="338" y="441"/>
      <point x="338" y="299" type="curve" smooth="yes"/>
      <point x="338" y="157"/>
      <point x="310" y="33"/>
    </contour>
  </outline>
</glyph>
<glyph name="one" format="1">
  <advance width="456"/>
  <unicode hex="0031"/>
  <outline>
    <contour>
      <point x="101" y="-3" type="curve" smooth="yes"/>
      <point x="149" y="-3"/>
      <point x="191" y="2"/>
      <point x="241" y="2" type="curve" smooth="yes"/>
      <point x="290" y="2"/>
      <point x="328" y="-3"/>
      <point x="377" y="-3" type="curve" smooth="yes"/>
      <point x="389" y="-3"/>
      <point x="394" y="4"/>
      <point x="394" y="12" type="curve" smooth="yes"/>
      <point x="394" y="20"/>
      <point x="387" y="27"/>
      <point x="376" y="30" type="curve" smooth="yes"/>
      <point x="303" y="49"/>
      <point x="281" y="55"/>
      <point x="281" y="121" type="curve" smooth="yes"/>
      <point x="281" y="557" type="line" smooth="yes"/>
      <point x="281" y="585"/>
      <point x="283" y="604"/>
      <point x="285" y="624" type="curve" smooth="yes"/>
      <point x="286" y="631"/>
      <point x="280" y="637"/>
      <point x="270" y="637" type="curve" smooth="yes"/>
      <point x="264" y="637"/>
      <point x="257" y="635"/>
      <point x="246" y="623" type="curve" smooth="yes"/>
      <point x="214" y="589"/>
      <point x="179" y="580"/>
      <point x="123" y="573" type="curve" smooth="yes"/>
      <point x="109" y="570"/>
      <point x="98" y="563"/>
      <point x="98" y="553" type="curve" smooth="yes"/>
      <point x="98" y="541"/>
      <point x="110" y="535"/>
      <point x="123" y="534" type="curve" smooth="yes"/>
      <point x="167" y="530"/>
      <point x="199" y="522"/>
      <point x="199" y="476" type="curve" smooth="yes"/>
      <point x="199" y="127" type="line" smooth="yes"/>
      <point x="199" y="56"/>
      <point x="168" y="48"/>
      <point x="102" y="31" type="curve" smooth="yes"/>
      <point x="91" y="29"/>
      <point x="84" y="21"/>
      <point x="84" y="13" type="curve" smooth="yes"/>
      <point x="84" y="5"/>
      <point x="89" y="-3"/>
    </contour>
  </outline>
</glyph>
<glyph name="two" format="1">
  <advance width="457"/>
  <unicode hex="0032"/>
  <outline>
    <contour>
      <point x="395" y="-3" type="curve" smooth="yes"/>
      <point x="402" y="-3"/>
      <point x="412" y="0"/>
      <point x="416" y="21" type="curve" smooth="yes"/>
      <point x="425" y="72"/>
      <point x="443" y="123"/>
      <point x="443" y="135" type="curve" smooth="yes"/>
      <point x="443" y="141"/>
      <point x="441" y="151"/>
      <point x="431" y="151" type="curve" smooth="yes"/>
      <point x="418" y="151"/>
      <point x="409" y="137"/>
      <point x="404" y="124" type="curve" smooth="yes"/>
      <point x="385" y="83"/>
      <point x="366" y="66"/>
      <point x="317" y="64" type="curve" smooth="yes"/>
      <point x="288" y="63"/>
      <point x="254" y="63"/>
      <point x="225" y="63" type="curve" smooth="yes"/>
      <point x="191" y="63"/>
      <point x="176" y="63"/>
      <point x="156" y="66" type="curve" smooth="yes"/>
      <point x="148" y="67"/>
      <point x="143" y="68"/>
      <point x="143" y="73" type="curve" smooth="yes"/>
      <point x="152" y="88"/>
      <point x="260" y="214"/>
      <point x="301" y="265" type="curve" smooth="yes"/>
      <point x="347" y="321"/>
      <point x="388" y="403"/>
      <point x="388" y="470" type="curve" smooth="yes"/>
      <point x="388" y="563"/>
      <point x="332" y="630"/>
      <point x="236" y="630" type="curve" smooth="yes"/>
      <point x="124" y="630"/>
      <point x="57" y="536"/>
      <point x="54" y="498" type="curve" smooth="yes"/>
      <point x="54" y="480"/>
      <point x="65" y="464"/>
      <point x="75" y="464" type="curve" smooth="yes"/>
      <point x="85" y="464"/>
      <point x="95" y="475"/>
      <point x="99" y="483" type="curve" smooth="yes"/>
      <point x="126" y="531"/>
      <point x="159" y="566"/>
      <point x="207" y="566" type="curve" smooth="yes"/>
      <point x="259" y="566"/>
      <point x="298" y="523"/>
      <point x="298" y="451" type="curve" smooth="yes"/>
      <point x="298" y="369"/>
      <point x="244" y="276"/>
      <point x="184" y="204" type="curve" smooth="yes"/>
      <point x="41" y="28" type="line" smooth="yes"/>
      <point x="36" y="22"/>
      <point x="33" y="21"/>
      <point x="33" y="15" type="curve" smooth="yes"/>
      <point x="33" y="9"/>
      <point x="47" y="-2"/>
      <point x="52" y="-2" type="curve" smooth="yes"/>
      <point x="70" y="-2"/>
      <point x="224" y="3"/>
      <point x="271" y="3" type="curve" smooth="yes"/>
      <point x="317" y="3"/>
      <point x="377" y="-3"/>
    </contour>
  </outline>
</glyph>
<glyph name="three" format="1">
  <advance width="457"/>
  <unicode hex="0033"/>
  <outline>
    <contour>
      <point x="153" y="-38" type="curve" smooth="yes"/>
      <point x="281" y="-38"/>
      <point x="415" y="53"/>
      <point x="415" y="203" type="curve" smooth="yes"/>
      <point x="415" y="290"/>
      <point x="352" y="356"/>
      <point x="279" y="358" type="curve" smooth="yes"/>
      <point x="275" y="358"/>
      <point x="275" y="362"/>
      <point x="278" y="364" type="curve"/>
      <point x="346" y="410"/>
      <point x="370" y="466"/>
      <point x="370" y="516" type="curve" smooth="yes"/>
      <point x="370" y="584"/>
      <point x="310" y="630"/>
      <point x="246" y="630" type="curve" smooth="yes"/>
      <point x="119" y="630"/>
      <point x="65" y="536"/>
      <point x="65" y="500" type="curve" smooth="yes"/>
      <point x="65" y="490"/>
      <point x="75" y="471"/>
      <point x="92" y="471" type="curve" smooth="yes"/>
      <point x="105" y="471"/>
      <point x="127" y="566"/>
      <point x="207" y="566" type="curve" smooth="yes"/>
      <point x="254" y="566"/>
      <point x="286" y="526"/>
      <point x="286" y="472" type="curve" smooth="yes"/>
      <point x="286" y="403"/>
      <point x="217" y="355"/>
      <point x="174" y="335" type="curve" smooth="yes"/>
      <point x="161" y="329"/>
      <point x="148" y="318"/>
      <point x="146" y="294" type="curve" smooth="yes"/>
      <point x="145" y="283"/>
      <point x="155" y="276"/>
      <point x="162" y="280" type="curve" smooth="yes"/>
      <point x="182" y="293"/>
      <point x="207" y="295"/>
      <point x="220" y="295" type="curve" smooth="yes"/>
      <point x="290" y="295"/>
      <point x="326" y="220"/>
      <point x="326" y="149" type="curve" smooth="yes"/>
      <point x="326" y="72"/>
      <point x="262" y="12"/>
      <point x="193" y="12" type="curve" smooth="yes"/>
      <point x="159" y="12"/>
      <point x="141" y="28"/>
      <point x="125" y="43" type="curve" smooth="yes"/>
      <point x="113" y="53"/>
      <point x="103" y="62"/>
      <point x="89" y="62" type="curve" smooth="yes"/>
      <point x="73" y="63"/>
      <point x="48" y="32"/>
      <point x="48" y="16" type="curve" smooth="yes"/>
      <point x="48" y="-15"/>
      <point x="109" y="-38"/>
    </contour>
  </outline>
</glyph>
<glyph name="four" format="1">
  <advance width="456"/>
  <unicode hex="0034"/>
  <outline>
    <contour>
      <point x="199" y="-4" type="curve" smooth="yes"/>
      <point x="250" y="-4"/>
      <point x="265" y="3"/>
      <point x="309" y="3" type="curve" smooth="yes"/>
      <point x="355" y="3"/>
      <point x="369" y="-4"/>
      <point x="419" y="-4" type="curve" smooth="yes"/>
      <point x="431" y="-4"/>
      <point x="440" y="3"/>
      <point x="440" y="13" type="curve" smooth="yes"/>
      <point x="440" y="23"/>
      <point x="431" y="29"/>
      <point x="418" y="33" type="curve" smooth="yes"/>
      <point x="373" y="43"/>
      <point x="350" y="59"/>
      <point x="350" y="96" type="curve" smooth="yes"/>
      <point x="350" y="173" type="line" smooth="yes"/>
      <point x="350" y="174"/>
      <point x="357" y="178"/>
      <point x="361" y="179" type="curve"/>
      <point x="368" y="180"/>
      <point x="378" y="181"/>
      <point x="389" y="181" type="curve" smooth="yes"/>
      <point x="403" y="181"/>
      <point x="420" y="180"/>
      <point x="433" y="180" type="curve" smooth="yes"/>
      <point x="436" y="180"/>
      <point x="452" y="213"/>
      <point x="452" y="229" type="curve" smooth="yes"/>
      <point x="452" y="234"/>
      <point x="447" y="238"/>
      <point x="442" y="238" type="curve"/>
      <point x="423" y="237"/>
      <point x="407" y="236"/>
      <point x="390" y="236" type="curve" smooth="yes"/>
      <point x="379" y="236"/>
      <point x="368" y="236"/>
      <point x="354" y="237" type="curve"/>
      <point x="351" y="237"/>
      <point x="349" y="240"/>
      <point x="349" y="243" type="curve" smooth="yes"/>
      <point x="349" y="347" type="line" smooth="yes"/>
      <point x="349" y="389"/>
      <point x="349" y="411"/>
      <point x="336" y="411" type="curve" smooth="yes"/>
      <point x="328" y="411"/>
      <point x="293" y="409"/>
      <point x="274" y="398" type="curve"/>
      <point x="266" y="394"/>
      <point x="265" y="390"/>
      <point x="265" y="376" type="curve" smooth="yes"/>
      <point x="265" y="245" type="line" smooth="yes"/>
      <point x="265" y="241"/>
      <point x="259" y="237"/>
      <point x="254" y="237" type="curve" smooth="yes"/>
      <point x="120" y="237" type="line" smooth="yes"/>
      <point x="116" y="237"/>
      <point x="118" y="243"/>
      <point x="120" y="246" type="curve" smooth="yes"/>
      <point x="354" y="628" type="line"/>
      <point x="355" y="629"/>
      <point x="361" y="642"/>
      <point x="355" y="642" type="curve" smooth="yes"/>
      <point x="316" y="642" type="line" smooth="yes"/>
      <point x="307" y="642"/>
      <point x="297" y="627"/>
      <point x="290" y="615" type="curve" smooth="yes"/>
      <point x="57" y="235" type="line" smooth="yes"/>
      <point x="46" y="217"/>
      <point x="41" y="211"/>
      <point x="22" y="183" type="curve" smooth="yes"/>
      <point x="22" y="182"/>
      <point x="22" y="181"/>
      <point x="22" y="180" type="curve" smooth="yes"/>
      <point x="22" y="176"/>
      <point x="26" y="170"/>
      <point x="31" y="170" type="curve" smooth="yes"/>
      <point x="123" y="170"/>
      <point x="178" y="177"/>
      <point x="252" y="177" type="curve" smooth="yes"/>
      <point x="253" y="177"/>
      <point x="265" y="174"/>
      <point x="265" y="168" type="curve" smooth="yes"/>
      <point x="265" y="88" type="line" smooth="yes"/>
      <point x="265" y="55"/>
      <point x="253" y="39"/>
      <point x="200" y="33" type="curve" smooth="yes"/>
      <point x="186" y="31"/>
      <point x="178" y="25"/>
      <point x="178" y="14" type="curve" smooth="yes"/>
      <point x="178" y="2"/>
      <point x="189" y="-4"/>
    </contour>
  </outline>
</glyph>
<glyph name="five" format="1">
  <advance width="457"/>
  <unicode hex="0035"/>
  <outline>
    <contour>
      <point x="106" y="-38" type="curve" smooth="yes"/>
      <point x="172" y="-38"/>
      <point x="233" y="-20"/>
      <point x="282" y="10" type="curve" smooth="yes"/>
      <point x="351" y="53"/>
      <point x="396" y="120"/>
      <point x="396" y="193" type="curve" smooth="yes"/>
      <point x="396" y="274"/>
      <point x="361" y="323"/>
      <point x="291" y="362" type="curve" smooth="yes"/>
      <point x="248" y="386"/>
      <point x="190" y="406"/>
      <point x="140" y="423" type="curve" smooth="yes"/>
      <point x="131" y="426"/>
      <point x="128" y="433"/>
      <point x="129" y="442" type="curve" smooth="yes"/>
      <point x="132" y="458"/>
      <point x="156" y="523"/>
      <point x="167" y="525" type="curve" smooth="yes"/>
      <point x="193" y="530"/>
      <point x="270" y="537"/>
      <point x="315" y="543" type="curve" smooth="yes"/>
      <point x="328" y="545"/>
      <point x="339" y="555"/>
      <point x="347" y="575" type="curve" smooth="yes"/>
      <point x="351" y="586"/>
      <point x="357" y="598"/>
      <point x="363" y="609" type="curve" smooth="yes"/>
      <point x="367" y="618"/>
      <point x="362" y="627"/>
      <point x="351" y="626" type="curve" smooth="yes"/>
      <point x="279" y="619"/>
      <point x="216" y="608"/>
      <point x="159" y="592" type="curve" smooth="yes"/>
      <point x="140" y="587"/>
      <point x="128" y="576"/>
      <point x="121" y="556" type="curve" smooth="yes"/>
      <point x="107" y="512"/>
      <point x="76" y="433"/>
      <point x="76" y="396" type="curve" smooth="yes"/>
      <point x="76" y="378"/>
      <point x="82" y="365"/>
      <point x="98" y="350" type="curve"/>
      <point x="257" y="307"/>
      <point x="313" y="262"/>
      <point x="313" y="187" type="curve" smooth="yes"/>
      <point x="313" y="103"/>
      <point x="251" y="11"/>
      <point x="104" y="7" type="curve" smooth="yes"/>
      <point x="89" y="7"/>
      <point x="71" y="-6"/>
      <point x="71" y="-18" type="curve" smooth="yes"/>
      <point x="71" y="-31"/>
      <point x="89" y="-38"/>
    </contour>
  </outline>
</glyph>
<glyph name="six" format="1">
  <advance width="457"/>
  <unicode hex="0036"/>
  <outline>
    <contour>
      <point x="242" y="-16" type="curve" smooth="yes"/>
      <point x="333" y="-16"/>
      <point x="435" y="65"/>
      <point x="435" y="190" type="curve" smooth="yes"/>
      <point x="435" y="262"/>
      <point x="377" y="314"/>
      <point x="312" y="314" type="curve" smooth="yes"/>
      <point x="282" y="314"/>
      <point x="245" y="296"/>
      <point x="223" y="279" type="curve" smooth="yes"/>
      <point x="212" y="270"/>
      <point x="202" y="261"/>
      <point x="193" y="251" type="curve" smooth="yes"/>
      <point x="179" y="235"/>
      <point x="184" y="217"/>
      <point x="200" y="229" type="curve" smooth="yes"/>
      <point x="221" y="244"/>
      <point x="242" y="249"/>
      <point x="272" y="249" type="curve" smooth="yes"/>
      <point x="320" y="249"/>
      <point x="353" y="199"/>
      <point x="353" y="144" type="curve" smooth="yes"/>
      <point x="353" y="71"/>
      <point x="309" y="37"/>
      <point x="260" y="38" type="curve" smooth="yes"/>
      <point x="202" y="39"/>
      <point x="136" y="97"/>
      <point x="134" y="204" type="curve" smooth="yes"/>
      <point x="134" y="304"/>
      <point x="178" y="406"/>
      <point x="228" y="467" type="curve" smooth="yes"/>
      <point x="274" y="528"/>
      <point x="330" y="571"/>
      <point x="401" y="601" type="curve" smooth="yes"/>
      <point x="407" y="604"/>
      <point x="421" y="611"/>
      <point x="424" y="626" type="curve" smooth="yes"/>
      <point x="425" y="632"/>
      <point x="419" y="645"/>
      <point x="395" y="638" type="curve" smooth="yes"/>
      <point x="306" y="611"/>
      <point x="231" y="551"/>
      <point x="179" y="499" type="curve" smooth="yes"/>
      <point x="110" y="434"/>
      <point x="44" y="327"/>
      <point x="44" y="193" type="curve" smooth="yes"/>
      <point x="44" y="53"/>
      <point x="142" y="-16"/>
    </contour>
  </outline>
</glyph>
<glyph name="seven" format="1">
  <advance width="457"/>
  <unicode hex="0037"/>
  <outline>
    <contour>
      <point x="110" y="-32" type="curve" smooth="yes"/>
      <point x="116" y="-32"/>
      <point x="125" y="-16"/>
      <point x="130" y="-5" type="curve" smooth="yes"/>
      <point x="408" y="538" type="line" smooth="yes"/>
      <point x="417" y="555"/>
      <point x="443" y="592"/>
      <point x="443" y="608" type="curve" smooth="yes"/>
      <point x="443" y="613"/>
      <point x="440" y="621"/>
      <point x="437" y="621" type="curve" smooth="yes"/>
      <point x="419" y="618"/>
      <point x="315" y="616"/>
      <point x="223" y="616" type="curve" smooth="yes"/>
      <point x="180" y="616"/>
      <point x="160" y="617"/>
      <point x="132" y="617" type="curve" smooth="yes"/>
      <point x="94" y="617"/>
      <point x="58" y="626"/>
      <point x="55" y="626" type="curve" smooth="yes"/>
      <point x="52" y="626"/>
      <point x="47" y="624"/>
      <point x="46" y="615" type="curve" smooth="yes"/>
      <point x="43" y="589"/>
      <point x="37" y="543"/>
      <point x="31" y="514" type="curve"/>
      <point x="30" y="509"/>
      <point x="27" y="498"/>
      <point x="27" y="491" type="curve" smooth="yes"/>
      <point x="27" y="486"/>
      <point x="28" y="477"/>
      <point x="34" y="477" type="curve" smooth="yes"/>
      <point x="43" y="477"/>
      <point x="52" y="493"/>
      <point x="56" y="502" type="curve" smooth="yes"/>
      <point x="75" y="539"/>
      <point x="96" y="548"/>
      <point x="124" y="548" type="curve" smooth="yes"/>
      <point x="388" y="548" type="line"/>
      <point x="383" y="590" type="line"/>
      <point x="108" y="53" type="line" smooth="yes"/>
      <point x="97" y="31"/>
      <point x="83" y="6"/>
      <point x="83" y="1" type="curve" smooth="yes"/>
      <point x="83" y="-18"/>
      <point x="91" y="-32"/>
    </contour>
  </outline>
</glyph>
<glyph name="eight" format="1">
  <advance width="456"/>
  <unicode hex="0038"/>
  <outline>
    <contour>
      <point x="218" y="-14" type="curve"/>
      <point x="313" y="-14"/>
      <point x="408" y="60"/>
      <point x="408" y="164" type="curve"/>
      <point x="408" y="241"/>
      <point x="358" y="288"/>
      <point x="295" y="332" type="curve" smooth="yes"/>
      <point x="285" y="339"/>
      <point x="283" y="341"/>
      <point x="300" y="353" type="curve"/>
      <point x="322" y="369"/>
      <point x="332" y="377"/>
      <point x="343" y="388" type="curve" smooth="yes"/>
      <point x="366" y="408"/>
      <point x="391" y="442"/>
      <point x="391" y="496" type="curve" smooth="yes"/>
      <point x="391" y="577"/>
      <point x="315" y="630"/>
      <point x="237" y="630" type="curve"/>
      <point x="152" y="630"/>
      <point x="62" y="567"/>
      <point x="62" y="489" type="curve"/>
      <point x="62" y="404"/>
      <point x="109" y="372"/>
      <point x="165" y="321" type="curve"/>
      <point x="173" y="314"/>
      <point x="177" y="313"/>
      <point x="168" y="308" type="curve" smooth="yes"/>
      <point x="122" y="279"/>
      <point x="47" y="233"/>
      <point x="47" y="141" type="curve" smooth="yes"/>
      <point x="47" y="49"/>
      <point x="129" y="-14"/>
    </contour>
    <contour>
      <point x="231" y="33" type="curve"/>
      <point x="167" y="33"/>
      <point x="129" y="101"/>
      <point x="129" y="162" type="curve" smooth="yes"/>
      <point x="129" y="216"/>
      <point x="153" y="242"/>
      <point x="196" y="276" type="curve" smooth="yes"/>
      <point x="201" y="280"/>
      <point x="204" y="282"/>
      <point x="207" y="282" type="curve"/>
      <point x="212" y="282"/>
      <point x="218" y="278"/>
      <point x="225" y="273" type="curve"/>
      <point x="268" y="243"/>
      <point x="325" y="192"/>
      <point x="325" y="134" type="curve" smooth="yes"/>
      <point x="325" y="80"/>
      <point x="285" y="33"/>
    </contour>
    <contour>
      <point x="252" y="370" type="curve"/>
      <point x="249" y="367"/>
      <point x="243" y="370"/>
      <point x="240" y="372" type="curve" smooth="yes"/>
      <point x="181" y="418"/>
      <point x="142" y="440"/>
      <point x="142" y="499" type="curve" smooth="yes"/>
      <point x="142" y="546"/>
      <point x="180" y="583"/>
      <point x="232" y="583" type="curve" smooth="yes"/>
      <point x="285" y="583"/>
      <point x="313" y="542"/>
      <point x="313" y="493" type="curve" smooth="yes"/>
      <point x="313" y="443"/>
      <point x="297" y="402"/>
    </contour>
  </outline>
</glyph>
<glyph name="less" format="1">
  <advance width="520"/>
  <unicode hex="003C"/>
  <outline>
    <contour>
      <point x="449" y="18" type="line" smooth="yes"/>
      <point x="457" y="15"/>
      <point x="472" y="14"/>
      <point x="472" y="28" type="curve" smooth="yes"/>
      <point x="472" y="38"/>
      <point x="466" y="72"/>
      <point x="445" y="82" type="curve" smooth="yes"/>
      <point x="139" y="234" type="line"/>
      <point x="135" y="236"/>
      <point x="134" y="239"/>
      <point x="138" y="240" type="curve"/>
      <point x="436" y="392" type="line" smooth="yes"/>
      <point x="459" y="403"/>
      <point x="471" y="436"/>
      <point x="471" y="449" type="curve" smooth="yes"/>
      <point x="471" y="456"/>
      <point x="468" y="460"/>
      <point x="461" y="460" type="curve" smooth="yes"/>
      <point x="459" y="460"/>
      <point x="455" y="459"/>
      <point x="452" y="457" type="curve" smooth="yes"/>
      <point x="86" y="278" type="line" smooth="yes"/>
      <point x="63" y="267"/>
      <point x="48" y="236"/>
      <point x="48" y="226" type="curve" smooth="yes"/>
      <point x="48" y="219"/>
      <point x="76" y="204"/>
      <point x="95" y="195" type="curve" smooth="yes"/>
    </contour>
  </outline>
</glyph>
<glyph name="equal" format="1">
  <advance width="519"/>
  <unicode hex="003D"/>
  <outline>
    <contour>
      <point x="60" y="311" type="curve"/>
      <point x="442" y="311" type="line"/>
      <point x="460" y="311"/>
      <point x="473" y="338"/>
      <point x="473" y="355" type="curve" smooth="yes"/>
      <point x="473" y="362"/>
      <point x="466" y="367"/>
      <point x="460" y="367" type="curve"/>
      <point x="70" y="367" type="line"/>
      <point x="52" y="367"/>
      <point x="46" y="335"/>
      <point x="46" y="325" type="curve" smooth="yes"/>
      <point x="46" y="318"/>
      <point x="53" y="311"/>
    </contour>
    <contour>
      <point x="60" y="140" type="curve"/>
      <point x="442" y="140" type="line"/>
      <point x="460" y="140"/>
      <point x="473" y="165"/>
      <point x="473" y="183" type="curve" smooth="yes"/>
      <point x="473" y="190"/>
      <point x="466" y="195"/>
      <point x="460" y="195" type="curve"/>
      <point x="70" y="195" type="line"/>
      <point x="52" y="195"/>
      <point x="46" y="163"/>
      <point x="46" y="153" type="curve" smooth="yes"/>
      <point x="46" y="146"/>
      <point x="53" y="140"/>
    </contour>
  </outline>
</glyph>
<glyph name="question" format="1">
  <advance width="352"/>
  <unicode hex="003F"/>
  <outline>
    <contour>
      <point x="129" y="181" type="curve" smooth="yes"/>
      <point x="142" y="181"/>
      <point x="149" y="194"/>
      <point x="150" y="203" type="curve" smooth="yes"/>
      <point x="152" y="238"/>
      <point x="156" y="267"/>
      <point x="182" y="286" type="curve" smooth="yes"/>
      <point x="209" y="305"/>
      <point x="218" y="311"/>
      <point x="255" y="332" type="curve" smooth="yes"/>
      <point x="273" y="344"/>
      <point x="292" y="368"/>
      <point x="292" y="417" type="curve" smooth="yes"/>
      <point x="292" y="468"/>
      <point x="257" y="554"/>
      <point x="205" y="610" type="curve" smooth="yes"/>
      <point x="173" y="643"/>
      <point x="134" y="661"/>
      <point x="103" y="661" type="curve" smooth="yes"/>
      <point x="87" y="661"/>
      <point x="65" y="644"/>
      <point x="65" y="623" type="curve" smooth="yes"/>
      <point x="65" y="594"/>
      <point x="84" y="565"/>
      <point x="104" y="565" type="curve" smooth="yes"/>
      <point x="112" y="565"/>
      <point x="119" y="566"/>
      <point x="124" y="567" type="curve" smooth="yes"/>
      <point x="130" y="568"/>
      <point x="136" y="569"/>
      <point x="143" y="569" type="curve" smooth="yes"/>
      <point x="203" y="568"/>
      <point x="232" y="522"/>
      <point x="232" y="460" type="curve" smooth="yes"/>
      <point x="232" y="431"/>
      <point x="205" y="401"/>
      <point x="178" y="386" type="curve" smooth="yes"/>
      <point x="125" y="356"/>
      <point x="89" y="329"/>
      <point x="89" y="296" type="curve" smooth="yes"/>
      <point x="89" y="250"/>
      <point x="96" y="231"/>
      <point x="101" y="210" type="curve" smooth="yes"/>
      <point x="105" y="193"/>
      <point x="119" y="181"/>
    </contour>
    <contour>
      <point x="143" y="-14" type="curve" smooth="yes"/>
      <point x="176" y="-14"/>
      <point x="204" y="13"/>
      <point x="204" y="46" type="curve" smooth="yes"/>
      <point x="204" y="79"/>
      <point x="176" y="106"/>
      <point x="143" y="106" type="curve" smooth="yes"/>
      <point x="109" y="106"/>
      <point x="82" y="79"/>
      <point x="82" y="46" type="curve" smooth="yes"/>
      <point x="82" y="13"/>
      <point x="109" y="-14"/>
    </contour>
  </outline>
</glyph>
<glyph name="at" format="1">
  <advance width="696"/>
  <unicode hex="0040"/>
  <outline>
    <contour>
      <point x="354" y="-153" type="curve" smooth="yes"/>
      <point x="468" y="-153"/>
      <point x="591" y="-63"/>
      <point x="592" y="-24" type="curve" smooth="yes"/>
      <point x="593" y="-9"/>
      <point x="587" y="-2"/>
      <point x="572" y="-2" type="curve" smooth="yes"/>
      <point x="564" y="-2"/>
      <point x="554" y="-11"/>
      <point x="541" y="-22" type="curve" smooth="yes"/>
      <point x="489" y="-69"/>
      <point x="415" y="-103"/>
      <point x="363" y="-103" type="curve" smooth="yes"/>
      <point x="218" y="-103"/>
      <point x="98" y="21"/>
      <point x="98" y="213" type="curve" smooth="yes"/>
      <point x="98" y="403"/>
      <point x="225" y="524"/>
      <point x="365" y="524" type="curve" smooth="yes"/>
      <point x="499" y="524"/>
      <point x="597" y="409"/>
      <point x="597" y="248" type="curve" smooth="yes"/>
      <point x="597" y="153"/>
      <point x="546" y="98"/>
      <point x="493" y="98" type="curve" smooth="yes"/>
      <point x="471" y="98"/>
      <point x="467" y="113"/>
      <point x="467" y="130" type="curve" smooth="yes"/>
      <point x="467" y="140"/>
      <point x="468" y="151"/>
      <point x="469" y="161" type="curve"/>
      <point x="488" y="305" type="line" smooth="yes"/>
      <point x="490" y="323"/>
      <point x="500" y="368"/>
      <point x="508" y="395" type="curve"/>
      <point x="511" y="399"/>
      <point x="494" y="404"/>
      <point x="490" y="404" type="curve" smooth="yes"/>
      <point x="481" y="404"/>
      <point x="476" y="382"/>
      <point x="465" y="382" type="curve" smooth="yes"/>
      <point x="460" y="382"/>
      <point x="456" y="384"/>
      <point x="442" y="389" type="curve" smooth="yes"/>
      <point x="431" y="394"/>
      <point x="401" y="398"/>
      <point x="383" y="398" type="curve" smooth="yes"/>
      <point x="281" y="398"/>
      <point x="187" y="311"/>
      <point x="187" y="175" type="curve" smooth="yes"/>
      <point x="187" y="96"/>
      <point x="236" y="52"/>
      <point x="297" y="52" type="curve" smooth="yes"/>
      <point x="356" y="52"/>
      <point x="395" y="93"/>
      <point x="404" y="93" type="curve" smooth="yes"/>
      <point x="415" y="93"/>
      <point x="418" y="52"/>
      <point x="462" y="49" type="curve" smooth="yes"/>
      <point x="560" y="49"/>
      <point x="654" y="129"/>
      <point x="654" y="265" type="curve" smooth="yes"/>
      <point x="654" y="437"/>
      <point x="529" y="574"/>
      <point x="386" y="574" type="curve" smooth="yes"/>
      <point x="205" y="574"/>
      <point x="41" y="447"/>
      <point x="41" y="203" type="curve" smooth="yes"/>
      <point x="41" y="-9"/>
      <point x="184" y="-153"/>
    </contour>
    <contour>
      <point x="332" y="94" type="curve" smooth="yes"/>
      <point x="300" y="94"/>
      <point x="261" y="117"/>
      <point x="262" y="195" type="curve" smooth="yes"/>
      <point x="262" y="301"/>
      <point x="314" y="357"/>
      <point x="363" y="357" type="curve" smooth="yes"/>
      <point x="401" y="357"/>
      <point x="423" y="337"/>
      <point x="423" y="297" type="curve" smooth="yes"/>
      <point x="423" y="293"/>
      <point x="423" y="288"/>
      <point x="422" y="284" type="curve"/>
      <point x="408" y="171" type="line" smooth="yes"/>
      <point x="404" y="137"/>
      <point x="395" y="127"/>
      <point x="384" y="117" type="curve" smooth="yes"/>
      <point x="367" y="103"/>
      <point x="353" y="94"/>
    </contour>
  </outline>
</glyph>
<glyph name="A" format="1">
  <advance width="646"/>
  <unicode hex="0041"/>
  <outline>
    <contour>
      <point x="24" y="-5" type="curve" smooth="yes"/>
      <point x="53" y="-5"/>
      <point x="95" y="3"/>
      <point x="136" y="3" type="curve" smooth="yes"/>
      <point x="163" y="3"/>
      <point x="197" y="0"/>
      <point x="213" y="0" type="curve" smooth="yes"/>
      <point x="228" y="0"/>
      <point x="239" y="4"/>
      <point x="239" y="15" type="curve" smooth="yes"/>
      <point x="239" y="27"/>
      <point x="231" y="34"/>
      <point x="214" y="42" type="curve" smooth="yes"/>
      <point x="189" y="51"/>
      <point x="170" y="67"/>
      <point x="170" y="95" type="curve" smooth="yes"/>
      <point x="170" y="110"/>
      <point x="197" y="198"/>
      <point x="205" y="224" type="curve" smooth="yes"/>
      <point x="210" y="238"/>
      <point x="215" y="242"/>
      <point x="221" y="242" type="curve" smooth="yes"/>
      <point x="392" y="242" type="line" smooth="yes"/>
      <point x="409" y="242"/>
      <point x="414" y="241"/>
      <point x="417" y="231" type="curve" smooth="yes"/>
      <point x="430" y="181"/>
      <point x="447" y="116"/>
      <point x="447" y="87" type="curve" smooth="yes"/>
      <point x="447" y="66"/>
      <point x="432" y="51"/>
      <point x="395" y="43" type="curve" smooth="yes"/>
      <point x="378" y="40"/>
      <point x="364" y="30"/>
      <point x="364" y="18" type="curve" smooth="yes"/>
      <point x="364" y="7"/>
      <point x="376" y="2"/>
      <point x="392" y="2" type="curve" smooth="yes"/>
      <point x="414" y="2"/>
      <point x="454" y="3"/>
      <point x="491" y="3" type="curve" smooth="yes"/>
      <point x="534" y="3"/>
      <point x="597" y="-5"/>
      <point x="623" y="-5" type="curve" smooth="yes"/>
      <point x="639" y="-5"/>
      <point x="651" y="-2"/>
      <point x="651" y="8" type="curve" smooth="yes"/>
      <point x="651" y="21"/>
      <point x="641" y="34"/>
      <point x="618" y="39" type="curve" smooth="yes"/>
      <point x="583" y="46"/>
      <point x="551" y="59"/>
      <point x="524" y="140" type="curve" smooth="yes"/>
      <point x="494" y="235"/>
      <point x="424" y="459"/>
      <point x="366" y="661" type="curve" smooth="yes"/>
      <point x="363" y="670"/>
      <point x="362" y="678"/>
      <point x="358" y="684" type="curve"/>
      <point x="357" y="686"/>
      <point x="354" y="686"/>
      <point x="352" y="685" type="curve"/>
      <point x="348" y="679"/>
      <point x="344" y="659"/>
      <point x="330" y="651" type="curve" smooth="yes"/>
      <point x="317" y="643"/>
      <point x="304" y="640"/>
      <point x="290" y="636" type="curve"/>
      <point x="289" y="615"/>
      <point x="284" y="597"/>
      <point x="277" y="578" type="curve" smooth="yes"/>
      <point x="215" y="393"/>
      <point x="182" y="293"/>
      <point x="113" y="122" type="curve" smooth="yes"/>
      <point x="90" y="69"/>
      <point x="61" y="53"/>
      <point x="33" y="43" type="curve" smooth="yes"/>
      <point x="8" y="35"/>
      <point x="-2" y="25"/>
      <point x="-2" y="12" type="curve" smooth="yes"/>
      <point x="-2" y="2"/>
      <point x="9" y="-5"/>
    </contour>
    <contour>
      <point x="252" y="290" type="line" smooth="yes"/>
      <point x="240" y="290"/>
      <point x="232" y="290"/>
      <point x="232" y="297" type="curve" smooth="yes"/>
      <point x="232" y="299"/>
      <point x="233" y="302"/>
      <point x="234" y="305" type="curve" smooth="yes"/>
      <point x="311" y="532" type="line" smooth="yes"/>
      <point x="315" y="543"/>
      <point x="317" y="549"/>
      <point x="319" y="549" type="curve" smooth="yes"/>
      <point x="322" y="549"/>
      <point x="323" y="543"/>
      <point x="327" y="531" type="curve" smooth="yes"/>
      <point x="392" y="305" type="line"/>
      <point x="393" y="301"/>
      <point x="394" y="297"/>
      <point x="394" y="295" type="curve" smooth="yes"/>
      <point x="394" y="290"/>
      <point x="390" y="290"/>
      <point x="381" y="290" type="curve" smooth="yes"/>
    </contour>
  </outline>
</glyph>
<glyph name="B" format="1">
  <advance width="554"/>
  <unicode hex="0042"/>
  <outline>
    <contour>
      <point x="44" y="-5" type="curve" smooth="yes"/>
      <point x="99" y="-5"/>
      <point x="119" y="0"/>
      <point x="169" y="0" type="curve" smooth="yes"/>
      <point x="207" y="0"/>
      <point x="244" y="-4"/>
      <point x="261" y="-4" type="curve" smooth="yes"/>
      <point x="332" y="-4"/>
      <point x="381" y="9"/>
      <point x="420" y="30" type="curve" smooth="yes"/>
      <point x="458" y="51"/>
      <point x="517" y="84"/>
      <point x="517" y="194" type="curve" smooth="yes"/>
      <point x="517" y="307"/>
      <point x="441" y="339"/>
      <point x="376" y="358" type="curve" smooth="yes"/>
      <point x="370" y="360"/>
      <point x="371" y="366"/>
      <point x="376" y="368" type="curve" smooth="yes"/>
      <point x="407" y="379"/>
      <point x="424" y="390"/>
      <point x="444" y="410" type="curve" smooth="yes"/>
      <point x="461" y="428"/>
      <point x="479" y="463"/>
      <point x="479" y="508" type="curve" smooth="yes"/>
      <point x="479" y="614"/>
      <point x="407" y="657"/>
      <point x="262" y="657" type="curve" smooth="yes"/>
      <point x="207" y="657"/>
      <point x="191" y="652"/>
      <point x="154" y="652" type="curve" smooth="yes"/>
      <point x="114" y="652"/>
      <point x="106" y="653"/>
      <point x="54" y="653" type="curve" smooth="yes"/>
      <point x="37" y="653"/>
      <point x="28" y="647"/>
      <point x="28" y="637" type="curve" smooth="yes"/>
      <point x="28" y="626"/>
      <point x="37" y="617"/>
      <point x="58" y="614" type="curve" smooth="yes"/>
      <point x="103" y="609"/>
      <point x="119" y="589"/>
      <point x="119" y="537" type="curve" smooth="yes"/>
      <point x="119" y="105" type="line" smooth="yes"/>
      <point x="119" y="57"/>
      <point x="94" y="41"/>
      <point x="48" y="33" type="curve" smooth="yes"/>
      <point x="27" y="28"/>
      <point x="17" y="22"/>
      <point x="17" y="11" type="curve" smooth="yes"/>
      <point x="17" y="1"/>
      <point x="28" y="-5"/>
    </contour>
    <contour>
      <point x="271" y="48" type="curve" smooth="yes"/>
      <point x="226" y="48"/>
      <point x="201" y="63"/>
      <point x="201" y="115" type="curve" smooth="yes"/>
      <point x="201" y="301" type="line" smooth="yes"/>
      <point x="201" y="314"/>
      <point x="213" y="335"/>
      <point x="252" y="335" type="curve" smooth="yes"/>
      <point x="305" y="335"/>
      <point x="338" y="322"/>
      <point x="356" y="311" type="curve" smooth="yes"/>
      <point x="381" y="296"/>
      <point x="420" y="261"/>
      <point x="420" y="191" type="curve" smooth="yes"/>
      <point x="420" y="106"/>
      <point x="350" y="48"/>
    </contour>
    <contour>
      <point x="242" y="378" type="curve" smooth="yes"/>
      <point x="228" y="378"/>
      <point x="201" y="380"/>
      <point x="201" y="412" type="curve" smooth="yes"/>
      <point x="201" y="570" type="line" smooth="yes"/>
      <point x="201" y="598"/>
      <point x="211" y="611"/>
      <point x="260" y="611" type="curve" smooth="yes"/>
      <point x="368" y="611"/>
      <point x="389" y="549"/>
      <point x="389" y="491" type="curve" smooth="yes"/>
      <point x="389" y="439"/>
      <point x="364" y="412"/>
      <point x="350" y="404" type="curve" smooth="yes"/>
      <point x="315" y="383"/>
      <point x="276" y="378"/>
    </contour>
  </outline>
</glyph>
<glyph name="C" format="1">
  <advance width="654"/>
  <unicode hex="0043"/>
  <outline>
    <contour>
      <point x="377" y="-15" type="curve" smooth="yes"/>
      <point x="437" y="-15"/>
      <point x="505" y="-6"/>
      <point x="550" y="14" type="curve" smooth="yes"/>
      <point x="569" y="23"/>
      <point x="570" y="23"/>
      <point x="579" y="44" type="curve" smooth="yes"/>
      <point x="591" y="76"/>
      <point x="603" y="135"/>
      <point x="604" y="153" type="curve" smooth="yes"/>
      <point x="605" y="178"/>
      <point x="571" y="184"/>
      <point x="558" y="157" type="curve" smooth="yes"/>
      <point x="522" y="80"/>
      <point x="473" y="35"/>
      <point x="392" y="35" type="curve" smooth="yes"/>
      <point x="237" y="35"/>
      <point x="147" y="181"/>
      <point x="147" y="345" type="curve" smooth="yes"/>
      <point x="147" y="483"/>
      <point x="246" y="612"/>
      <point x="386" y="612" type="curve" smooth="yes"/>
      <point x="436" y="612"/>
      <point x="478" y="600"/>
      <point x="506" y="579" type="curve" smooth="yes"/>
      <point x="536" y="556"/>
      <point x="547" y="523"/>
      <point x="560" y="478" type="curve" smooth="yes"/>
      <point x="568" y="451"/>
      <point x="602" y="462"/>
      <point x="601" y="480" type="curve" smooth="yes"/>
      <point x="598" y="531"/>
      <point x="592" y="572"/>
      <point x="589" y="603" type="curve" smooth="yes"/>
      <point x="587" y="621"/>
      <point x="580" y="632"/>
      <point x="561" y="638" type="curve" smooth="yes"/>
      <point x="504" y="655"/>
      <point x="470" y="663"/>
      <point x="400" y="663" type="curve" smooth="yes"/>
      <point x="209" y="663"/>
      <point x="42" y="517"/>
      <point x="42" y="323" type="curve" smooth="yes"/>
      <point x="42" y="119"/>
      <point x="202" y="-15"/>
    </contour>
  </outline>
</glyph>
<glyph name="D" format="1">
  <advance width="696"/>
  <unicode hex="0044"/>
  <outline>
    <contour>
      <point x="342" y="-7" type="curve" smooth="yes"/>
      <point x="519" y="-7"/>
      <point x="664" y="150"/>
      <point x="664" y="342" type="curve" smooth="yes"/>
      <point x="664" y="517"/>
      <point x="564" y="659"/>
      <point x="314" y="659" type="curve" smooth="yes"/>
      <point x="289" y="659"/>
      <point x="196" y="651"/>
      <point x="156" y="651" type="curve" smooth="yes"/>
      <point x="111" y="651"/>
      <point x="100" y="653"/>
      <point x="53" y="653" type="curve" smooth="yes"/>
      <point x="37" y="653"/>
      <point x="26" y="648"/>
      <point x="26" y="637" type="curve" smooth="yes"/>
      <point x="26" y="623"/>
      <point x="35" y="619"/>
      <point x="55" y="614" type="curve" smooth="yes"/>
      <point x="102" y="605"/>
      <point x="115" y="588"/>
      <point x="115" y="539" type="curve" smooth="yes"/>
      <point x="115" y="122" type="line" smooth="yes"/>
      <point x="115" y="63"/>
      <point x="101" y="44"/>
      <point x="55" y="34" type="curve" smooth="yes"/>
      <point x="35" y="29"/>
      <point x="26" y="27"/>
      <point x="26" y="13" type="curve" smooth="yes"/>
      <point x="26" y="-1"/>
      <point x="37" y="-5"/>
      <point x="53" y="-5" type="curve" smooth="yes"/>
      <point x="102" y="-5"/>
      <point x="113" y="0"/>
      <point x="150" y="0" type="curve" smooth="yes"/>
      <point x="223" y="0"/>
      <point x="324" y="-7"/>
    </contour>
    <contour>
      <point x="331" y="44" type="curve" smooth="yes"/>
      <point x="265" y="44"/>
      <point x="199" y="56"/>
      <point x="199" y="132" type="curve" smooth="yes"/>
      <point x="199" y="534" type="line" smooth="yes"/>
      <point x="199" y="610"/>
      <point x="242" y="612"/>
      <point x="319" y="612" type="curve" smooth="yes"/>
      <point x="439" y="612"/>
      <point x="565" y="516"/>
      <point x="565" y="325" type="curve" smooth="yes"/>
      <point x="565" y="154"/>
      <point x="469" y="44"/>
    </contour>
  </outline>
</glyph>
<glyph name="E" format="1">
  <advance width="524"/>
  <unicode hex="0045"/>
  <outline>
    <contour>
      <point x="59" y="-5" type="curve" smooth="yes"/>
      <point x="110" y="-5"/>
      <point x="125" y="1"/>
      <point x="167" y="1" type="curve" smooth="yes"/>
      <point x="261" y="1"/>
      <point x="341" y="-5"/>
      <point x="461" y="-5" type="curve" smooth="yes"/>
      <point x="468" y="-5"/>
      <point x="470" y="3"/>
      <point x="474" y="12" type="curve" smooth="yes"/>
      <point x="484" y="39"/>
      <point x="502" y="126"/>
      <point x="502" y="144" type="curve" smooth="yes"/>
      <point x="502" y="152"/>
      <point x="497" y="159"/>
      <point x="487" y="160" type="curve" smooth="yes"/>
      <point x="477" y="161"/>
      <point x="468" y="154"/>
      <point x="465" y="145" type="curve" smooth="yes"/>
      <point x="446" y="104"/>
      <point x="433" y="80"/>
      <point x="415" y="66" type="curve" smooth="yes"/>
      <point x="397" y="52"/>
      <point x="374" y="48"/>
      <point x="337" y="48" type="curve" smooth="yes"/>
      <point x="275" y="48" type="line" smooth="yes"/>
      <point x="233" y="48"/>
      <point x="214" y="64"/>
      <point x="214" y="115" type="curve" smooth="yes"/>
      <point x="214" y="286" type="line" smooth="yes"/>
      <point x="214" y="309"/>
      <point x="224" y="312"/>
      <point x="245" y="312" type="curve" smooth="yes"/>
      <point x="317" y="312" type="line" smooth="yes"/>
      <point x="343" y="312"/>
      <point x="352" y="300"/>
      <point x="359" y="271" type="curve" smooth="yes"/>
      <point x="365" y="249"/>
      <point x="376" y="238"/>
      <point x="390" y="238" type="curve" smooth="yes"/>
      <point x="401" y="238"/>
      <point x="403" y="247"/>
      <point x="403" y="256" type="curve" smooth="yes"/>
      <point x="403" y="264"/>
      <point x="401" y="317"/>
      <point x="401" y="337" type="curve" smooth="yes"/>
      <point x="401" y="353"/>
      <point x="404" y="401"/>
      <point x="404" y="410" type="curve" smooth="yes"/>
      <point x="404" y="420"/>
      <point x="395" y="428"/>
      <point x="386" y="428" type="curve" smooth="yes"/>
      <point x="375" y="428"/>
      <point x="367" y="419"/>
      <point x="362" y="404" type="curve" smooth="yes"/>
      <point x="354" y="375"/>
      <point x="344" y="360"/>
      <point x="314" y="360" type="curve" smooth="yes"/>
      <point x="231" y="360" type="line" smooth="yes"/>
      <point x="222" y="360"/>
      <point x="214" y="370"/>
      <point x="214" y="382" type="curve" smooth="yes"/>
      <point x="214" y="571" type="line" smooth="yes"/>
      <point x="214" y="590"/>
      <point x="236" y="602"/>
      <point x="247" y="602" type="curve" smooth="yes"/>
      <point x="356" y="602" type="line" smooth="yes"/>
      <point x="379" y="602"/>
      <point x="399" y="596"/>
      <point x="415" y="574" type="curve" smooth="yes"/>
      <point x="423" y="563"/>
      <point x="430" y="542"/>
      <point x="436" y="523" type="curve" smooth="yes"/>
      <point x="438" y="514"/>
      <point x="444" y="507"/>
      <point x="453" y="507" type="curve" smooth="yes"/>
      <point x="462" y="507"/>
      <point x="471" y="513"/>
      <point x="471" y="525" type="curve" smooth="yes"/>
      <point x="471" y="552"/>
      <point x="464" y="606"/>
      <point x="458" y="643" type="curve"/>
      <point x="456" y="651"/>
      <point x="448" y="653"/>
      <point x="441" y="653" type="curve" smooth="yes"/>
      <point x="436" y="653"/>
      <point x="403" y="652"/>
      <point x="360" y="651" type="curve" smooth="yes"/>
      <point x="320" y="651"/>
      <point x="271" y="650"/>
      <point x="229" y="650" type="curve" smooth="yes"/>
      <point x="165" y="650"/>
      <point x="135" y="653"/>
      <point x="66" y="653" type="curve" smooth="yes"/>
      <point x="50" y="653"/>
      <point x="39" y="648"/>
      <point x="39" y="637" type="curve" smooth="yes"/>
      <point x="39" y="625"/>
      <point x="48" y="616"/>
      <point x="69" y="611" type="curve" smooth="yes"/>
      <point x="114" y="601"/>
      <point x="130" y="588"/>
      <point x="130" y="543" type="curve" smooth="yes"/>
      <point x="130" y="107" type="line" smooth="yes"/>
      <point x="130" y="60"/>
      <point x="110" y="44"/>
      <point x="63" y="34" type="curve" smooth="yes"/>
      <point x="41" y="30"/>
      <point x="33" y="22"/>
      <point x="33" y="10" type="curve" smooth="yes"/>
      <point x="33" y="-1"/>
      <point x="44" y="-5"/>
    </contour>
  </outline>
</glyph>
<glyph name="F" format="1">
  <advance width="483"/>
  <unicode hex="0046"/>
  <outline>
    <contour>
      <point x="59" y="-5" type="curve" smooth="yes"/>
      <point x="111" y="-5"/>
      <point x="133" y="2"/>
      <point x="180" y="2" type="curve" smooth="yes"/>
      <point x="216" y="2"/>
      <point x="222" y="-5"/>
      <point x="273" y="-5" type="curve" smooth="yes"/>
      <point x="290" y="-5"/>
      <point x="301" y="-1"/>
      <point x="301" y="10" type="curve" smooth="yes"/>
      <point x="301" y="22"/>
      <point x="292" y="30"/>
      <point x="271" y="34" type="curve" smooth="yes"/>
      <point x="225" y="43"/>
      <point x="212" y="66"/>
      <point x="211" y="108" type="curve" smooth="yes"/>
      <point x="208" y="179"/>
      <point x="208" y="223"/>
      <point x="208" y="284" type="curve" smooth="yes"/>
      <point x="208" y="301"/>
      <point x="218" y="308"/>
      <point x="230" y="309" type="curve" smooth="yes"/>
      <point x="248" y="311"/>
      <point x="265" y="311"/>
      <point x="285" y="311" type="curve" smooth="yes"/>
      <point x="299" y="311"/>
      <point x="313" y="310"/>
      <point x="328" y="310" type="curve" smooth="yes"/>
      <point x="341" y="310"/>
      <point x="354" y="300"/>
      <point x="364" y="271" type="curve" smooth="yes"/>
      <point x="367" y="261"/>
      <point x="376" y="246"/>
      <point x="394" y="246" type="curve" smooth="yes"/>
      <point x="405" y="246"/>
      <point x="408" y="255"/>
      <point x="408" y="264" type="curve" smooth="yes"/>
      <point x="407" y="293"/>
      <point x="405" y="319"/>
      <point x="405" y="338" type="curve" smooth="yes"/>
      <point x="405" y="353"/>
      <point x="405" y="377"/>
      <point x="408" y="400" type="curve" smooth="yes"/>
      <point x="409" y="412"/>
      <point x="400" y="419"/>
      <point x="390" y="419" type="curve" smooth="yes"/>
      <point x="382" y="419"/>
      <point x="372" y="407"/>
      <point x="367" y="397" type="curve" smooth="yes"/>
      <point x="358" y="375"/>
      <point x="345" y="361"/>
      <point x="326" y="361" type="curve" smooth="yes"/>
      <point x="302" y="361"/>
      <point x="255" y="358"/>
      <point x="217" y="358" type="curve" smooth="yes"/>
      <point x="209" y="358"/>
      <point x="208" y="369"/>
      <point x="208" y="380" type="curve"/>
      <point x="207" y="404"/>
      <point x="207" y="426"/>
      <point x="207" y="460" type="curve" smooth="yes"/>
      <point x="207" y="495"/>
      <point x="207" y="527"/>
      <point x="208" y="552" type="curve" smooth="yes"/>
      <point x="209" y="578"/>
      <point x="211" y="602"/>
      <point x="239" y="602" type="curve" smooth="yes"/>
      <point x="354" y="602" type="line" smooth="yes"/>
      <point x="377" y="602"/>
      <point x="395" y="594"/>
      <point x="409" y="577" type="curve" smooth="yes"/>
      <point x="415" y="568"/>
      <point x="422" y="551"/>
      <point x="427" y="532" type="curve" smooth="yes"/>
      <point x="429" y="523"/>
      <point x="437" y="517"/>
      <point x="447" y="517" type="curve" smooth="yes"/>
      <point x="455" y="517"/>
      <point x="460" y="527"/>
      <point x="460" y="540" type="curve" smooth="yes"/>
      <point x="460" y="554"/>
      <point x="458" y="628"/>
      <point x="456" y="651" type="curve" smooth="yes"/>
      <point x="455" y="658"/>
      <point x="445" y="660"/>
      <point x="439" y="660" type="curve" smooth="yes"/>
      <point x="417" y="660"/>
      <point x="386" y="650"/>
      <point x="347" y="650" type="curve"/>
      <point x="308" y="650"/>
      <point x="264" y="650"/>
      <point x="228" y="650" type="curve" smooth="yes"/>
      <point x="162" y="650"/>
      <point x="134" y="653"/>
      <point x="65" y="653" type="curve" smooth="yes"/>
      <point x="49" y="653"/>
      <point x="38" y="649"/>
      <point x="38" y="638" type="curve" smooth="yes"/>
      <point x="38" y="626"/>
      <point x="47" y="616"/>
      <point x="68" y="611" type="curve" smooth="yes"/>
      <point x="114" y="601"/>
      <point x="124" y="577"/>
      <point x="124" y="524" type="curve" smooth="yes"/>
      <point x="124" y="107" type="line" smooth="yes"/>
      <point x="124" y="60"/>
      <point x="108" y="43"/>
      <point x="63" y="34" type="curve" smooth="yes"/>
      <point x="41" y="30"/>
      <point x="33" y="22"/>
      <point x="33" y="10" type="curve" smooth="yes"/>
      <point x="33" y="-1"/>
      <point x="44" y="-5"/>
    </contour>
  </outline>
</glyph>
<glyph name="G" format="1">
  <advance width="677"/>
  <unicode hex="0047"/>
  <outline>
    <contour>
      <point x="364" y="-14" type="curve" smooth="yes"/>
      <point x="484" y="-14"/>
      <point x="568" y="50"/>
      <point x="586" y="53" type="curve" smooth="yes"/>
      <point x="599" y="56"/>
      <point x="599" y="67"/>
      <point x="599" y="72" type="curve" smooth="yes"/>
      <point x="599" y="77"/>
      <point x="591" y="82"/>
      <point x="587" y="89" type="curve"/>
      <point x="584" y="95"/>
      <point x="582" y="98"/>
      <point x="582" y="105" type="curve" smooth="yes"/>
      <point x="582" y="132" type="line" smooth="yes"/>
      <point x="582" y="159"/>
      <point x="583" y="184"/>
      <point x="589" y="207" type="curve" smooth="yes"/>
      <point x="594" y="230"/>
      <point x="604" y="243"/>
      <point x="624" y="249" type="curve" smooth="yes"/>
      <point x="629" y="250"/>
      <point x="644" y="261"/>
      <point x="644" y="271" type="curve" smooth="yes"/>
      <point x="644" y="286"/>
      <point x="629" y="290"/>
      <point x="624" y="290" type="curve" smooth="yes"/>
      <point x="590" y="290"/>
      <point x="574" y="286"/>
      <point x="541" y="286" type="curve" smooth="yes"/>
      <point x="489" y="286"/>
      <point x="468" y="290"/>
      <point x="423" y="290" type="curve" smooth="yes"/>
      <point x="414" y="290"/>
      <point x="399" y="282"/>
      <point x="399" y="268" type="curve" smooth="yes"/>
      <point x="399" y="253"/>
      <point x="416" y="246"/>
      <point x="422" y="245" type="curve" smooth="yes"/>
      <point x="441" y="245"/>
      <point x="489" y="238"/>
      <point x="505" y="224" type="curve" smooth="yes"/>
      <point x="510" y="219"/>
      <point x="512" y="208"/>
      <point x="512" y="193" type="curve" smooth="yes"/>
      <point x="512" y="175"/>
      <point x="511" y="157"/>
      <point x="511" y="143" type="curve" smooth="yes"/>
      <point x="511" y="111"/>
      <point x="497" y="87"/>
      <point x="484" y="73" type="curve" smooth="yes"/>
      <point x="474" y="62"/>
      <point x="444" y="39"/>
      <point x="376" y="39" type="curve" smooth="yes"/>
      <point x="257" y="39"/>
      <point x="144" y="145"/>
      <point x="144" y="324" type="curve" smooth="yes"/>
      <point x="144" y="473"/>
      <point x="239" y="609"/>
      <point x="378" y="609" type="curve" smooth="yes"/>
      <point x="462" y="609"/>
      <point x="506" y="572"/>
      <point x="519" y="555" type="curve" smooth="yes"/>
      <point x="533" y="536"/>
      <point x="538" y="521"/>
      <point x="545" y="499" type="curve" smooth="yes"/>
      <point x="549" y="487"/>
      <point x="554" y="470"/>
      <point x="568" y="470" type="curve" smooth="yes"/>
      <point x="581" y="470"/>
      <point x="588" y="481"/>
      <point x="588" y="492" type="curve" smooth="yes"/>
      <point x="588" y="522"/>
      <point x="583" y="572"/>
      <point x="579" y="618" type="curve" smooth="yes"/>
      <point x="578" y="625"/>
      <point x="576" y="627"/>
      <point x="571" y="630" type="curve" smooth="yes"/>
      <point x="545" y="643"/>
      <point x="431" y="663"/>
      <point x="385" y="663" type="curve" smooth="yes"/>
      <point x="199" y="663"/>
      <point x="41" y="509"/>
      <point x="41" y="311" type="curve" smooth="yes"/>
      <point x="41" y="126"/>
      <point x="192" y="-14"/>
    </contour>
  </outline>
</glyph>
<glyph name="H" format="1">
  <advance width="744"/>
  <unicode hex="0048"/>
  <outline>
    <contour>
      <point x="60" y="-5" type="curve" smooth="yes"/>
      <point x="110" y="-5"/>
      <point x="123" y="2"/>
      <point x="163" y="2" type="curve" smooth="yes"/>
      <point x="207" y="2"/>
      <point x="223" y="-5"/>
      <point x="274" y="-5" type="curve" smooth="yes"/>
      <point x="290" y="-5"/>
      <point x="301" y="2"/>
      <point x="301" y="12" type="curve" smooth="yes"/>
      <point x="301" y="24"/>
      <point x="293" y="29"/>
      <point x="272" y="34" type="curve" smooth="yes"/>
      <point x="231" y="42"/>
      <point x="200" y="72"/>
      <point x="200" y="116" type="curve" smooth="yes"/>
      <point x="200" y="290" type="line" smooth="yes"/>
      <point x="200" y="298"/>
      <point x="200" y="301"/>
      <point x="205" y="301" type="curve" smooth="yes"/>
      <point x="541" y="301" type="line" smooth="yes"/>
      <point x="546" y="301"/>
      <point x="546" y="296"/>
      <point x="546" y="289" type="curve" smooth="yes"/>
      <point x="546" y="113" type="line" smooth="yes"/>
      <point x="546" y="66"/>
      <point x="521" y="42"/>
      <point x="483" y="33" type="curve" smooth="yes"/>
      <point x="462" y="29"/>
      <point x="454" y="24"/>
      <point x="454" y="12" type="curve" smooth="yes"/>
      <point x="454" y="2"/>
      <point x="465" y="-5"/>
      <point x="481" y="-5" type="curve" smooth="yes"/>
      <point x="532" y="-5"/>
      <point x="543" y="2"/>
      <point x="583" y="2" type="curve" smooth="yes"/>
      <point x="622" y="2"/>
      <point x="631" y="-5"/>
      <point x="682" y="-5" type="curve" smooth="yes"/>
      <point x="698" y="-5"/>
      <point x="709" y="2"/>
      <point x="709" y="12" type="curve" smooth="yes"/>
      <point x="709" y="24"/>
      <point x="701" y="29"/>
      <point x="680" y="34" type="curve" smooth="yes"/>
      <point x="635" y="43"/>
      <point x="629" y="59"/>
      <point x="629" y="110" type="curve" smooth="yes"/>
      <point x="629" y="543" type="line" smooth="yes"/>
      <point x="629" y="588"/>
      <point x="634" y="606"/>
      <point x="678" y="614" type="curve" smooth="yes"/>
      <point x="699" y="619"/>
      <point x="708" y="625"/>
      <point x="708" y="637" type="curve" smooth="yes"/>
      <point x="708" y="648"/>
      <point x="698" y="654"/>
      <point x="681" y="654" type="curve" smooth="yes"/>
      <point x="629" y="654"/>
      <point x="624" y="649"/>
      <point x="588" y="649" type="curve" smooth="yes"/>
      <point x="547" y="649"/>
      <point x="534" y="654"/>
      <point x="483" y="654" type="curve" smooth="yes"/>
      <point x="466" y="654"/>
      <point x="456" y="648"/>
      <point x="456" y="637" type="curve" smooth="yes"/>
      <point x="456" y="625"/>
      <point x="464" y="620"/>
      <point x="485" y="616" type="curve" smooth="yes"/>
      <point x="527" y="609"/>
      <point x="546" y="586"/>
      <point x="546" y="545" type="curve" smooth="yes"/>
      <point x="546" y="361" type="line" smooth="yes"/>
      <point x="546" y="353"/>
      <point x="541" y="351"/>
      <point x="536" y="351" type="curve" smooth="yes"/>
      <point x="213" y="351" type="line" smooth="yes"/>
      <point x="207" y="351"/>
      <point x="200" y="352"/>
      <point x="200" y="360" type="curve" smooth="yes"/>
      <point x="200" y="545" type="line" smooth="yes"/>
      <point x="200" y="582"/>
      <point x="223" y="607"/>
      <point x="266" y="614" type="curve" smooth="yes"/>
      <point x="287" y="619"/>
      <point x="295" y="625"/>
      <point x="295" y="637" type="curve" smooth="yes"/>
      <point x="295" y="648"/>
      <point x="286" y="654"/>
      <point x="268" y="654" type="curve" smooth="yes"/>
      <point x="218" y="654"/>
      <point x="204" y="649"/>
      <point x="163" y="649" type="curve" smooth="yes"/>
      <point x="124" y="649"/>
      <point x="114" y="654"/>
      <point x="63" y="654" type="curve" smooth="yes"/>
      <point x="46" y="654"/>
      <point x="36" y="648"/>
      <point x="36" y="637" type="curve" smooth="yes"/>
      <point x="36" y="625"/>
      <point x="45" y="620"/>
      <point x="65" y="614" type="curve" smooth="yes"/>
      <point x="109" y="604"/>
      <point x="116" y="590"/>
      <point x="116" y="542" type="curve" smooth="yes"/>
      <point x="116" y="109" type="line" smooth="yes"/>
      <point x="116" y="60"/>
      <point x="106" y="43"/>
      <point x="61" y="34" type="curve" smooth="yes"/>
      <point x="41" y="29"/>
      <point x="33" y="24"/>
      <point x="33" y="12" type="curve" smooth="yes"/>
      <point x="33" y="2"/>
      <point x="44" y="-5"/>
    </contour>
  </outline>
</glyph>
<glyph name="I" format="1">
  <advance width="317"/>
  <unicode hex="0049"/>
  <outline>
    <contour>
      <point x="43" y="-5" type="curve" smooth="yes"/>
      <point x="92" y="-5"/>
      <point x="114" y="2"/>
      <point x="164" y="2" type="curve" smooth="yes"/>
      <point x="210" y="2"/>
      <point x="225" y="-5"/>
      <point x="275" y="-5" type="curve" smooth="yes"/>
      <point x="290" y="-5"/>
      <point x="301" y="-1"/>
      <point x="301" y="10" type="curve" smooth="yes"/>
      <point x="301" y="22"/>
      <point x="292" y="29"/>
      <point x="271" y="34" type="curve" smooth="yes"/>
      <point x="226" y="43"/>
      <point x="200" y="62"/>
      <point x="200" y="110" type="curve" smooth="yes"/>
      <point x="200" y="534" type="line" smooth="yes"/>
      <point x="200" y="584"/>
      <point x="219" y="601"/>
      <point x="264" y="611" type="curve" smooth="yes"/>
      <point x="285" y="616"/>
      <point x="294" y="626"/>
      <point x="294" y="638" type="curve" smooth="yes"/>
      <point x="294" y="649"/>
      <point x="283" y="653"/>
      <point x="268" y="653" type="curve" smooth="yes"/>
      <point x="218" y="653"/>
      <point x="207" y="649"/>
      <point x="164" y="649" type="curve" smooth="yes"/>
      <point x="117" y="649"/>
      <point x="102" y="653"/>
      <point x="53" y="653" type="curve" smooth="yes"/>
      <point x="37" y="653"/>
      <point x="27" y="649"/>
      <point x="27" y="638" type="curve" smooth="yes"/>
      <point x="27" y="626"/>
      <point x="36" y="616"/>
      <point x="56" y="611" type="curve" smooth="yes"/>
      <point x="101" y="601"/>
      <point x="116" y="584"/>
      <point x="116" y="534" type="curve" smooth="yes"/>
      <point x="116" y="110" type="line" smooth="yes"/>
      <point x="116" y="62"/>
      <point x="91" y="43"/>
      <point x="46" y="34" type="curve" smooth="yes"/>
      <point x="26" y="29"/>
      <point x="17" y="22"/>
      <point x="17" y="10" type="curve" smooth="yes"/>
      <point x="17" y="-1"/>
      <point x="27" y="-5"/>
    </contour>
  </outline>
</glyph>
<glyph name="J" format="1">
  <advance width="324"/>
  <unicode hex="004A"/>
  <outline>
    <contour>
      <point x="38" y="-200" type="curve" smooth="yes"/>
      <point x="81" y="-200"/>
      <point x="114" y="-179"/>
      <point x="140" y="-147" type="curve" smooth="yes"/>
      <point x="173" y="-106"/>
      <point x="205" y="-34"/>
      <point x="205" y="47" type="curve" smooth="yes"/>
      <point x="205" y="534" type="line" smooth="yes"/>
      <point x="205" y="584"/>
      <point x="219" y="601"/>
      <point x="264" y="611" type="curve" smooth="yes"/>
      <point x="285" y="616"/>
      <point x="294" y="626"/>
      <point x="294" y="638" type="curve" smooth="yes"/>
      <point x="294" y="649"/>
      <point x="283" y="653"/>
      <point x="268" y="653" type="curve" smooth="yes"/>
      <point x="216" y="653"/>
      <point x="208" y="649"/>
      <point x="169" y="649" type="curve" smooth="yes"/>
      <point x="125" y="649"/>
      <point x="108" y="653"/>
      <point x="56" y="653" type="curve" smooth="yes"/>
      <point x="41" y="653"/>
      <point x="30" y="649"/>
      <point x="30" y="638" type="curve" smooth="yes"/>
      <point x="30" y="626"/>
      <point x="40" y="616"/>
      <point x="60" y="611" type="curve" smooth="yes"/>
      <point x="105" y="601"/>
      <point x="121" y="584"/>
      <point x="121" y="534" type="curve" smooth="yes"/>
      <point x="121" y="-1" type="line" smooth="yes"/>
      <point x="121" y="-92"/>
      <point x="104" y="-149"/>
      <point x="61" y="-149" type="curve" smooth="yes"/>
      <point x="44" y="-149"/>
      <point x="33" y="-142"/>
      <point x="20" y="-126" type="curve" smooth="yes"/>
      <point x="9" y="-111"/>
      <point x="-3" y="-104"/>
      <point x="-23" y="-104" type="curve" smooth="yes"/>
      <point x="-42" y="-104"/>
      <point x="-64" y="-128"/>
      <point x="-64" y="-151" type="curve" smooth="yes"/>
      <point x="-64" y="-182"/>
      <point x="-29" y="-200"/>
    </contour>
  </outline>
</glyph>
<glyph name="K" format="1">
  <advance width="639"/>
  <unicode hex="004B"/>
  <outline>
    <contour>
      <point x="59" y="-5" type="curve" smooth="yes"/>
      <point x="110" y="-5"/>
      <point x="126" y="3"/>
      <point x="170" y="3" type="curve" smooth="yes"/>
      <point x="209" y="3"/>
      <point x="221" y="-5"/>
      <point x="271" y="-5" type="curve" smooth="yes"/>
      <point x="287" y="-5"/>
      <point x="298" y="1"/>
      <point x="298" y="11" type="curve" smooth="yes"/>
      <point x="298" y="24"/>
      <point x="289" y="29"/>
      <point x="269" y="34" type="curve" smooth="yes"/>
      <point x="226" y="45"/>
      <point x="205" y="74"/>
      <point x="204" y="119" type="curve"/>
      <point x="203" y="191"/>
      <point x="202" y="235"/>
      <point x="202" y="298" type="curve" smooth="yes"/>
      <point x="202" y="305"/>
      <point x="201" y="319"/>
      <point x="206" y="319" type="curve" smooth="yes"/>
      <point x="210" y="319"/>
      <point x="219" y="310"/>
      <point x="227" y="302" type="curve"/>
      <point x="418" y="72" type="line" smooth="yes"/>
      <point x="423" y="66"/>
      <point x="428" y="61"/>
      <point x="427" y="55" type="curve" smooth="yes"/>
      <point x="427" y="49"/>
      <point x="421" y="44"/>
      <point x="406" y="41" type="curve"/>
      <point x="389" y="35"/>
      <point x="382" y="29"/>
      <point x="382" y="16" type="curve" smooth="yes"/>
      <point x="382" y="3"/>
      <point x="393" y="-1"/>
      <point x="408" y="-1" type="curve" smooth="yes"/>
      <point x="450" y="-1"/>
      <point x="463" y="0"/>
      <point x="486" y="0" type="curve" smooth="yes"/>
      <point x="537" y="0"/>
      <point x="564" y="-5"/>
      <point x="619" y="-5" type="curve" smooth="yes"/>
      <point x="635" y="-5"/>
      <point x="646" y="-1"/>
      <point x="646" y="12" type="curve" smooth="yes"/>
      <point x="646" y="25"/>
      <point x="637" y="31"/>
      <point x="612" y="37" type="curve" smooth="yes"/>
      <point x="563" y="49"/>
      <point x="550" y="54"/>
      <point x="510" y="101" type="curve" smooth="yes"/>
      <point x="299" y="351" type="line" smooth="yes"/>
      <point x="293" y="358"/>
      <point x="290" y="364"/>
      <point x="295" y="369" type="curve"/>
      <point x="358" y="445"/>
      <point x="405" y="493"/>
      <point x="469" y="554" type="curve" smooth="yes"/>
      <point x="506" y="589"/>
      <point x="546" y="604"/>
      <point x="591" y="611" type="curve" smooth="yes"/>
      <point x="619" y="616"/>
      <point x="631" y="627"/>
      <point x="631" y="639" type="curve" smooth="yes"/>
      <point x="631" y="649"/>
      <point x="620" y="655"/>
      <point x="604" y="655" type="curve" smooth="yes"/>
      <point x="593" y="655"/>
      <point x="508" y="651"/>
      <point x="459" y="651" type="curve" smooth="yes"/>
      <point x="408" y="651" type="line" smooth="yes"/>
      <point x="392" y="651"/>
      <point x="381" y="647"/>
      <point x="381" y="636" type="curve" smooth="yes"/>
      <point x="381" y="624"/>
      <point x="387" y="617"/>
      <point x="408" y="609" type="curve"/>
      <point x="419" y="607"/>
      <point x="424" y="602"/>
      <point x="424" y="594" type="curve" smooth="yes"/>
      <point x="424" y="587"/>
      <point x="420" y="579"/>
      <point x="413" y="570" type="curve" smooth="yes"/>
      <point x="231" y="370" type="line"/>
      <point x="225" y="362"/>
      <point x="213" y="352"/>
      <point x="207" y="352" type="curve" smooth="yes"/>
      <point x="202" y="352"/>
      <point x="202" y="366"/>
      <point x="202" y="371" type="curve" smooth="yes"/>
      <point x="202" y="536" type="line" smooth="yes"/>
      <point x="202" y="577"/>
      <point x="209" y="603"/>
      <point x="251" y="612" type="curve" smooth="yes"/>
      <point x="272" y="616"/>
      <point x="281" y="627"/>
      <point x="281" y="637" type="curve" smooth="yes"/>
      <point x="281" y="647"/>
      <point x="269" y="653"/>
      <point x="253" y="653" type="curve" smooth="yes"/>
      <point x="203" y="653"/>
      <point x="198" y="651"/>
      <point x="162" y="651" type="curve" smooth="yes"/>
      <point x="120" y="651"/>
      <point x="107" y="653"/>
      <point x="56" y="653" type="curve" smooth="yes"/>
      <point x="40" y="653"/>
      <point x="29" y="649"/>
      <point x="29" y="639" type="curve" smooth="yes"/>
      <point x="29" y="629"/>
      <point x="38" y="620"/>
      <point x="58" y="615" type="curve" smooth="yes"/>
      <point x="104" y="604"/>
      <point x="118" y="590"/>
      <point x="118" y="541" type="curve" smooth="yes"/>
      <point x="118" y="111" type="line" smooth="yes"/>
      <point x="118" y="61"/>
      <point x="106" y="43"/>
      <point x="61" y="34" type="curve" smooth="yes"/>
      <point x="40" y="30"/>
      <point x="31" y="24"/>
      <point x="31" y="11" type="curve" smooth="yes"/>
      <point x="31" y="1"/>
      <point x="43" y="-5"/>
    </contour>
  </outline>
</glyph>
<glyph name="L" format="1">
  <advance width="549"/>
  <unicode hex="004C"/>
  <outline>
    <contour>
      <point x="58" y="-5" type="curve"/>
      <point x="58" y="-5"/>
      <point x="137" y="0"/>
      <point x="183" y="0" type="curve" smooth="yes"/>
      <point x="275" y="0"/>
      <point x="378" y="-5"/>
      <point x="502" y="-5" type="curve" smooth="yes"/>
      <point x="511" y="-5"/>
      <point x="513" y="3"/>
      <point x="514" y="12" type="curve" smooth="yes"/>
      <point x="519" y="60"/>
      <point x="526" y="97"/>
      <point x="539" y="151" type="curve" smooth="yes"/>
      <point x="540" y="155"/>
      <point x="541" y="158"/>
      <point x="541" y="162" type="curve" smooth="yes"/>
      <point x="541" y="171"/>
      <point x="535" y="181"/>
      <point x="523" y="181" type="curve" smooth="yes"/>
      <point x="512" y="181"/>
      <point x="501" y="164"/>
      <point x="492" y="143" type="curve" smooth="yes"/>
      <point x="479" y="112"/>
      <point x="473" y="99"/>
      <point x="452" y="76" type="curve" smooth="yes"/>
      <point x="440" y="63"/>
      <point x="416" y="49"/>
      <point x="386" y="49" type="curve" smooth="yes"/>
      <point x="281" y="49" type="line" smooth="yes"/>
      <point x="221" y="49"/>
      <point x="211" y="69"/>
      <point x="211" y="110" type="curve" smooth="yes"/>
      <point x="211" y="559" type="line" smooth="yes"/>
      <point x="211" y="597"/>
      <point x="245" y="603"/>
      <point x="288" y="612" type="curve" smooth="yes"/>
      <point x="313" y="617"/>
      <point x="322" y="626"/>
      <point x="322" y="638" type="curve" smooth="yes"/>
      <point x="322" y="649"/>
      <point x="311" y="653"/>
      <point x="295" y="653" type="curve" smooth="yes"/>
      <point x="243" y="653"/>
      <point x="221" y="650"/>
      <point x="175" y="650" type="curve" smooth="yes"/>
      <point x="133" y="650"/>
      <point x="120" y="653"/>
      <point x="68" y="653" type="curve" smooth="yes"/>
      <point x="52" y="653"/>
      <point x="41" y="649"/>
      <point x="41" y="638" type="curve" smooth="yes"/>
      <point x="41" y="626"/>
      <point x="50" y="615"/>
      <point x="71" y="611" type="curve" smooth="yes"/>
      <point x="117" y="602"/>
      <point x="127" y="599"/>
      <point x="127" y="552" type="curve" smooth="yes"/>
      <point x="127" y="102" type="line" smooth="yes"/>
      <point x="127" y="60"/>
      <point x="102" y="44"/>
      <point x="57" y="35" type="curve" smooth="yes"/>
      <point x="49" y="33"/>
      <point x="33" y="27"/>
      <point x="33" y="11" type="curve" smooth="yes"/>
      <point x="33" y="2"/>
      <point x="42" y="-5"/>
    </contour>
  </outline>
</glyph>
<glyph name="M" format="1">
  <advance width="834"/>
  <unicode hex="004D"/>
  <outline>
    <contour>
      <point x="44" y="-5" type="curve" smooth="yes"/>
      <point x="94" y="-5"/>
      <point x="95" y="0"/>
      <point x="129" y="0" type="curve" smooth="yes"/>
      <point x="163" y="0"/>
      <point x="166" y="-5"/>
      <point x="216" y="-5" type="curve" smooth="yes"/>
      <point x="232" y="-5"/>
      <point x="243" y="-1"/>
      <point x="243" y="10" type="curve" smooth="yes"/>
      <point x="243" y="23"/>
      <point x="234" y="30"/>
      <point x="213" y="36" type="curve" smooth="yes"/>
      <point x="175" y="45"/>
      <point x="158" y="78"/>
      <point x="158" y="118" type="curve" smooth="yes"/>
      <point x="158" y="229"/>
      <point x="169" y="324"/>
      <point x="184" y="448" type="curve" smooth="yes"/>
      <point x="185" y="455"/>
      <point x="193" y="455"/>
      <point x="196" y="448" type="curve" smooth="yes"/>
      <point x="265" y="273"/>
      <point x="312" y="152"/>
      <point x="359" y="-4" type="curve" smooth="yes"/>
      <point x="362" y="-13"/>
      <point x="378" y="-13"/>
      <point x="381" y="-5" type="curve" smooth="yes"/>
      <point x="587" y="442" type="line" smooth="yes"/>
      <point x="593" y="455"/>
      <point x="600" y="456"/>
      <point x="602" y="442" type="curve"/>
      <point x="607" y="317"/>
      <point x="613" y="241"/>
      <point x="613" y="101" type="curve" smooth="yes"/>
      <point x="613" y="59"/>
      <point x="602" y="42"/>
      <point x="566" y="36" type="curve" smooth="yes"/>
      <point x="545" y="33"/>
      <point x="536" y="24"/>
      <point x="536" y="11" type="curve" smooth="yes"/>
      <point x="536" y="0"/>
      <point x="548" y="-5"/>
      <point x="564" y="-5" type="curve" smooth="yes"/>
      <point x="615" y="-5"/>
      <point x="625" y="0"/>
      <point x="664" y="0" type="curve" smooth="yes"/>
      <point x="707" y="0"/>
      <point x="724" y="-5"/>
      <point x="775" y="-5" type="curve" smooth="yes"/>
      <point x="791" y="-5"/>
      <point x="802" y="0"/>
      <point x="802" y="11" type="curve" smooth="yes"/>
      <point x="802" y="24"/>
      <point x="794" y="33"/>
      <point x="772" y="36" type="curve" smooth="yes"/>
      <point x="727" y="45"/>
      <point x="706" y="64"/>
      <point x="704" y="100" type="curve" smooth="yes"/>
      <point x="696" y="254"/>
      <point x="684" y="386"/>
      <point x="684" y="545" type="curve" smooth="yes"/>
      <point x="684" y="566"/>
      <point x="692" y="585"/>
      <point x="706" y="591" type="curve" smooth="yes"/>
      <point x="722" y="599"/>
      <point x="743" y="608"/>
      <point x="759" y="617" type="curve"/>
      <point x="778" y="627"/>
      <point x="783" y="632"/>
      <point x="783" y="643" type="curve" smooth="yes"/>
      <point x="783" y="655"/>
      <point x="768" y="656"/>
      <point x="762" y="656" type="curve" smooth="yes"/>
      <point x="738" y="656"/>
      <point x="687" y="648"/>
      <point x="646" y="648" type="curve" smooth="yes"/>
      <point x="609" y="648" type="line" smooth="yes"/>
      <point x="604" y="648"/>
      <point x="601" y="643"/>
      <point x="600" y="635" type="curve" smooth="yes"/>
      <point x="596" y="614"/>
      <point x="588" y="580"/>
      <point x="582" y="558" type="curve"/>
      <point x="412" y="180" type="line" smooth="yes"/>
      <point x="407" y="170"/>
      <point x="395" y="173"/>
      <point x="392" y="183" type="curve" smooth="yes"/>
      <point x="255" y="554" type="line" smooth="yes"/>
      <point x="246" y="579"/>
      <point x="241" y="607"/>
      <point x="235" y="631" type="curve" smooth="yes"/>
      <point x="232" y="641"/>
      <point x="226" y="647"/>
      <point x="217" y="647" type="curve" smooth="yes"/>
      <point x="193" y="647"/>
      <point x="94" y="655"/>
      <point x="70" y="655" type="curve" smooth="yes"/>
      <point x="51" y="655"/>
      <point x="38" y="652"/>
      <point x="38" y="639" type="curve" smooth="yes"/>
      <point x="38" y="627"/>
      <point x="46" y="620"/>
      <point x="58" y="616" type="curve" smooth="yes"/>
      <point x="83" y="611"/>
      <point x="100" y="605"/>
      <point x="116" y="590" type="curve" smooth="yes"/>
      <point x="127" y="579"/>
      <point x="131" y="565"/>
      <point x="131" y="547" type="curve" smooth="yes"/>
      <point x="132" y="536"/>
      <point x="132" y="522"/>
      <point x="132" y="510" type="curve" smooth="yes"/>
      <point x="132" y="427"/>
      <point x="119" y="291"/>
      <point x="99" y="118" type="curve" smooth="yes"/>
      <point x="93" y="67"/>
      <point x="76" y="41"/>
      <point x="47" y="35" type="curve" smooth="yes"/>
      <point x="26" y="30"/>
      <point x="17" y="23"/>
      <point x="17" y="10" type="curve" smooth="yes"/>
      <point x="17" y="-1"/>
      <point x="28" y="-5"/>
    </contour>
  </outline>
</glyph>
<glyph name="N" format="1">
  <advance width="727"/>
  <unicode hex="004E"/>
  <outline>
    <contour>
      <point x="613" y="-17" type="curve" smooth="yes"/>
      <point x="623" y="-17"/>
      <point x="634" y="-13"/>
      <point x="634" y="8" type="curve" smooth="yes"/>
      <point x="634" y="21"/>
      <point x="630" y="57"/>
      <point x="630" y="105" type="curve" smooth="yes"/>
      <point x="629" y="262"/>
      <point x="633" y="479"/>
      <point x="636" y="535" type="curve" smooth="yes"/>
      <point x="640" y="581"/>
      <point x="654" y="603"/>
      <point x="690" y="612" type="curve" smooth="yes"/>
      <point x="710" y="616"/>
      <point x="718" y="625"/>
      <point x="718" y="637" type="curve" smooth="yes"/>
      <point x="718" y="648"/>
      <point x="708" y="652"/>
      <point x="694" y="652" type="curve" smooth="yes"/>
      <point x="640" y="652"/>
      <point x="635" y="648"/>
      <point x="598" y="648" type="curve" smooth="yes"/>
      <point x="570" y="648"/>
      <point x="562" y="651"/>
      <point x="521" y="651" type="curve" smooth="yes"/>
      <point x="506" y="651"/>
      <point x="492" y="647"/>
      <point x="492" y="636" type="curve" smooth="yes"/>
      <point x="492" y="623"/>
      <point x="504" y="615"/>
      <point x="525" y="610" type="curve" smooth="yes"/>
      <point x="562" y="602"/>
      <point x="581" y="570"/>
      <point x="581" y="534" type="curve" smooth="yes"/>
      <point x="581" y="396"/>
      <point x="579" y="257"/>
      <point x="579" y="184" type="curve"/>
      <point x="578" y="169"/>
      <point x="574" y="163"/>
      <point x="570" y="163" type="curve" smooth="yes"/>
      <point x="563" y="163"/>
      <point x="552" y="177"/>
      <point x="547" y="183" type="curve" smooth="yes"/>
      <point x="529" y="207"/>
      <point x="219" y="609"/>
      <point x="201" y="636" type="curve"/>
      <point x="195" y="645"/>
      <point x="190" y="653"/>
      <point x="179" y="653" type="curve" smooth="yes"/>
      <point x="111" y="653"/>
      <point x="105" y="656"/>
      <point x="32" y="658" type="curve" smooth="yes"/>
      <point x="26" y="658"/>
      <point x="11" y="656"/>
      <point x="11" y="641" type="curve" smooth="yes"/>
      <point x="11" y="627"/>
      <point x="29" y="616"/>
      <point x="45" y="610" type="curve" smooth="yes"/>
      <point x="88" y="596"/>
      <point x="121" y="573"/>
      <point x="121" y="507" type="curve" smooth="yes"/>
      <point x="121" y="345"/>
      <point x="114" y="195"/>
      <point x="108" y="120" type="curve" smooth="yes"/>
      <point x="104" y="72"/>
      <point x="90" y="44"/>
      <point x="58" y="35" type="curve" smooth="yes"/>
      <point x="38" y="30"/>
      <point x="30" y="22"/>
      <point x="30" y="10" type="curve" smooth="yes"/>
      <point x="30" y="-1"/>
      <point x="40" y="-5"/>
      <point x="54" y="-5" type="curve" smooth="yes"/>
      <point x="106" y="-5"/>
      <point x="107" y="0"/>
      <point x="140" y="0" type="curve" smooth="yes"/>
      <point x="174" y="0"/>
      <point x="177" y="-5"/>
      <point x="229" y="-5" type="curve" smooth="yes"/>
      <point x="243" y="-5"/>
      <point x="254" y="-1"/>
      <point x="254" y="10" type="curve" smooth="yes"/>
      <point x="254" y="23"/>
      <point x="245" y="30"/>
      <point x="224" y="35" type="curve" smooth="yes"/>
      <point x="178" y="46"/>
      <point x="166" y="80"/>
      <point x="166" y="120" type="curve" smooth="yes"/>
      <point x="166" y="239"/>
      <point x="171" y="370"/>
      <point x="172" y="462" type="curve" smooth="yes"/>
      <point x="172" y="470"/>
      <point x="174" y="483"/>
      <point x="180" y="483" type="curve" smooth="yes"/>
      <point x="185" y="483"/>
      <point x="191" y="479"/>
      <point x="200" y="467" type="curve" smooth="yes"/>
      <point x="221" y="439"/>
      <point x="514" y="71"/>
      <point x="530" y="46" type="curve" smooth="yes"/>
      <point x="561" y="0"/>
      <point x="600" y="-17"/>
    </contour>
  </outline>
</glyph>
<glyph name="O" format="1">
  <advance width="705"/>
  <unicode hex="004F"/>
  <outline>
    <contour>
      <point x="348" y="-14" type="curve" smooth="yes"/>
      <point x="553" y="-14"/>
      <point x="663" y="146"/>
      <point x="663" y="335" type="curve" smooth="yes"/>
      <point x="663" y="541"/>
      <point x="519" y="664"/>
      <point x="357" y="664" type="curve" smooth="yes"/>
      <point x="151" y="664"/>
      <point x="41" y="504"/>
      <point x="41" y="315" type="curve" smooth="yes"/>
      <point x="41" y="109"/>
      <point x="185" y="-14"/>
    </contour>
    <contour>
      <point x="362" y="40" type="curve" smooth="yes"/>
      <point x="214" y="40"/>
      <point x="141" y="177"/>
      <point x="141" y="363" type="curve" smooth="yes"/>
      <point x="141" y="520"/>
      <point x="209" y="608"/>
      <point x="342" y="608" type="curve" smooth="yes"/>
      <point x="490" y="608"/>
      <point x="563" y="473"/>
      <point x="563" y="288" type="curve" smooth="yes"/>
      <point x="563" y="129"/>
      <point x="497" y="40"/>
    </contour>
  </outline>
</glyph>
<glyph name="P" format="1">
  <advance width="517"/>
  <unicode hex="0050"/>
  <outline>
    <contour>
      <point x="47" y="-5" type="curve" smooth="yes"/>
      <point x="98" y="-5"/>
      <point x="120" y="3"/>
      <point x="168" y="3" type="curve" smooth="yes"/>
      <point x="207" y="3"/>
      <point x="218" y="-5"/>
      <point x="270" y="-5" type="curve" smooth="yes"/>
      <point x="285" y="-5"/>
      <point x="296" y="-1"/>
      <point x="296" y="10" type="curve" smooth="yes"/>
      <point x="296" y="22"/>
      <point x="287" y="29"/>
      <point x="266" y="34" type="curve" smooth="yes"/>
      <point x="219" y="43"/>
      <point x="200" y="68"/>
      <point x="200" y="123" type="curve" smooth="yes"/>
      <point x="200" y="575" type="line" smooth="yes"/>
      <point x="200" y="602"/>
      <point x="223" y="613"/>
      <point x="256" y="613" type="curve" smooth="yes"/>
      <point x="342" y="613"/>
      <point x="405" y="568"/>
      <point x="405" y="471" type="curve" smooth="yes"/>
      <point x="405" y="364"/>
      <point x="369" y="301"/>
      <point x="297" y="301" type="curve" smooth="yes"/>
      <point x="279" y="301"/>
      <point x="269" y="302"/>
      <point x="261" y="302" type="curve" smooth="yes"/>
      <point x="252" y="302"/>
      <point x="243" y="291"/>
      <point x="243" y="282" type="curve" smooth="yes"/>
      <point x="243" y="270"/>
      <point x="258" y="254"/>
      <point x="287" y="254" type="curve" smooth="yes"/>
      <point x="429" y="254"/>
      <point x="495" y="357"/>
      <point x="495" y="480" type="curve" smooth="yes"/>
      <point x="495" y="592"/>
      <point x="401" y="658"/>
      <point x="260" y="658" type="curve" smooth="yes"/>
      <point x="234" y="658"/>
      <point x="194" y="652"/>
      <point x="156" y="652" type="curve" smooth="yes"/>
      <point x="116" y="652"/>
      <point x="113" y="653"/>
      <point x="60" y="653" type="curve" smooth="yes"/>
      <point x="43" y="653"/>
      <point x="31" y="648"/>
      <point x="31" y="637" type="curve" smooth="yes"/>
      <point x="31" y="625"/>
      <point x="41" y="616"/>
      <point x="62" y="611" type="curve" smooth="yes"/>
      <point x="107" y="599"/>
      <point x="116" y="573"/>
      <point x="116" y="519" type="curve" smooth="yes"/>
      <point x="116" y="117" type="line" smooth="yes"/>
      <point x="116" y="62"/>
      <point x="95" y="43"/>
      <point x="49" y="34" type="curve" smooth="yes"/>
      <point x="28" y="29"/>
      <point x="19" y="22"/>
      <point x="19" y="10" type="curve" smooth="yes"/>
      <point x="19" y="-1"/>
      <point x="31" y="-5"/>
    </contour>
  </outline>
</glyph>
<glyph name="Q" format="1">
  <advance width="705"/>
  <unicode hex="0051"/>
  <outline>
    <contour>
      <point x="684" y="-248" type="curve" smooth="yes"/>
      <point x="719" y="-248"/>
      <point x="759" y="-238"/>
      <point x="795" y="-216" type="curve" smooth="yes"/>
      <point x="809" y="-207"/>
      <point x="813" y="-199"/>
      <point x="813" y="-187" type="curve" smooth="yes"/>
      <point x="813" y="-181"/>
      <point x="805" y="-176"/>
      <point x="799" y="-176" type="curve" smooth="yes"/>
      <point x="794" y="-176"/>
      <point x="787" y="-178"/>
      <point x="781" y="-180" type="curve"/>
      <point x="768" y="-186"/>
      <point x="745" y="-189"/>
      <point x="721" y="-189" type="curve" smooth="yes"/>
      <point x="658" y="-189"/>
      <point x="606" y="-170"/>
      <point x="555" y="-128" type="curve" smooth="yes"/>
      <point x="510" y="-92"/>
      <point x="475" y="-59"/>
      <point x="440" y="-17" type="curve"/>
      <point x="437" y="-14"/>
      <point x="436" y="-11"/>
      <point x="436" y="-8" type="curve" smooth="yes"/>
      <point x="436" y="-6"/>
      <point x="437" y="-3"/>
      <point x="444" y="-1" type="curve" smooth="yes"/>
      <point x="587" y="41"/>
      <point x="663" y="178"/>
      <point x="663" y="335" type="curve" smooth="yes"/>
      <point x="663" y="541"/>
      <point x="519" y="664"/>
      <point x="357" y="664" type="curve" smooth="yes"/>
      <point x="151" y="664"/>
      <point x="41" y="504"/>
      <point x="41" y="315" type="curve" smooth="yes"/>
      <point x="41" y="156"/>
      <point x="125" y="57"/>
      <point x="229" y="10" type="curve"/>
      <point x="257" y="-4"/>
      <point x="293" y="-18"/>
      <point x="335" y="-54" type="curve" smooth="yes"/>
      <point x="393" y="-104"/>
      <point x="429" y="-132"/>
      <point x="477" y="-169" type="curve" smooth="yes"/>
      <point x="538" y="-218"/>
      <point x="593" y="-248"/>
    </contour>
    <contour>
      <point x="362" y="40" type="curve" smooth="yes"/>
      <point x="214" y="40"/>
      <point x="141" y="177"/>
      <point x="141" y="363" type="curve" smooth="yes"/>
      <point x="141" y="520"/>
      <point x="209" y="608"/>
      <point x="342" y="608" type="curve" smooth="yes"/>
      <point x="490" y="608"/>
      <point x="563" y="473"/>
      <point x="563" y="288" type="curve" smooth="yes"/>
      <point x="563" y="129"/>
      <point x="497" y="40"/>
    </contour>
  </outline>
</glyph>
<glyph name="R" format="1">
  <advance width="662"/>
  <unicode hex="0052"/>
  <outline>
    <contour>
      <point x="590" y="-21" type="curve" smooth="yes"/>
      <point x="613" y="-21"/>
      <point x="668" y="-15"/>
      <point x="668" y="20" type="curve" smooth="yes"/>
      <point x="668" y="30"/>
      <point x="663" y="33"/>
      <point x="654" y="33" type="curve" smooth="yes"/>
      <point x="613" y="33"/>
      <point x="585" y="35"/>
      <point x="554" y="65" type="curve" smooth="yes"/>
      <point x="467" y="147"/>
      <point x="422" y="223"/>
      <point x="366" y="312" type="curve" smooth="yes"/>
      <point x="362" y="318"/>
      <point x="361" y="323"/>
      <point x="366" y="325" type="curve"/>
      <point x="415" y="353"/>
      <point x="473" y="403"/>
      <point x="473" y="493" type="curve" smooth="yes"/>
      <point x="473" y="603"/>
      <point x="397" y="657"/>
      <point x="263" y="657" type="curve" smooth="yes"/>
      <point x="210" y="657"/>
      <point x="187" y="652"/>
      <point x="152" y="652" type="curve" smooth="yes"/>
      <point x="116" y="652"/>
      <point x="107" y="654"/>
      <point x="59" y="654" type="curve" smooth="yes"/>
      <point x="44" y="654"/>
      <point x="33" y="648"/>
      <point x="33" y="638" type="curve" smooth="yes"/>
      <point x="33" y="625"/>
      <point x="41" y="618"/>
      <point x="62" y="614" type="curve" smooth="yes"/>
      <point x="109" y="604"/>
      <point x="116" y="591"/>
      <point x="116" y="525" type="curve" smooth="yes"/>
      <point x="116" y="113" type="line" smooth="yes"/>
      <point x="116" y="62"/>
      <point x="102" y="44"/>
      <point x="56" y="34" type="curve" smooth="yes"/>
      <point x="36" y="29"/>
      <point x="27" y="24"/>
      <point x="27" y="12" type="curve" smooth="yes"/>
      <point x="27" y="1"/>
      <point x="38" y="-5"/>
      <point x="53" y="-5" type="curve" smooth="yes"/>
      <point x="104" y="-5"/>
      <point x="125" y="3"/>
      <point x="169" y="3" type="curve" smooth="yes"/>
      <point x="209" y="3"/>
      <point x="220" y="-5"/>
      <point x="269" y="-5" type="curve" smooth="yes"/>
      <point x="285" y="-5"/>
      <point x="296" y="1"/>
      <point x="296" y="12" type="curve" smooth="yes"/>
      <point x="296" y="24"/>
      <point x="287" y="29"/>
      <point x="267" y="34" type="curve" smooth="yes"/>
      <point x="222" y="43"/>
      <point x="200" y="76"/>
      <point x="200" y="121" type="curve" smooth="yes"/>
      <point x="200" y="281" type="line" smooth="yes"/>
      <point x="200" y="293"/>
      <point x="204" y="301"/>
      <point x="213" y="300" type="curve" smooth="yes"/>
      <point x="230" y="298"/>
      <point x="258" y="293"/>
      <point x="284" y="280" type="curve" smooth="yes"/>
      <point x="301" y="270"/>
      <point x="312" y="259"/>
      <point x="322" y="241" type="curve" smooth="yes"/>
      <point x="384" y="131"/>
      <point x="414" y="93"/>
      <point x="458" y="34" type="curve" smooth="yes"/>
      <point x="490" y="-10"/>
      <point x="536" y="-21"/>
    </contour>
    <contour>
      <point x="247" y="343" type="curve" smooth="yes"/>
      <point x="218" y="343"/>
      <point x="200" y="344"/>
      <point x="200" y="374" type="curve" smooth="yes"/>
      <point x="200" y="445"/>
      <point x="201" y="495"/>
      <point x="202" y="525" type="curve" smooth="yes"/>
      <point x="205" y="587"/>
      <point x="212" y="608"/>
      <point x="250" y="608" type="curve" smooth="yes"/>
      <point x="361" y="608"/>
      <point x="380" y="547"/>
      <point x="380" y="475" type="curve" smooth="yes"/>
      <point x="380" y="404"/>
      <point x="332" y="343"/>
    </contour>
  </outline>
</glyph>
<glyph name="S" format="1">
  <advance width="432"/>
  <unicode hex="0053"/>
  <outline>
    <contour>
      <point x="190" y="-16" type="curve" smooth="yes"/>
      <point x="311" y="-16"/>
      <point x="393" y="61"/>
      <point x="393" y="181" type="curve" smooth="yes"/>
      <point x="393" y="277"/>
      <point x="326" y="324"/>
      <point x="260" y="370" type="curve" smooth="yes"/>
      <point x="194" y="414"/>
      <point x="139" y="451"/>
      <point x="139" y="506" type="curve" smooth="yes"/>
      <point x="139" y="582"/>
      <point x="183" y="612"/>
      <point x="236" y="612" type="curve" smooth="yes"/>
      <point x="286" y="612"/>
      <point x="317" y="582"/>
      <point x="338" y="512" type="curve" smooth="yes"/>
      <point x="342" y="501"/>
      <point x="354" y="496"/>
      <point x="366" y="496" type="curve" smooth="yes"/>
      <point x="374" y="496"/>
      <point x="386" y="500"/>
      <point x="386" y="512" type="curve" smooth="yes"/>
      <point x="386" y="544"/>
      <point x="375" y="585"/>
      <point x="368" y="616" type="curve" smooth="yes"/>
      <point x="364" y="627"/>
      <point x="357" y="638"/>
      <point x="347" y="642" type="curve" smooth="yes"/>
      <point x="327" y="651"/>
      <point x="294" y="664"/>
      <point x="250" y="664" type="curve" smooth="yes"/>
      <point x="118" y="664"/>
      <point x="55" y="583"/>
      <point x="55" y="485" type="curve" smooth="yes"/>
      <point x="55" y="389"/>
      <point x="132" y="345"/>
      <point x="206" y="294" type="curve"/>
      <point x="271" y="249"/>
      <point x="305" y="220"/>
      <point x="305" y="150" type="curve" smooth="yes"/>
      <point x="305" y="77"/>
      <point x="264" y="35"/>
      <point x="203" y="35" type="curve" smooth="yes"/>
      <point x="154" y="35"/>
      <point x="103" y="67"/>
      <point x="80" y="160" type="curve" smooth="yes"/>
      <point x="77" y="169"/>
      <point x="69" y="174"/>
      <point x="60" y="174" type="curve" smooth="yes"/>
      <point x="47" y="174"/>
      <point x="36" y="166"/>
      <point x="37" y="157" type="curve" smooth="yes"/>
      <point x="39" y="129"/>
      <point x="40" y="79"/>
      <point x="46" y="52" type="curve" smooth="yes"/>
      <point x="48" y="44"/>
      <point x="54" y="37"/>
      <point x="58" y="32" type="curve"/>
      <point x="92" y="1"/>
      <point x="138" y="-16"/>
    </contour>
  </outline>
</glyph>
<glyph name="T" format="1">
  <advance width="618"/>
  <unicode hex="0054"/>
  <outline>
    <contour>
      <point x="195" y="-5" type="curve" smooth="yes"/>
      <point x="246" y="-5"/>
      <point x="269" y="0"/>
      <point x="316" y="0" type="curve" smooth="yes"/>
      <point x="360" y="0"/>
      <point x="376" y="-5"/>
      <point x="427" y="-5" type="curve" smooth="yes"/>
      <point x="443" y="-5"/>
      <point x="455" y="-1"/>
      <point x="455" y="10" type="curve" smooth="yes"/>
      <point x="455" y="22"/>
      <point x="446" y="29"/>
      <point x="420" y="34" type="curve" smooth="yes"/>
      <point x="379" y="43"/>
      <point x="353" y="62"/>
      <point x="353" y="109" type="curve" smooth="yes"/>
      <point x="353" y="484" type="line" smooth="yes"/>
      <point x="353" y="589"/>
      <point x="357" y="594"/>
      <point x="398" y="594" type="curve" smooth="yes"/>
      <point x="473" y="594" type="line" smooth="yes"/>
      <point x="531" y="594"/>
      <point x="551" y="576"/>
      <point x="556" y="547" type="curve"/>
      <point x="563" y="520"/>
      <point x="568" y="504"/>
      <point x="582" y="504" type="curve" smooth="yes"/>
      <point x="595" y="504"/>
      <point x="604" y="523"/>
      <point x="604" y="536" type="curve" smooth="yes"/>
      <point x="604" y="551" type="line" smooth="yes"/>
      <point x="604" y="580"/>
      <point x="608" y="581"/>
      <point x="613" y="621" type="curve" smooth="yes"/>
      <point x="614" y="628"/>
      <point x="616" y="646"/>
      <point x="616" y="654" type="curve" smooth="yes"/>
      <point x="616" y="665"/>
      <point x="612" y="677"/>
      <point x="606" y="677" type="curve" smooth="yes"/>
      <point x="585" y="677"/>
      <point x="575" y="666"/>
      <point x="554" y="657" type="curve" smooth="yes"/>
      <point x="534" y="648"/>
      <point x="510" y="642"/>
      <point x="469" y="642" type="curve" smooth="yes"/>
      <point x="176" y="642" type="line" smooth="yes"/>
      <point x="151" y="642"/>
      <point x="124" y="648"/>
      <point x="114" y="662" type="curve" smooth="yes"/>
      <point x="105" y="675"/>
      <point x="87" y="694"/>
      <point x="79" y="694" type="curve" smooth="yes"/>
      <point x="71" y="694"/>
      <point x="59" y="690"/>
      <point x="57" y="667" type="curve" smooth="yes"/>
      <point x="52" y="618"/>
      <point x="46" y="589"/>
      <point x="28" y="545" type="curve" smooth="yes"/>
      <point x="26" y="538"/>
      <point x="24" y="531"/>
      <point x="24" y="525" type="curve" smooth="yes"/>
      <point x="24" y="517"/>
      <point x="30" y="511"/>
      <point x="37" y="511" type="curve" smooth="yes"/>
      <point x="54" y="511"/>
      <point x="73" y="537"/>
      <point x="81" y="554" type="curve" smooth="yes"/>
      <point x="93" y="580"/>
      <point x="121" y="594"/>
      <point x="147" y="594" type="curve" smooth="yes"/>
      <point x="187" y="594" type="line" smooth="yes"/>
      <point x="217" y="594"/>
      <point x="233" y="594"/>
      <point x="249" y="590" type="curve" smooth="yes"/>
      <point x="264" y="586"/>
      <point x="269" y="565"/>
      <point x="269" y="482" type="curve" smooth="yes"/>
      <point x="269" y="109" type="line" smooth="yes"/>
      <point x="269" y="62"/>
      <point x="243" y="43"/>
      <point x="201" y="34" type="curve" smooth="yes"/>
      <point x="176" y="29"/>
      <point x="167" y="22"/>
      <point x="167" y="10" type="curve" smooth="yes"/>
      <point x="167" y="-1"/>
      <point x="179" y="-5"/>
    </contour>
  </outline>
</glyph>
<glyph name="U" format="1">
  <advance width="678"/>
  <unicode hex="0055"/>
  <outline>
    <contour>
      <point x="343" y="-14" type="curve" smooth="yes"/>
      <point x="483" y="-14"/>
      <point x="583" y="90"/>
      <point x="588" y="242" type="curve" smooth="yes"/>
      <point x="591" y="342"/>
      <point x="591" y="418"/>
      <point x="597" y="538" type="curve" smooth="yes"/>
      <point x="599" y="578"/>
      <point x="610" y="601"/>
      <point x="638" y="611" type="curve" smooth="yes"/>
      <point x="660" y="619"/>
      <point x="669" y="626"/>
      <point x="669" y="638" type="curve" smooth="yes"/>
      <point x="669" y="649"/>
      <point x="658" y="653"/>
      <point x="642" y="653" type="curve" smooth="yes"/>
      <point x="620" y="653"/>
      <point x="595" y="650"/>
      <point x="564" y="650" type="curve" smooth="yes"/>
      <point x="535" y="650"/>
      <point x="520" y="651"/>
      <point x="491" y="651" type="curve" smooth="yes"/>
      <point x="475" y="651"/>
      <point x="464" y="647"/>
      <point x="464" y="636" type="curve" smooth="yes"/>
      <point x="464" y="624"/>
      <point x="481" y="614"/>
      <point x="495" y="609" type="curve" smooth="yes"/>
      <point x="521" y="599"/>
      <point x="533" y="555"/>
      <point x="534" y="503" type="curve" smooth="yes"/>
      <point x="535" y="420"/>
      <point x="537" y="336"/>
      <point x="537" y="279" type="curve" smooth="yes"/>
      <point x="537" y="140"/>
      <point x="482" y="48"/>
      <point x="362" y="48" type="curve" smooth="yes"/>
      <point x="254" y="48"/>
      <point x="177" y="112"/>
      <point x="177" y="255" type="curve" smooth="yes"/>
      <point x="177" y="540" type="line" smooth="yes"/>
      <point x="177" y="581"/>
      <point x="200" y="604"/>
      <point x="215" y="610" type="curve" smooth="yes"/>
      <point x="235" y="619"/>
      <point x="246" y="625"/>
      <point x="246" y="637" type="curve" smooth="yes"/>
      <point x="246" y="648"/>
      <point x="234" y="652"/>
      <point x="219" y="652" type="curve" smooth="yes"/>
      <point x="198" y="652"/>
      <point x="171" y="650"/>
      <point x="141" y="650" type="curve" smooth="yes"/>
      <point x="105" y="650"/>
      <point x="77" y="653"/>
      <point x="48" y="653" type="curve" smooth="yes"/>
      <point x="32" y="653"/>
      <point x="21" y="649"/>
      <point x="21" y="638" type="curve" smooth="yes"/>
      <point x="21" y="626"/>
      <point x="30" y="618"/>
      <point x="51" y="609" type="curve" smooth="yes"/>
      <point x="72" y="600"/>
      <point x="93" y="585"/>
      <point x="93" y="537" type="curve" smooth="yes"/>
      <point x="93" y="232" type="line" smooth="yes"/>
      <point x="93" y="84"/>
      <point x="177" y="-14"/>
    </contour>
  </outline>
</glyph>
<glyph name="V" format="1">
  <advance width="612"/>
  <unicode hex="0056"/>
  <outline>
    <contour>
      <point x="297" y="-12" type="curve" smooth="yes"/>
      <point x="302" y="-12"/>
      <point x="308" y="-9"/>
      <point x="311" y="-5" type="curve" smooth="yes"/>
      <point x="323" y="19"/>
      <point x="338" y="62"/>
      <point x="344" y="79" type="curve" smooth="yes"/>
      <point x="509" y="529" type="line" smooth="yes"/>
      <point x="525" y="574"/>
      <point x="551" y="605"/>
      <point x="596" y="615" type="curve" smooth="yes"/>
      <point x="617" y="619"/>
      <point x="625" y="626"/>
      <point x="625" y="638" type="curve" smooth="yes"/>
      <point x="625" y="648"/>
      <point x="614" y="653"/>
      <point x="599" y="653" type="curve" smooth="yes"/>
      <point x="576" y="653"/>
      <point x="530" y="650"/>
      <point x="495" y="650" type="curve" smooth="yes"/>
      <point x="461" y="650"/>
      <point x="428" y="651"/>
      <point x="404" y="651" type="curve" smooth="yes"/>
      <point x="389" y="651"/>
      <point x="378" y="647"/>
      <point x="378" y="637" type="curve" smooth="yes"/>
      <point x="378" y="627"/>
      <point x="387" y="618"/>
      <point x="412" y="614" type="curve" smooth="yes"/>
      <point x="451" y="609"/>
      <point x="471" y="585"/>
      <point x="447" y="516" type="curve" smooth="yes"/>
      <point x="324" y="171" type="line" smooth="yes"/>
      <point x="321" y="162"/>
      <point x="316" y="165"/>
      <point x="314" y="170" type="curve" smooth="yes"/>
      <point x="189" y="530" type="line" smooth="yes"/>
      <point x="186" y="539"/>
      <point x="179" y="555"/>
      <point x="179" y="577" type="curve" smooth="yes"/>
      <point x="179" y="599"/>
      <point x="204" y="610"/>
      <point x="233" y="614" type="curve" smooth="yes"/>
      <point x="257" y="617"/>
      <point x="266" y="627"/>
      <point x="266" y="638" type="curve" smooth="yes"/>
      <point x="266" y="647"/>
      <point x="255" y="652"/>
      <point x="239" y="652" type="curve" smooth="yes"/>
      <point x="220" y="652"/>
      <point x="177" y="650"/>
      <point x="140" y="650" type="curve" smooth="yes"/>
      <point x="97" y="650"/>
      <point x="56" y="653"/>
      <point x="27" y="653" type="curve" smooth="yes"/>
      <point x="11" y="653"/>
      <point x="0" y="649"/>
      <point x="0" y="640" type="curve" smooth="yes"/>
      <point x="0" y="629"/>
      <point x="11" y="622"/>
      <point x="33" y="614" type="curve" smooth="yes"/>
      <point x="66" y="602"/>
      <point x="84" y="572"/>
      <point x="95" y="538" type="curve" smooth="yes"/>
      <point x="258" y="56" type="line" smooth="yes"/>
      <point x="264" y="38"/>
      <point x="274" y="10"/>
      <point x="281" y="-5" type="curve" smooth="yes"/>
      <point x="283" y="-10"/>
      <point x="291" y="-12"/>
    </contour>
  </outline>
</glyph>
<glyph name="W" format="1">
  <advance width="860"/>
  <unicode hex="0057"/>
  <outline>
    <contour>
      <point x="311" y="-16" type="curve" smooth="yes"/>
      <point x="322" y="-16"/>
      <point x="334" y="0"/>
      <point x="340" y="16" type="curve" smooth="yes"/>
      <point x="381" y="128"/>
      <point x="405" y="182"/>
      <point x="446" y="295" type="curve" smooth="yes"/>
      <point x="451" y="308"/>
      <point x="452" y="310"/>
      <point x="456" y="301" type="curve"/>
      <point x="499" y="184"/>
      <point x="517" y="126"/>
      <point x="560" y="8" type="curve" smooth="yes"/>
      <point x="564" y="-2"/>
      <point x="577" y="-12"/>
      <point x="584" y="-12" type="curve" smooth="yes"/>
      <point x="595" y="-12"/>
      <point x="608" y="2"/>
      <point x="611" y="12" type="curve" smooth="yes"/>
      <point x="769" y="526" type="line" smooth="yes"/>
      <point x="779" y="557"/>
      <point x="797" y="602"/>
      <point x="841" y="613" type="curve" smooth="yes"/>
      <point x="863" y="619"/>
      <point x="872" y="626"/>
      <point x="872" y="638" type="curve" smooth="yes"/>
      <point x="872" y="648"/>
      <point x="861" y="653"/>
      <point x="846" y="653" type="curve" smooth="yes"/>
      <point x="822" y="653"/>
      <point x="794" y="648"/>
      <point x="764" y="648" type="curve" smooth="yes"/>
      <point x="740" y="648"/>
      <point x="722" y="650"/>
      <point x="698" y="650" type="curve" smooth="yes"/>
      <point x="683" y="650"/>
      <point x="673" y="646"/>
      <point x="673" y="636" type="curve" smooth="yes"/>
      <point x="673" y="623"/>
      <point x="686" y="616"/>
      <point x="697" y="611" type="curve" smooth="yes"/>
      <point x="715" y="604"/>
      <point x="723" y="592"/>
      <point x="723" y="571" type="curve" smooth="yes"/>
      <point x="723" y="561"/>
      <point x="721" y="548"/>
      <point x="717" y="534" type="curve" smooth="yes"/>
      <point x="677" y="391"/>
      <point x="634" y="254"/>
      <point x="605" y="165" type="curve"/>
      <point x="602" y="156"/>
      <point x="598" y="152"/>
      <point x="595" y="159" type="curve" smooth="yes"/>
      <point x="513" y="393" type="line" smooth="yes"/>
      <point x="510" y="400"/>
      <point x="514" y="421"/>
      <point x="518" y="431" type="curve" smooth="yes"/>
      <point x="533" y="474"/>
      <point x="558" y="540"/>
      <point x="567" y="559" type="curve" smooth="yes"/>
      <point x="587" y="594"/>
      <point x="593" y="606"/>
      <point x="628" y="615" type="curve" smooth="yes"/>
      <point x="648" y="619"/>
      <point x="657" y="628"/>
      <point x="657" y="639" type="curve" smooth="yes"/>
      <point x="657" y="649"/>
      <point x="647" y="653"/>
      <point x="632" y="653" type="curve" smooth="yes"/>
      <point x="609" y="653"/>
      <point x="593" y="649"/>
      <point x="572" y="649" type="curve" smooth="yes"/>
      <point x="555" y="649"/>
      <point x="546" y="651"/>
      <point x="520" y="651" type="curve" smooth="yes"/>
      <point x="504" y="651"/>
      <point x="493" y="648"/>
      <point x="493" y="637" type="curve" smooth="yes"/>
      <point x="493" y="619"/>
      <point x="524" y="618"/>
      <point x="524" y="592" type="curve" smooth="yes"/>
      <point x="524" y="590"/>
      <point x="524" y="585"/>
      <point x="522" y="582" type="curve" smooth="yes"/>
      <point x="517" y="565"/>
      <point x="504" y="525"/>
      <point x="491" y="489" type="curve" smooth="yes"/>
      <point x="484" y="471"/>
      <point x="481" y="473"/>
      <point x="474" y="489" type="curve" smooth="yes"/>
      <point x="467" y="508"/>
      <point x="444" y="570"/>
      <point x="439" y="586" type="curve" smooth="yes"/>
      <point x="438" y="589"/>
      <point x="437" y="592"/>
      <point x="437" y="595" type="curve" smooth="yes"/>
      <point x="437" y="619"/>
      <point x="473" y="620"/>
      <point x="473" y="637" type="curve" smooth="yes"/>
      <point x="473" y="647"/>
      <point x="461" y="652"/>
      <point x="445" y="652" type="curve" smooth="yes"/>
      <point x="427" y="652"/>
      <point x="400" y="650"/>
      <point x="371" y="650" type="curve" smooth="yes"/>
      <point x="336" y="650"/>
      <point x="310" y="653"/>
      <point x="279" y="653" type="curve" smooth="yes"/>
      <point x="264" y="653"/>
      <point x="253" y="648"/>
      <point x="253" y="638" type="curve" smooth="yes"/>
      <point x="253" y="627"/>
      <point x="263" y="618"/>
      <point x="286" y="611" type="curve" smooth="yes"/>
      <point x="318" y="602"/>
      <point x="356" y="575"/>
      <point x="370" y="537" type="curve" smooth="yes"/>
      <point x="419" y="405" type="line" smooth="yes"/>
      <point x="423" y="392"/>
      <point x="426" y="384"/>
      <point x="426" y="376" type="curve" smooth="yes"/>
      <point x="426" y="370"/>
      <point x="425" y="363"/>
      <point x="421" y="353" type="curve" smooth="yes"/>
      <point x="347" y="166" type="line" smooth="yes"/>
      <point x="342" y="155"/>
      <point x="339" y="152"/>
      <point x="333" y="167" type="curve" smooth="yes"/>
      <point x="272" y="318"/>
      <point x="248" y="381"/>
      <point x="189" y="542" type="curve" smooth="yes"/>
      <point x="186" y="549"/>
      <point x="182" y="566"/>
      <point x="182" y="582" type="curve" smooth="yes"/>
      <point x="182" y="596"/>
      <point x="186" y="608"/>
      <point x="198" y="612" type="curve"/>
      <point x="220" y="619"/>
      <point x="230" y="626"/>
      <point x="230" y="637" type="curve" smooth="yes"/>
      <point x="230" y="648"/>
      <point x="219" y="652"/>
      <point x="203" y="652" type="curve" smooth="yes"/>
      <point x="184" y="652"/>
      <point x="149" y="650"/>
      <point x="113" y="650" type="curve" smooth="yes"/>
      <point x="80" y="650"/>
      <point x="57" y="653"/>
      <point x="26" y="653" type="curve" smooth="yes"/>
      <point x="11" y="653"/>
      <point x="0" y="648"/>
      <point x="0" y="639" type="curve" smooth="yes"/>
      <point x="0" y="627"/>
      <point x="10" y="619"/>
      <point x="35" y="609" type="curve" smooth="yes"/>
      <point x="61" y="600"/>
      <point x="83" y="581"/>
      <point x="98" y="548" type="curve"/>
      <point x="290" y="13" type="line" smooth="yes"/>
      <point x="295" y="-2"/>
      <point x="305" y="-16"/>
    </contour>
  </outline>
</glyph>
<glyph name="X" format="1">
  <advance width="657"/>
  <unicode hex="0058"/>
  <outline>
    <contour>
      <point x="22" y="-5" type="curve" smooth="yes"/>
      <point x="52" y="-5"/>
      <point x="97" y="1"/>
      <point x="138" y="1" type="curve" smooth="yes"/>
      <point x="171" y="1"/>
      <point x="205" y="-1"/>
      <point x="222" y="-1" type="curve" smooth="yes"/>
      <point x="237" y="-1"/>
      <point x="248" y="5"/>
      <point x="248" y="16" type="curve" smooth="yes"/>
      <point x="248" y="27"/>
      <point x="239" y="32"/>
      <point x="220" y="39" type="curve" smooth="yes"/>
      <point x="198" y="45"/>
      <point x="186" y="57"/>
      <point x="186" y="72" type="curve" smooth="yes"/>
      <point x="186" y="79"/>
      <point x="189" y="87"/>
      <point x="195" y="97" type="curve" smooth="yes"/>
      <point x="310" y="259" type="line" smooth="yes"/>
      <point x="317" y="268"/>
      <point x="321" y="268"/>
      <point x="330" y="254" type="curve" smooth="yes"/>
      <point x="418" y="119" type="line"/>
      <point x="426" y="106"/>
      <point x="428" y="95"/>
      <point x="428" y="85" type="curve" smooth="yes"/>
      <point x="428" y="61"/>
      <point x="411" y="46"/>
      <point x="392" y="40" type="curve" smooth="yes"/>
      <point x="380" y="34"/>
      <point x="362" y="29"/>
      <point x="362" y="18" type="curve" smooth="yes"/>
      <point x="362" y="7"/>
      <point x="373" y="0"/>
      <point x="390" y="0" type="curve" smooth="yes"/>
      <point x="412" y="0"/>
      <point x="448" y="1"/>
      <point x="487" y="1" type="curve" smooth="yes"/>
      <point x="531" y="1"/>
      <point x="596" y="-5"/>
      <point x="622" y="-5" type="curve" smooth="yes"/>
      <point x="638" y="-5"/>
      <point x="649" y="-1"/>
      <point x="649" y="9" type="curve" smooth="yes"/>
      <point x="649" y="21"/>
      <point x="640" y="27"/>
      <point x="615" y="35" type="curve" smooth="yes"/>
      <point x="583" y="45"/>
      <point x="544" y="75"/>
      <point x="515" y="120" type="curve" smooth="yes"/>
      <point x="383" y="328" type="line"/>
      <point x="377" y="343"/>
      <point x="380" y="347"/>
      <point x="396" y="368" type="curve" smooth="yes"/>
      <point x="502" y="514" type="line" smooth="yes"/>
      <point x="540" y="566"/>
      <point x="588" y="606"/>
      <point x="618" y="615" type="curve" smooth="yes"/>
      <point x="641" y="622"/>
      <point x="650" y="628"/>
      <point x="650" y="639" type="curve" smooth="yes"/>
      <point x="650" y="649"/>
      <point x="640" y="656"/>
      <point x="624" y="656" type="curve" smooth="yes"/>
      <point x="596" y="656"/>
      <point x="552" y="650"/>
      <point x="513" y="650" type="curve" smooth="yes"/>
      <point x="483" y="650"/>
      <point x="446" y="652"/>
      <point x="426" y="652" type="curve" smooth="yes"/>
      <point x="410" y="652"/>
      <point x="400" y="646"/>
      <point x="400" y="635" type="curve" smooth="yes"/>
      <point x="400" y="624"/>
      <point x="413" y="615"/>
      <point x="428" y="612" type="curve" smooth="yes"/>
      <point x="453" y="608"/>
      <point x="471" y="598"/>
      <point x="471" y="583" type="curve" smooth="yes"/>
      <point x="471" y="572"/>
      <point x="464" y="559"/>
      <point x="454" y="544" type="curve" smooth="yes"/>
      <point x="359" y="404" type="line" smooth="yes"/>
      <point x="350" y="390"/>
      <point x="345" y="387"/>
      <point x="333" y="407" type="curve" smooth="yes"/>
      <point x="254" y="528" type="line"/>
      <point x="238" y="552"/>
      <point x="232" y="566"/>
      <point x="232" y="577" type="curve" smooth="yes"/>
      <point x="232" y="596"/>
      <point x="249" y="605"/>
      <point x="272" y="613" type="curve" smooth="yes"/>
      <point x="289" y="619"/>
      <point x="302" y="623"/>
      <point x="302" y="634" type="curve" smooth="yes"/>
      <point x="302" y="645"/>
      <point x="291" y="652"/>
      <point x="275" y="652" type="curve" smooth="yes"/>
      <point x="255" y="652"/>
      <point x="218" y="650"/>
      <point x="180" y="650" type="curve" smooth="yes"/>
      <point x="134" y="650"/>
      <point x="74" y="655"/>
      <point x="44" y="655" type="curve" smooth="yes"/>
      <point x="28" y="655"/>
      <point x="17" y="652"/>
      <point x="17" y="641" type="curve" smooth="yes"/>
      <point x="17" y="630"/>
      <point x="27" y="622"/>
      <point x="51" y="615" type="curve" smooth="yes"/>
      <point x="82" y="605"/>
      <point x="117" y="585"/>
      <point x="156" y="525" type="curve" smooth="yes"/>
      <point x="271" y="349" type="line" smooth="yes"/>
      <point x="289" y="322"/>
      <point x="279" y="307"/>
      <point x="266" y="287" type="curve"/>
      <point x="151" y="131" type="line" smooth="yes"/>
      <point x="114" y="80"/>
      <point x="55" y="46"/>
      <point x="29" y="38" type="curve" smooth="yes"/>
      <point x="5" y="30"/>
      <point x="-5" y="23"/>
      <point x="-5" y="12" type="curve" smooth="yes"/>
      <point x="-5" y="2"/>
      <point x="6" y="-5"/>
    </contour>
  </outline>
</glyph>
<glyph name="Y" format="1">
  <advance width="539"/>
  <unicode hex="0059"/>
  <outline>
    <contour>
      <point x="169" y="-5" type="curve" smooth="yes"/>
      <point x="219" y="-5"/>
      <point x="242" y="0"/>
      <point x="289" y="0" type="curve" smooth="yes"/>
      <point x="332" y="0"/>
      <point x="348" y="-5"/>
      <point x="399" y="-5" type="curve" smooth="yes"/>
      <point x="415" y="-5"/>
      <point x="426" y="-1"/>
      <point x="426" y="10" type="curve" smooth="yes"/>
      <point x="426" y="22"/>
      <point x="417" y="29"/>
      <point x="396" y="33" type="curve" smooth="yes"/>
      <point x="351" y="42"/>
      <point x="325" y="71"/>
      <point x="325" y="118" type="curve" smooth="yes"/>
      <point x="325" y="250" type="line" smooth="yes"/>
      <point x="325" y="289"/>
      <point x="324" y="297"/>
      <point x="347" y="340" type="curve" smooth="yes"/>
      <point x="389" y="415"/>
      <point x="407" y="445"/>
      <point x="456" y="528" type="curve" smooth="yes"/>
      <point x="485" y="577"/>
      <point x="500" y="601"/>
      <point x="529" y="609" type="curve" smooth="yes"/>
      <point x="555" y="618"/>
      <point x="577" y="625"/>
      <point x="577" y="636" type="curve" smooth="yes"/>
      <point x="577" y="647"/>
      <point x="568" y="653"/>
      <point x="550" y="653" type="curve" smooth="yes"/>
      <point x="529" y="653"/>
      <point x="492" y="650"/>
      <point x="454" y="650" type="curve" smooth="yes"/>
      <point x="427" y="650"/>
      <point x="404" y="651"/>
      <point x="376" y="651" type="curve" smooth="yes"/>
      <point x="360" y="651"/>
      <point x="349" y="647"/>
      <point x="349" y="637" type="curve" smooth="yes"/>
      <point x="349" y="626"/>
      <point x="366" y="614"/>
      <point x="379" y="611" type="curve" smooth="yes"/>
      <point x="396" y="608"/>
      <point x="412" y="602"/>
      <point x="412" y="579" type="curve" smooth="yes"/>
      <point x="412" y="568"/>
      <point x="409" y="553"/>
      <point x="399" y="534" type="curve" smooth="yes"/>
      <point x="370" y="477"/>
      <point x="352" y="439"/>
      <point x="327" y="399" type="curve" smooth="yes"/>
      <point x="313" y="374"/>
      <point x="307" y="362"/>
      <point x="299" y="362" type="curve" smooth="yes"/>
      <point x="294" y="362"/>
      <point x="286" y="374"/>
      <point x="274" y="400" type="curve" smooth="yes"/>
      <point x="199" y="554" type="line" smooth="yes"/>
      <point x="191" y="569"/>
      <point x="187" y="581"/>
      <point x="187" y="589" type="curve" smooth="yes"/>
      <point x="187" y="603"/>
      <point x="198" y="607"/>
      <point x="214" y="612" type="curve" smooth="yes"/>
      <point x="233" y="617"/>
      <point x="243" y="625"/>
      <point x="243" y="637" type="curve" smooth="yes"/>
      <point x="243" y="647"/>
      <point x="232" y="652"/>
      <point x="215" y="652" type="curve" smooth="yes"/>
      <point x="195" y="652"/>
      <point x="169" y="650"/>
      <point x="139" y="650" type="curve" smooth="yes"/>
      <point x="95" y="650"/>
      <point x="56" y="653"/>
      <point x="28" y="653" type="curve" smooth="yes"/>
      <point x="12" y="653"/>
      <point x="0" y="649"/>
      <point x="0" y="638" type="curve" smooth="yes"/>
      <point x="0" y="627"/>
      <point x="9" y="619"/>
      <point x="33" y="611" type="curve" smooth="yes"/>
      <point x="60" y="601"/>
      <point x="95" y="551"/>
      <point x="107" y="529" type="curve" smooth="yes"/>
      <point x="218" y="330" type="line"/>
      <point x="224" y="319"/>
      <point x="241" y="283"/>
      <point x="241" y="256" type="curve" smooth="yes"/>
      <point x="241" y="118" type="line" smooth="yes"/>
      <point x="241" y="68"/>
      <point x="216" y="42"/>
      <point x="171" y="33" type="curve" smooth="yes"/>
      <point x="150" y="29"/>
      <point x="141" y="22"/>
      <point x="141" y="10" type="curve" smooth="yes"/>
      <point x="141" y="-1"/>
      <point x="153" y="-5"/>
    </contour>
  </outline>
</glyph>
<glyph name="Z" format="1">
  <advance width="554"/>
  <unicode hex="005A"/>
  <outline>
    <contour>
      <point x="490" y="-5" type="curve" smooth="yes"/>
      <point x="500" y="-5"/>
      <point x="503" y="4"/>
      <point x="507" y="12" type="curve" smooth="yes"/>
      <point x="517" y="36"/>
      <point x="540" y="143"/>
      <point x="540" y="156" type="curve" smooth="yes"/>
      <point x="540" y="170"/>
      <point x="536" y="176"/>
      <point x="527" y="176" type="curve" smooth="yes"/>
      <point x="512" y="176"/>
      <point x="500" y="156"/>
      <point x="493" y="141" type="curve" smooth="yes"/>
      <point x="474" y="86"/>
      <point x="444" y="57"/>
      <point x="397" y="53" type="curve" smooth="yes"/>
      <point x="357" y="50"/>
      <point x="315" y="48"/>
      <point x="277" y="48" type="curve" smooth="yes"/>
      <point x="239" y="48"/>
      <point x="205" y="51"/>
      <point x="182" y="53" type="curve"/>
      <point x="175" y="55"/>
      <point x="171" y="63"/>
      <point x="171" y="71" type="curve" smooth="yes"/>
      <point x="171" y="75"/>
      <point x="172" y="80"/>
      <point x="174" y="83" type="curve" smooth="yes"/>
      <point x="287" y="273"/>
      <point x="345" y="364"/>
      <point x="469" y="550" type="curve" smooth="yes"/>
      <point x="524" y="631" type="line" smooth="yes"/>
      <point x="528" y="636"/>
      <point x="520" y="649"/>
      <point x="514" y="649" type="curve" smooth="yes"/>
      <point x="446" y="647"/>
      <point x="377" y="646"/>
      <point x="300" y="646" type="curve" smooth="yes"/>
      <point x="258" y="646"/>
      <point x="214" y="646"/>
      <point x="183" y="646" type="curve" smooth="yes"/>
      <point x="152" y="646"/>
      <point x="117" y="656"/>
      <point x="105" y="662" type="curve" smooth="yes"/>
      <point x="95" y="667"/>
      <point x="81" y="676"/>
      <point x="77" y="676" type="curve" smooth="yes"/>
      <point x="72" y="676"/>
      <point x="64" y="674"/>
      <point x="63" y="659" type="curve" smooth="yes"/>
      <point x="60" y="617"/>
      <point x="45" y="562"/>
      <point x="40" y="545" type="curve"/>
      <point x="36" y="535"/>
      <point x="32" y="519"/>
      <point x="32" y="509" type="curve" smooth="yes"/>
      <point x="33" y="501"/>
      <point x="39" y="495"/>
      <point x="48" y="495" type="curve" smooth="yes"/>
      <point x="67" y="495"/>
      <point x="74" y="517"/>
      <point x="80" y="534" type="curve" smooth="yes"/>
      <point x="94" y="574"/>
      <point x="124" y="593"/>
      <point x="161" y="596" type="curve" smooth="yes"/>
      <point x="181" y="598"/>
      <point x="213" y="598"/>
      <point x="245" y="598" type="curve" smooth="yes"/>
      <point x="290" y="598"/>
      <point x="339" y="597"/>
      <point x="369" y="596" type="curve"/>
      <point x="381" y="595"/>
      <point x="385" y="593"/>
      <point x="385" y="589" type="curve" smooth="yes"/>
      <point x="385" y="587"/>
      <point x="383" y="585"/>
      <point x="382" y="582" type="curve" smooth="yes"/>
      <point x="267" y="389"/>
      <point x="199" y="291"/>
      <point x="77" y="104" type="curve" smooth="yes"/>
      <point x="56" y="73"/>
      <point x="24" y="21"/>
      <point x="24" y="11" type="curve"/>
      <point x="24" y="11"/>
      <point x="25" y="-3"/>
      <point x="31" y="-3" type="curve" smooth="yes"/>
      <point x="102" y="-3" type="line" smooth="yes"/>
      <point x="137" y="-3"/>
      <point x="175" y="-2"/>
      <point x="212" y="-2" type="curve" smooth="yes"/>
      <point x="294" y="-2"/>
      <point x="385" y="-5"/>
    </contour>
  </outline>
</glyph>
<glyph name="bracketleft" format="1">
  <advance width="312"/>
  <unicode hex="005B"/>
  <outline>
    <contour>
      <point x="135" y="-200" type="curve" smooth="yes"/>
      <point x="267" y="-200" type="line" smooth="yes"/>
      <point x="279" y="-200"/>
      <point x="293" y="-195"/>
      <point x="293" y="-179" type="curve" smooth="yes"/>
      <point x="293" y="-162"/>
      <point x="278" y="-154"/>
      <point x="262" y="-154" type="curve" smooth="yes"/>
      <point x="204" y="-149" type="line" smooth="yes"/>
      <point x="184" y="-148"/>
      <point x="174" y="-133"/>
      <point x="174" y="-102" type="curve" smooth="yes"/>
      <point x="174" y="612" type="line" smooth="yes"/>
      <point x="174" y="640"/>
      <point x="185" y="654"/>
      <point x="204" y="655" type="curve" smooth="yes"/>
      <point x="262" y="657" type="line" smooth="yes"/>
      <point x="278" y="658"/>
      <point x="293" y="666"/>
      <point x="293" y="681" type="curve" smooth="yes"/>
      <point x="293" y="697"/>
      <point x="282" y="701"/>
      <point x="272" y="701" type="curve" smooth="yes"/>
      <point x="140" y="702" type="line" smooth="yes"/>
      <point x="108" y="702"/>
      <point x="102" y="702"/>
      <point x="102" y="668" type="curve" smooth="yes"/>
      <point x="102" y="-171" type="line" smooth="yes"/>
      <point x="102" y="-199"/>
      <point x="109" y="-200"/>
    </contour>
  </outline>
</glyph>
<glyph name="backslash" format="1">
  <advance width="369"/>
  <unicode hex="005C"/>
  <outline>
    <contour>
      <point x="331" y="-62" type="curve" smooth="yes"/>
      <point x="345" y="-62"/>
      <point x="352" y="-55"/>
      <point x="349" y="-46" type="curve" smooth="yes"/>
      <point x="84" y="645" type="line" smooth="yes"/>
      <point x="78" y="661"/>
      <point x="61" y="665"/>
      <point x="43" y="665" type="curve" smooth="yes"/>
      <point x="28" y="665"/>
      <point x="24" y="656"/>
      <point x="28" y="647" type="curve" smooth="yes"/>
      <point x="293" y="-44" type="line" smooth="yes"/>
      <point x="298" y="-59"/>
      <point x="315" y="-62"/>
    </contour>
  </outline>
</glyph>
<glyph name="asciicircum" format="1">
  <advance width="465"/>
  <unicode hex="005E"/>
  <outline>
    <contour>
      <point x="56" y="283" type="curve" smooth="yes"/>
      <point x="70" y="283"/>
      <point x="95" y="292"/>
      <point x="105" y="306" type="curve" smooth="yes"/>
      <point x="226" y="497" type="line"/>
      <point x="231" y="503"/>
      <point x="232" y="503"/>
      <point x="237" y="497" type="curve"/>
      <point x="361" y="306" type="line" smooth="yes"/>
      <point x="369" y="295"/>
      <point x="392" y="284"/>
      <point x="408" y="284" type="curve" smooth="yes"/>
      <point x="419" y="284"/>
      <point x="422" y="299"/>
      <point x="416" y="309" type="curve"/>
      <point x="235" y="607" type="line"/>
      <point x="230" y="607" type="line"/>
      <point x="50" y="308" type="line"/>
      <point x="47" y="305"/>
      <point x="46" y="300"/>
      <point x="46" y="296" type="curve" smooth="yes"/>
      <point x="46" y="289"/>
      <point x="51" y="283"/>
    </contour>
  </outline>
</glyph>
<glyph name="underscore" format="1">
  <advance width="457"/>
  <unicode hex="005F"/>
  <outline>
    <contour>
      <point x="15" y="-185" type="curve" smooth="yes"/>
      <point x="422" y="-185" type="line" smooth="yes"/>
      <point x="439" y="-185"/>
      <point x="457" y="-157"/>
      <point x="457" y="-142" type="curve" smooth="yes"/>
      <point x="457" y="-135"/>
      <point x="448" y="-129"/>
      <point x="442" y="-129" type="curve" smooth="yes"/>
      <point x="27" y="-129" type="line" smooth="yes"/>
      <point x="6" y="-129"/>
      <point x="0" y="-162"/>
      <point x="0" y="-172" type="curve" smooth="yes"/>
      <point x="0" y="-179"/>
      <point x="8" y="-185"/>
    </contour>
  </outline>
</glyph>
<glyph name="grave" format="1">
  <advance width="190"/>
  <unicode hex="0060"/>
  <outline>
    <contour>
      <point x="158" y="515" type="curve" smooth="yes"/>
      <point x="168" y="515"/>
      <point x="172" y="517"/>
      <point x="169" y="530" type="curve" smooth="yes"/>
      <point x="168" y="536"/>
      <point x="166" y="545"/>
      <point x="161" y="556" type="curve" smooth="yes"/>
      <point x="147" y="591"/>
      <point x="113" y="658"/>
      <point x="97" y="687" type="curve" smooth="yes"/>
      <point x="88" y="703"/>
      <point x="78" y="712"/>
      <point x="64" y="712" type="curve" smooth="yes"/>
      <point x="40" y="712"/>
      <point x="19" y="705"/>
      <point x="20" y="690" type="curve" smooth="yes"/>
      <point x="20" y="683"/>
      <point x="25" y="676"/>
      <point x="30" y="667" type="curve" smooth="yes"/>
      <point x="56" y="622"/>
      <point x="90" y="577"/>
      <point x="119" y="544" type="curve" smooth="yes"/>
      <point x="134" y="525"/>
      <point x="150" y="516"/>
    </contour>
  </outline>
</glyph>
<glyph name="a" format="1">
  <advance width="378"/>
  <unicode hex="0061"/>
  <outline>
    <contour>
      <point x="109" y="-14" type="curve" smooth="yes"/>
      <point x="149" y="-14"/>
      <point x="187" y="4"/>
      <point x="226" y="41" type="curve"/>
      <point x="229" y="41" type="line"/>
      <point x="245" y="4"/>
      <point x="270" y="-14"/>
      <point x="300" y="-14" type="curve" smooth="yes"/>
      <point x="320" y="-14"/>
      <point x="347" y="1"/>
      <point x="367" y="23" type="curve" smooth="yes"/>
      <point x="372" y="29"/>
      <point x="377" y="38"/>
      <point x="377" y="44" type="curve" smooth="yes"/>
      <point x="377" y="51"/>
      <point x="372" y="57"/>
      <point x="364" y="57" type="curve" smooth="yes"/>
      <point x="362" y="57"/>
      <point x="359" y="56"/>
      <point x="354" y="50" type="curve" smooth="yes"/>
      <point x="347" y="42"/>
      <point x="337" y="39"/>
      <point x="323" y="39" type="curve" smooth="yes"/>
      <point x="304" y="39"/>
      <point x="293" y="56"/>
      <point x="293" y="83" type="curve" smooth="yes"/>
      <point x="297" y="375" type="line" smooth="yes"/>
      <point x="298" y="426"/>
      <point x="265" y="464"/>
      <point x="219" y="464" type="curve" smooth="yes"/>
      <point x="181" y="464"/>
      <point x="116" y="428"/>
      <point x="75" y="388" type="curve" smooth="yes"/>
      <point x="52" y="365"/>
      <point x="38" y="339"/>
      <point x="38" y="318" type="curve" smooth="yes"/>
      <point x="38" y="313"/>
      <point x="42" y="309"/>
      <point x="49" y="309" type="curve" smooth="yes"/>
      <point x="68" y="309"/>
      <point x="113" y="333"/>
      <point x="114" y="344" type="curve" smooth="yes"/>
      <point x="114" y="349"/>
      <point x="113" y="357"/>
      <point x="113" y="359" type="curve" smooth="yes"/>
      <point x="113" y="371"/>
      <point x="115" y="380"/>
      <point x="122" y="386" type="curve" smooth="yes"/>
      <point x="132" y="397"/>
      <point x="153" y="407"/>
      <point x="171" y="407" type="curve" smooth="yes"/>
      <point x="205" y="407"/>
      <point x="225" y="382"/>
      <point x="224" y="352" type="curve" smooth="yes"/>
      <point x="222" y="277" type="line" smooth="yes"/>
      <point x="221" y="245"/>
      <point x="221" y="243"/>
      <point x="196" y="230" type="curve" smooth="yes"/>
      <point x="101" y="184" type="line" smooth="yes"/>
      <point x="54" y="162"/>
      <point x="33" y="134"/>
      <point x="33" y="85" type="curve" smooth="yes"/>
      <point x="33" y="39"/>
      <point x="76" y="-14"/>
    </contour>
    <contour>
      <point x="157" y="45" type="curve" smooth="yes"/>
      <point x="136" y="45"/>
      <point x="113" y="64"/>
      <point x="113" y="101" type="curve" smooth="yes"/>
      <point x="113" y="132"/>
      <point x="131" y="156"/>
      <point x="197" y="184" type="curve" smooth="yes"/>
      <point x="207" y="189"/>
      <point x="212" y="190"/>
      <point x="215" y="190" type="curve" smooth="yes"/>
      <point x="222" y="190"/>
      <point x="223" y="184"/>
      <point x="222" y="169" type="curve" smooth="yes"/>
      <point x="221" y="112" type="line" smooth="yes"/>
      <point x="220" y="88"/>
      <point x="215" y="78"/>
      <point x="208" y="70" type="curve" smooth="yes"/>
      <point x="196" y="55"/>
      <point x="178" y="45"/>
    </contour>
  </outline>
</glyph>
<glyph name="b" format="1">
  <advance width="483"/>
  <unicode hex="0062"/>
  <outline>
    <contour>
      <point x="246" y="-14" type="curve" smooth="yes"/>
      <point x="368" y="-14"/>
      <point x="451" y="91"/>
      <point x="451" y="244" type="curve" smooth="yes"/>
      <point x="451" y="368"/>
      <point x="378" y="464"/>
      <point x="284" y="464" type="curve" smooth="yes"/>
      <point x="243" y="464"/>
      <point x="187" y="439"/>
      <point x="149" y="402" type="curve"/>
      <point x="142" y="403"/>
      <point x="140" y="410"/>
      <point x="140" y="439" type="curve" smooth="yes"/>
      <point x="140" y="593" type="line" smooth="yes"/>
      <point x="140" y="649"/>
      <point x="143" y="693"/>
      <point x="143" y="698" type="curve" smooth="yes"/>
      <point x="143" y="702"/>
      <point x="140" y="705"/>
      <point x="137" y="705" type="curve" smooth="yes"/>
      <point x="135" y="705"/>
      <point x="131" y="704"/>
      <point x="126" y="701" type="curve" smooth="yes"/>
      <point x="113" y="694"/>
      <point x="53" y="675"/>
      <point x="27" y="669" type="curve" smooth="yes"/>
      <point x="20" y="668"/>
      <point x="14" y="663"/>
      <point x="14" y="655" type="curve" smooth="yes"/>
      <point x="14" y="648"/>
      <point x="20" y="640"/>
      <point x="26" y="637" type="curve" smooth="yes"/>
      <point x="55" y="624"/>
      <point x="67" y="610"/>
      <point x="67" y="568" type="curve" smooth="yes"/>
      <point x="67" y="81" type="line" smooth="yes"/>
      <point x="67" y="56"/>
      <point x="60" y="21"/>
      <point x="60" y="9" type="curve" smooth="yes"/>
      <point x="60" y="2"/>
      <point x="68" y="-3"/>
      <point x="73" y="-3" type="curve" smooth="yes"/>
      <point x="76" y="-3"/>
      <point x="79" y="-1"/>
      <point x="82" y="2" type="curve" smooth="yes"/>
      <point x="87" y="8"/>
      <point x="95" y="15"/>
      <point x="103" y="15" type="curve" smooth="yes"/>
      <point x="111" y="15"/>
      <point x="137" y="7"/>
      <point x="164" y="-1" type="curve" smooth="yes"/>
      <point x="189" y="-8"/>
      <point x="219" y="-14"/>
    </contour>
    <contour>
      <point x="263" y="28" type="curve" smooth="yes"/>
      <point x="197" y="28"/>
      <point x="140" y="68"/>
      <point x="140" y="142" type="curve" smooth="yes"/>
      <point x="140" y="355" type="line"/>
      <point x="166" y="383"/>
      <point x="202" y="403"/>
      <point x="249" y="403" type="curve" smooth="yes"/>
      <point x="335" y="403"/>
      <point x="373" y="298"/>
      <point x="373" y="216" type="curve" smooth="yes"/>
      <point x="373" y="110"/>
      <point x="331" y="28"/>
    </contour>
  </outline>
</glyph>
<glyph name="c" format="1">
  <advance width="379"/>
  <unicode hex="0063"/>
  <outline>
    <contour>
      <point x="198" y="-15" type="curve" smooth="yes"/>
      <point x="255" y="-15"/>
      <point x="302" y="6"/>
      <point x="331" y="50" type="curve" smooth="yes"/>
      <point x="341" y="65"/>
      <point x="346" y="79"/>
      <point x="346" y="89" type="curve" smooth="yes"/>
      <point x="347" y="98"/>
      <point x="344" y="103"/>
      <point x="339" y="103" type="curve" smooth="yes"/>
      <point x="336" y="103"/>
      <point x="331" y="101"/>
      <point x="328" y="98" type="curve" smooth="yes"/>
      <point x="301" y="63"/>
      <point x="276" y="49"/>
      <point x="240" y="49" type="curve" smooth="yes"/>
      <point x="157" y="49"/>
      <point x="103" y="117"/>
      <point x="103" y="235" type="curve" smooth="yes"/>
      <point x="103" y="342"/>
      <point x="144" y="419"/>
      <point x="203" y="419" type="curve" smooth="yes"/>
      <point x="228" y="419"/>
      <point x="261" y="393"/>
      <point x="287" y="370" type="curve" smooth="yes"/>
      <point x="294" y="363"/>
      <point x="300" y="359"/>
      <point x="307" y="359" type="curve" smooth="yes"/>
      <point x="323" y="359"/>
      <point x="349" y="378"/>
      <point x="349" y="400" type="curve" smooth="yes"/>
      <point x="349" y="414"/>
      <point x="342" y="422"/>
      <point x="334" y="429" type="curve" smooth="yes"/>
      <point x="305" y="452"/>
      <point x="270" y="464"/>
      <point x="231" y="464" type="curve" smooth="yes"/>
      <point x="121" y="464"/>
      <point x="32" y="349"/>
      <point x="32" y="203" type="curve" smooth="yes"/>
      <point x="32" y="79"/>
      <point x="104" y="-15"/>
    </contour>
  </outline>
</glyph>
<glyph name="d" format="1">
  <advance width="478"/>
  <unicode hex="0064"/>
  <outline>
    <contour>
      <point x="333" y="-19" type="curve" smooth="yes"/>
      <point x="337" y="-19"/>
      <point x="338" y="-19"/>
      <point x="348" y="-13" type="curve" smooth="yes"/>
      <point x="395" y="7"/>
      <point x="427" y="16"/>
      <point x="458" y="20" type="curve" smooth="yes"/>
      <point x="469" y="21"/>
      <point x="476" y="33"/>
      <point x="476" y="46" type="curve" smooth="yes"/>
      <point x="476" y="56"/>
      <point x="468" y="60"/>
      <point x="456" y="59" type="curve" smooth="yes"/>
      <point x="440" y="58"/>
      <point x="426" y="56"/>
      <point x="420" y="56" type="curve" smooth="yes"/>
      <point x="406" y="56"/>
      <point x="401" y="79"/>
      <point x="401" y="116" type="curve" smooth="yes"/>
      <point x="401" y="562" type="line" smooth="yes"/>
      <point x="401" y="652"/>
      <point x="408" y="686"/>
      <point x="407" y="698" type="curve" smooth="yes"/>
      <point x="406" y="702"/>
      <point x="404" y="704"/>
      <point x="400" y="704" type="curve" smooth="yes"/>
      <point x="398" y="704"/>
      <point x="393" y="703"/>
      <point x="388" y="701" type="curve" smooth="yes"/>
      <point x="369" y="693"/>
      <point x="341" y="685"/>
      <point x="288" y="670" type="curve" smooth="yes"/>
      <point x="278" y="668"/>
      <point x="274" y="661"/>
      <point x="274" y="654" type="curve" smooth="yes"/>
      <point x="274" y="648"/>
      <point x="279" y="639"/>
      <point x="285" y="637" type="curve" smooth="yes"/>
      <point x="315" y="628"/>
      <point x="328" y="618"/>
      <point x="328" y="566" type="curve" smooth="yes"/>
      <point x="328" y="466" type="line" smooth="yes"/>
      <point x="328" y="453"/>
      <point x="325" y="449"/>
      <point x="322" y="449" type="curve" smooth="yes"/>
      <point x="319" y="449"/>
      <point x="315" y="450"/>
      <point x="309" y="452" type="curve" smooth="yes"/>
      <point x="295" y="457"/>
      <point x="267" y="464"/>
      <point x="242" y="464" type="curve" smooth="yes"/>
      <point x="110" y="464"/>
      <point x="32" y="344"/>
      <point x="32" y="214" type="curve" smooth="yes"/>
      <point x="32" y="97"/>
      <point x="99" y="-14"/>
      <point x="205" y="-14" type="curve" smooth="yes"/>
      <point x="267" y="-14"/>
      <point x="308" y="31"/>
      <point x="327" y="65" type="curve"/>
      <point x="327" y="51" type="line" smooth="yes"/>
      <point x="327" y="34"/>
      <point x="323" y="4"/>
      <point x="323" y="-9" type="curve" smooth="yes"/>
      <point x="323" y="-12"/>
      <point x="330" y="-19"/>
    </contour>
    <contour>
      <point x="243" y="48" type="curve" smooth="yes"/>
      <point x="203" y="48"/>
      <point x="109" y="74"/>
      <point x="109" y="239" type="curve" smooth="yes"/>
      <point x="109" y="384"/>
      <point x="177" y="420"/>
      <point x="219" y="420" type="curve" smooth="yes"/>
      <point x="299" y="420"/>
      <point x="328" y="375"/>
      <point x="328" y="308" type="curve" smooth="yes"/>
      <point x="327" y="101" type="line"/>
      <point x="305" y="70"/>
      <point x="274" y="48"/>
    </contour>
  </outline>
</glyph>
<glyph name="e" format="1">
  <advance width="367"/>
  <unicode hex="0065"/>
  <outline>
    <contour>
      <point x="201" y="-15" type="curve" smooth="yes"/>
      <point x="246" y="-15"/>
      <point x="289" y="5"/>
      <point x="318" y="39" type="curve" smooth="yes"/>
      <point x="336" y="56"/>
      <point x="347" y="79"/>
      <point x="347" y="102" type="curve" smooth="yes"/>
      <point x="347" y="110"/>
      <point x="344" y="116"/>
      <point x="337" y="116" type="curve" smooth="yes"/>
      <point x="333" y="116"/>
      <point x="330" y="114"/>
      <point x="323" y="102" type="curve" smooth="yes"/>
      <point x="301" y="67"/>
      <point x="271" y="46"/>
      <point x="234" y="46" type="curve" smooth="yes"/>
      <point x="157" y="46"/>
      <point x="94" y="133"/>
      <point x="94" y="240" type="curve" smooth="yes"/>
      <point x="94" y="274"/>
      <point x="100" y="283"/>
      <point x="117" y="283" type="curve" smooth="yes"/>
      <point x="312" y="283" type="line" smooth="yes"/>
      <point x="332" y="283"/>
      <point x="340" y="295"/>
      <point x="340" y="319" type="curve" smooth="yes"/>
      <point x="340" y="404"/>
      <point x="286" y="464"/>
      <point x="211" y="464" type="curve" smooth="yes"/>
      <point x="111" y="464"/>
      <point x="28" y="357"/>
      <point x="28" y="228" type="curve" smooth="yes"/>
      <point x="28" y="82"/>
      <point x="97" y="-15"/>
    </contour>
    <contour>
      <point x="122" y="319" type="line" smooth="yes"/>
      <point x="115" y="319"/>
      <point x="111" y="322"/>
      <point x="111" y="330" type="curve" smooth="yes"/>
      <point x="111" y="375"/>
      <point x="157" y="423"/>
      <point x="197" y="423" type="curve" smooth="yes"/>
      <point x="238" y="423"/>
      <point x="272" y="391"/>
      <point x="272" y="348" type="curve" smooth="yes"/>
      <point x="272" y="334"/>
      <point x="270" y="326"/>
      <point x="265" y="325" type="curve" smooth="yes"/>
      <point x="246" y="320"/>
      <point x="228" y="319"/>
      <point x="200" y="319" type="curve" smooth="yes"/>
    </contour>
  </outline>
</glyph>
<glyph name="f" format="1">
  <advance width="297"/>
  <unicode hex="0066"/>
  <outline>
    <contour>
      <point x="41" y="-2" type="curve" smooth="yes"/>
      <point x="77" y="-2"/>
      <point x="88" y="2"/>
      <point x="120" y="2" type="curve" smooth="yes"/>
      <point x="153" y="2"/>
      <point x="182" y="-2"/>
      <point x="218" y="-2" type="curve" smooth="yes"/>
      <point x="228" y="-2"/>
      <point x="237" y="0"/>
      <point x="237" y="11" type="curve" smooth="yes"/>
      <point x="237" y="24"/>
      <point x="227" y="29"/>
      <point x="216" y="32" type="curve" smooth="yes"/>
      <point x="181" y="41"/>
      <point x="155" y="48"/>
      <point x="155" y="81" type="curve" smooth="yes"/>
      <point x="155" y="382" type="line" smooth="yes"/>
      <point x="155" y="389"/>
      <point x="158" y="393"/>
      <point x="172" y="393" type="curve" smooth="yes"/>
      <point x="260" y="393" type="line" smooth="yes"/>
      <point x="269" y="393"/>
      <point x="276" y="397"/>
      <point x="279" y="404" type="curve" smooth="yes"/>
      <point x="283" y="411"/>
      <point x="289" y="431"/>
      <point x="289" y="440" type="curve" smooth="yes"/>
      <point x="289" y="445"/>
      <point x="283" y="450"/>
      <point x="277" y="450" type="curve" smooth="yes"/>
      <point x="165" y="450" type="line" smooth="yes"/>
      <point x="159" y="450"/>
      <point x="155" y="451"/>
      <point x="155" y="458" type="curve" smooth="yes"/>
      <point x="155" y="524" type="line" smooth="yes"/>
      <point x="155" y="614"/>
      <point x="197" y="658"/>
      <point x="252" y="658" type="curve" smooth="yes"/>
      <point x="290" y="658"/>
      <point x="308" y="641"/>
      <point x="324" y="623" type="curve" smooth="yes"/>
      <point x="335" y="612"/>
      <point x="344" y="600"/>
      <point x="357" y="600" type="curve" smooth="yes"/>
      <point x="374" y="600"/>
      <point x="391" y="613"/>
      <point x="391" y="638" type="curve" smooth="yes"/>
      <point x="391" y="678"/>
      <point x="358" y="706"/>
      <point x="289" y="706" type="curve" smooth="yes"/>
      <point x="210" y="706"/>
      <point x="82" y="655"/>
      <point x="82" y="481" type="curve" smooth="yes"/>
      <point x="82" y="456" type="line"/>
      <point x="64" y="447"/>
      <point x="51" y="436"/>
      <point x="31" y="423" type="curve" smooth="yes"/>
      <point x="27" y="419"/>
      <point x="22" y="414"/>
      <point x="22" y="409" type="curve" smooth="yes"/>
      <point x="22" y="403"/>
      <point x="31" y="394"/>
      <point x="35" y="393" type="curve" smooth="yes"/>
      <point x="54" y="392"/>
      <point x="71" y="392"/>
      <point x="82" y="392" type="curve"/>
      <point x="82" y="81" type="line" smooth="yes"/>
      <point x="82" y="48"/>
      <point x="67" y="40"/>
      <point x="43" y="32" type="curve" smooth="yes"/>
      <point x="32" y="29"/>
      <point x="22" y="24"/>
      <point x="22" y="11" type="curve" smooth="yes"/>
      <point x="22" y="0"/>
      <point x="31" y="-2"/>
    </contour>
  </outline>
</glyph>
<glyph name="g" format="1">
  <advance width="412"/>
  <unicode hex="0067"/>
  <outline>
    <contour>
      <point x="186" y="-290" type="curve" smooth="yes"/>
      <point x="289" y="-290"/>
      <point x="397" y="-180"/>
      <point x="397" y="-77" type="curve" smooth="yes"/>
      <point x="397" y="-16"/>
      <point x="344" y="16"/>
      <point x="223" y="24" type="curve" smooth="yes"/>
      <point x="149" y="30"/>
      <point x="102" y="46"/>
      <point x="107" y="74" type="curve" smooth="yes"/>
      <point x="107" y="88"/>
      <point x="127" y="109"/>
      <point x="151" y="120" type="curve"/>
      <point x="113" y="140" type="line"/>
      <point x="103" y="121"/>
      <point x="98" y="115"/>
      <point x="58" y="82" type="curve" smooth="yes"/>
      <point x="43" y="69"/>
      <point x="37" y="57"/>
      <point x="37" y="44" type="curve" smooth="yes"/>
      <point x="37" y="-7"/>
      <point x="76" y="-28"/>
      <point x="195" y="-38" type="curve" smooth="yes"/>
      <point x="295" y="-45"/>
      <point x="334" y="-65"/>
      <point x="334" y="-107" type="curve" smooth="yes"/>
      <point x="334" y="-151"/>
      <point x="315" y="-192"/>
      <point x="286" y="-216" type="curve" smooth="yes"/>
      <point x="264" y="-233"/>
      <point x="234" y="-242"/>
      <point x="196" y="-242" type="curve" smooth="yes"/>
      <point x="135" y="-242"/>
      <point x="89" y="-205"/>
      <point x="89" y="-151" type="curve" smooth="yes"/>
      <point x="89" y="-100"/>
      <point x="110" y="-68"/>
      <point x="164" y="-29" type="curve"/>
      <point x="124" y="-18" type="line"/>
      <point x="92" y="-46"/>
      <point x="60" y="-74"/>
      <point x="42" y="-91" type="curve" smooth="yes"/>
      <point x="20" y="-110"/>
      <point x="10" y="-133"/>
      <point x="10" y="-170" type="curve" smooth="yes"/>
      <point x="10" y="-244"/>
      <point x="78" y="-290"/>
    </contour>
    <contour>
      <point x="196" y="152" type="curve" smooth="yes"/>
      <point x="147" y="152"/>
      <point x="110" y="212"/>
      <point x="110" y="295" type="curve" smooth="yes"/>
      <point x="110" y="365"/>
      <point x="148" y="425"/>
      <point x="190" y="425" type="curve" smooth="yes"/>
      <point x="237" y="425"/>
      <point x="275" y="380"/>
      <point x="275" y="301" type="curve" smooth="yes"/>
      <point x="275" y="213"/>
      <point x="244" y="152"/>
    </contour>
    <contour>
      <point x="189" y="106" type="curve" smooth="yes"/>
      <point x="277" y="106"/>
      <point x="342" y="200"/>
      <point x="342" y="315" type="curve" smooth="yes"/>
      <point x="342" y="347"/>
      <point x="344" y="366"/>
      <point x="347" y="375" type="curve" smooth="yes"/>
      <point x="349" y="380"/>
      <point x="359" y="383"/>
      <point x="376" y="383" type="curve" smooth="yes"/>
      <point x="401" y="383" type="line" smooth="yes"/>
      <point x="403" y="383"/>
      <point x="406" y="386"/>
      <point x="409" y="389" type="curve" smooth="yes"/>
      <point x="414" y="397"/>
      <point x="418" y="407"/>
      <point x="418" y="413" type="curve" smooth="yes"/>
      <point x="418" y="425"/>
      <point x="412" y="433"/>
      <point x="406" y="433" type="curve" smooth="yes"/>
      <point x="396" y="433"/>
      <point x="368" y="430"/>
      <point x="353" y="430" type="curve" smooth="yes"/>
      <point x="334" y="430"/>
      <point x="320" y="431"/>
      <point x="289" y="441" type="curve" smooth="yes"/>
      <point x="263" y="450"/>
      <point x="238" y="465"/>
      <point x="201" y="465" type="curve" smooth="yes"/>
      <point x="114" y="465"/>
      <point x="36" y="390"/>
      <point x="36" y="282" type="curve" smooth="yes"/>
      <point x="36" y="185"/>
      <point x="109" y="106"/>
    </contour>
  </outline>
</glyph>
<glyph name="h" format="1">
  <advance width="485"/>
  <unicode hex="0068"/>
  <outline>
    <contour>
      <point x="36" y="-3" type="curve" smooth="yes"/>
      <point x="74" y="-3"/>
      <point x="80" y="4"/>
      <point x="113" y="4" type="curve" smooth="yes"/>
      <point x="147" y="4"/>
      <point x="150" y="-3"/>
      <point x="188" y="-3" type="curve" smooth="yes"/>
      <point x="202" y="-3"/>
      <point x="207" y="1"/>
      <point x="207" y="12" type="curve" smooth="yes"/>
      <point x="207" y="23"/>
      <point x="200" y="28"/>
      <point x="187" y="33" type="curve" smooth="yes"/>
      <point x="169" y="40"/>
      <point x="150" y="47"/>
      <point x="150" y="77" type="curve" smooth="yes"/>
      <point x="150" y="313" type="line" smooth="yes"/>
      <point x="150" y="349"/>
      <point x="155" y="361"/>
      <point x="175" y="376" type="curve" smooth="yes"/>
      <point x="192" y="389"/>
      <point x="226" y="396"/>
      <point x="248" y="396" type="curve" smooth="yes"/>
      <point x="291" y="396"/>
      <point x="332" y="361"/>
      <point x="332" y="306" type="curve" smooth="yes"/>
      <point x="332" y="79" type="line" smooth="yes"/>
      <point x="332" y="49"/>
      <point x="313" y="41"/>
      <point x="295" y="33" type="curve" smooth="yes"/>
      <point x="282" y="28"/>
      <point x="274" y="23"/>
      <point x="274" y="10" type="curve" smooth="yes"/>
      <point x="274" y="-1"/>
      <point x="282" y="-3"/>
      <point x="293" y="-3" type="curve" smooth="yes"/>
      <point x="331" y="-3"/>
      <point x="336" y="4"/>
      <point x="369" y="4" type="curve" smooth="yes"/>
      <point x="402" y="4"/>
      <point x="406" y="-3"/>
      <point x="444" y="-3" type="curve" smooth="yes"/>
      <point x="455" y="-3"/>
      <point x="463" y="-1"/>
      <point x="463" y="10" type="curve" smooth="yes"/>
      <point x="463" y="23"/>
      <point x="454" y="28"/>
      <point x="442" y="33" type="curve" smooth="yes"/>
      <point x="425" y="42"/>
      <point x="404" y="49"/>
      <point x="404" y="79" type="curve" smooth="yes"/>
      <point x="404" y="328" type="line" smooth="yes"/>
      <point x="404" y="406"/>
      <point x="358" y="464"/>
      <point x="297" y="464" type="curve" smooth="yes"/>
      <point x="227" y="464"/>
      <point x="165" y="411"/>
      <point x="140" y="391" type="curve"/>
      <point x="161" y="391" type="line"/>
      <point x="152" y="406"/>
      <point x="150" y="412"/>
      <point x="150" y="438" type="curve" smooth="yes"/>
      <point x="150" y="562" type="line" smooth="yes"/>
      <point x="150" y="669"/>
      <point x="158" y="686"/>
      <point x="158" y="698" type="curve" smooth="yes"/>
      <point x="158" y="702"/>
      <point x="155" y="705"/>
      <point x="151" y="705" type="curve" smooth="yes"/>
      <point x="149" y="705"/>
      <point x="147" y="704"/>
      <point x="145" y="703" type="curve"/>
      <point x="113" y="691"/>
      <point x="64" y="677"/>
      <point x="42" y="670" type="curve" smooth="yes"/>
      <point x="30" y="667"/>
      <point x="29" y="662"/>
      <point x="29" y="654" type="curve" smooth="yes"/>
      <point x="29" y="644"/>
      <point x="31" y="637"/>
      <point x="40" y="635" type="curve" smooth="yes"/>
      <point x="67" y="630"/>
      <point x="77" y="605"/>
      <point x="77" y="574" type="curve" smooth="yes"/>
      <point x="77" y="77" type="line" smooth="yes"/>
      <point x="77" y="47"/>
      <point x="56" y="39"/>
      <point x="38" y="33" type="curve" smooth="yes"/>
      <point x="23" y="28"/>
      <point x="17" y="24"/>
      <point x="17" y="12" type="curve" smooth="yes"/>
      <point x="17" y="1"/>
      <point x="24" y="-3"/>
    </contour>
  </outline>
</glyph>
<glyph name="i" format="1">
  <advance width="233"/>
  <unicode hex="0069"/>
  <outline>
    <contour>
      <point x="40" y="-3" type="curve" smooth="yes"/>
      <point x="78" y="-3"/>
      <point x="85" y="2"/>
      <point x="118" y="2" type="curve" smooth="yes"/>
      <point x="152" y="4"/>
      <point x="160" y="-3"/>
      <point x="196" y="-3" type="curve" smooth="yes"/>
      <point x="208" y="-3"/>
      <point x="215" y="1"/>
      <point x="215" y="12" type="curve" smooth="yes"/>
      <point x="215" y="25"/>
      <point x="204" y="29"/>
      <point x="194" y="33" type="curve" smooth="yes"/>
      <point x="169" y="41"/>
      <point x="155" y="50"/>
      <point x="155" y="77" type="curve" smooth="yes"/>
      <point x="155" y="338" type="line" smooth="yes"/>
      <point x="155" y="383"/>
      <point x="163" y="452"/>
      <point x="163" y="468" type="curve" smooth="yes"/>
      <point x="163" y="473"/>
      <point x="159" y="478"/>
      <point x="154" y="478" type="curve" smooth="yes"/>
      <point x="148" y="478"/>
      <point x="141" y="474"/>
      <point x="136" y="470" type="curve" smooth="yes"/>
      <point x="119" y="455"/>
      <point x="95" y="435"/>
      <point x="44" y="423" type="curve" smooth="yes"/>
      <point x="36" y="421"/>
      <point x="33" y="416"/>
      <point x="33" y="409" type="curve" smooth="yes"/>
      <point x="33" y="400"/>
      <point x="36" y="394"/>
      <point x="44" y="392" type="curve" smooth="yes"/>
      <point x="75" y="386"/>
      <point x="82" y="356"/>
      <point x="82" y="319" type="curve" smooth="yes"/>
      <point x="82" y="77" type="line" smooth="yes"/>
      <point x="82" y="49"/>
      <point x="68" y="41"/>
      <point x="43" y="33" type="curve" smooth="yes"/>
      <point x="33" y="29"/>
      <point x="22" y="25"/>
      <point x="22" y="12" type="curve" smooth="yes"/>
      <point x="22" y="1"/>
      <point x="29" y="-3"/>
    </contour>
    <contour>
      <point x="117" y="554" type="curve" smooth="yes"/>
      <point x="147" y="554"/>
      <point x="169" y="576"/>
      <point x="169" y="604" type="curve" smooth="yes"/>
      <point x="169" y="633"/>
      <point x="147" y="655"/>
      <point x="117" y="655" type="curve" smooth="yes"/>
      <point x="88" y="655"/>
      <point x="66" y="633"/>
      <point x="66" y="604" type="curve" smooth="yes"/>
      <point x="66" y="576"/>
      <point x="88" y="554"/>
    </contour>
  </outline>
</glyph>
<glyph name="j" format="1">
  <advance width="219"/>
  <unicode hex="006A"/>
  <outline>
    <contour>
      <point x="6" y="-287" type="curve" smooth="yes"/>
      <point x="42" y="-287"/>
      <point x="103" y="-220"/>
      <point x="127" y="-152" type="curve" smooth="yes"/>
      <point x="155" y="-72"/>
      <point x="155" y="29"/>
      <point x="155" y="91" type="curve" smooth="yes"/>
      <point x="155" y="319" type="line" smooth="yes"/>
      <point x="155" y="364"/>
      <point x="158" y="432"/>
      <point x="162" y="471" type="curve"/>
      <point x="162" y="476"/>
      <point x="159" y="478"/>
      <point x="154" y="478" type="curve" smooth="yes"/>
      <point x="152" y="478"/>
      <point x="148" y="475"/>
      <point x="141" y="471" type="curve" smooth="yes"/>
      <point x="122" y="459"/>
      <point x="91" y="434"/>
      <point x="45" y="423" type="curve" smooth="yes"/>
      <point x="37" y="421"/>
      <point x="34" y="413"/>
      <point x="34" y="409" type="curve" smooth="yes"/>
      <point x="34" y="400"/>
      <point x="37" y="395"/>
      <point x="44" y="392" type="curve" smooth="yes"/>
      <point x="74" y="384"/>
      <point x="83" y="361"/>
      <point x="83" y="326" type="curve" smooth="yes"/>
      <point x="83" y="67" type="line" smooth="yes"/>
      <point x="83" y="0"/>
      <point x="80" y="-129"/>
      <point x="53" y="-189" type="curve" smooth="yes"/>
      <point x="36" y="-227"/>
      <point x="15" y="-236"/>
      <point x="-3" y="-241" type="curve" smooth="yes"/>
      <point x="-10" y="-243"/>
      <point x="-21" y="-254"/>
      <point x="-21" y="-267" type="curve" smooth="yes"/>
      <point x="-21" y="-280"/>
      <point x="-5" y="-287"/>
    </contour>
    <contour>
      <point x="112" y="554" type="curve" smooth="yes"/>
      <point x="142" y="554"/>
      <point x="164" y="576"/>
      <point x="164" y="604" type="curve" smooth="yes"/>
      <point x="164" y="633"/>
      <point x="142" y="655"/>
      <point x="112" y="655" type="curve" smooth="yes"/>
      <point x="83" y="655"/>
      <point x="61" y="633"/>
      <point x="61" y="604" type="curve" smooth="yes"/>
      <point x="61" y="576"/>
      <point x="83" y="554"/>
    </contour>
  </outline>
</glyph>
<glyph name="k" format="1">
  <advance width="444"/>
  <unicode hex="006B"/>
  <outline>
    <contour>
      <point x="39" y="-3" type="curve" smooth="yes"/>
      <point x="76" y="-3"/>
      <point x="80" y="3"/>
      <point x="113" y="3" type="curve" smooth="yes"/>
      <point x="147" y="3"/>
      <point x="143" y="-3"/>
      <point x="181" y="-3" type="curve" smooth="yes"/>
      <point x="185" y="-3"/>
      <point x="204" y="-2"/>
      <point x="204" y="12" type="curve" smooth="yes"/>
      <point x="204" y="26"/>
      <point x="193" y="30"/>
      <point x="182" y="34" type="curve" smooth="yes"/>
      <point x="162" y="41"/>
      <point x="150" y="52"/>
      <point x="150" y="84" type="curve" smooth="yes"/>
      <point x="149" y="105"/>
      <point x="149" y="125"/>
      <point x="149" y="140" type="curve" smooth="yes"/>
      <point x="149" y="163"/>
      <point x="149" y="207"/>
      <point x="150" y="226" type="curve"/>
      <point x="150" y="231"/>
      <point x="152" y="233"/>
      <point x="154" y="233" type="curve" smooth="yes"/>
      <point x="158" y="233"/>
      <point x="160" y="231"/>
      <point x="163" y="226" type="curve" smooth="yes"/>
      <point x="274" y="63" type="line"/>
      <point x="277" y="59"/>
      <point x="279" y="54"/>
      <point x="279" y="50" type="curve" smooth="yes"/>
      <point x="279" y="41"/>
      <point x="269" y="36"/>
      <point x="256" y="33" type="curve" smooth="yes"/>
      <point x="247" y="29"/>
      <point x="240" y="25"/>
      <point x="240" y="15" type="curve" smooth="yes"/>
      <point x="240" y="8"/>
      <point x="244" y="1"/>
      <point x="257" y="1" type="curve" smooth="yes"/>
      <point x="321" y="1"/>
      <point x="386" y="-3"/>
      <point x="435" y="-3" type="curve" smooth="yes"/>
      <point x="446" y="-3"/>
      <point x="454" y="0"/>
      <point x="454" y="11" type="curve" smooth="yes"/>
      <point x="454" y="24"/>
      <point x="441" y="30"/>
      <point x="428" y="34" type="curve" smooth="yes"/>
      <point x="399" y="42"/>
      <point x="370" y="59"/>
      <point x="343" y="87" type="curve" smooth="yes"/>
      <point x="325" y="107"/>
      <point x="272" y="195"/>
      <point x="226" y="256" type="curve" smooth="yes"/>
      <point x="224" y="258"/>
      <point x="223" y="261"/>
      <point x="223" y="263" type="curve" smooth="yes"/>
      <point x="223" y="266"/>
      <point x="225" y="269"/>
      <point x="229" y="273" type="curve" smooth="yes"/>
      <point x="271" y="322"/>
      <point x="334" y="385"/>
      <point x="349" y="396" type="curve" smooth="yes"/>
      <point x="364" y="409"/>
      <point x="383" y="420"/>
      <point x="404" y="427" type="curve" smooth="yes"/>
      <point x="416" y="431"/>
      <point x="426" y="439"/>
      <point x="426" y="449" type="curve" smooth="yes"/>
      <point x="426" y="456"/>
      <point x="422" y="461"/>
      <point x="413" y="461" type="curve" smooth="yes"/>
      <point x="396" y="461"/>
      <point x="358" y="450"/>
      <point x="330" y="450" type="curve" smooth="yes"/>
      <point x="278" y="450" type="line" smooth="yes"/>
      <point x="265" y="450"/>
      <point x="258" y="444"/>
      <point x="258" y="435" type="curve" smooth="yes"/>
      <point x="258" y="428"/>
      <point x="261" y="424"/>
      <point x="269" y="423" type="curve" smooth="yes"/>
      <point x="281" y="421"/>
      <point x="290" y="416"/>
      <point x="290" y="409" type="curve" smooth="yes"/>
      <point x="290" y="404"/>
      <point x="288" y="401"/>
      <point x="284" y="395" type="curve" smooth="yes"/>
      <point x="268" y="376"/>
      <point x="235" y="335"/>
      <point x="186" y="282" type="curve" smooth="yes"/>
      <point x="172" y="267"/>
      <point x="162" y="259"/>
      <point x="154" y="259" type="curve" smooth="yes"/>
      <point x="152" y="259"/>
      <point x="150" y="262"/>
      <point x="150" y="268" type="curve" smooth="yes"/>
      <point x="150" y="562" type="line" smooth="yes"/>
      <point x="150" y="647"/>
      <point x="158" y="682"/>
      <point x="158" y="696" type="curve" smooth="yes"/>
      <point x="158" y="702"/>
      <point x="156" y="705"/>
      <point x="153" y="705" type="curve" smooth="yes"/>
      <point x="150" y="705"/>
      <point x="147" y="704"/>
      <point x="143" y="702" type="curve" smooth="yes"/>
      <point x="114" y="690"/>
      <point x="84" y="680"/>
      <point x="43" y="671" type="curve" smooth="yes"/>
      <point x="32" y="669"/>
      <point x="27" y="663"/>
      <point x="27" y="653" type="curve" smooth="yes"/>
      <point x="27" y="644"/>
      <point x="30" y="638"/>
      <point x="41" y="636" type="curve" smooth="yes"/>
      <point x="68" y="629"/>
      <point x="77" y="612"/>
      <point x="77" y="565" type="curve" smooth="yes"/>
      <point x="77" y="83" type="line" smooth="yes"/>
      <point x="77" y="50"/>
      <point x="58" y="41"/>
      <point x="38" y="34" type="curve" smooth="yes"/>
      <point x="28" y="29"/>
      <point x="17" y="27"/>
      <point x="17" y="12" type="curve" smooth="yes"/>
      <point x="17" y="1"/>
      <point x="25" y="-3"/>
    </contour>
  </outline>
</glyph>
<glyph name="l" format="1">
  <advance width="228"/>
  <unicode hex="006C"/>
  <outline>
    <contour>
      <point x="37" y="-3" type="curve" smooth="yes"/>
      <point x="74" y="-3"/>
      <point x="81" y="2"/>
      <point x="114" y="2" type="curve" smooth="yes"/>
      <point x="147" y="2"/>
      <point x="154" y="-3"/>
      <point x="192" y="-3" type="curve" smooth="yes"/>
      <point x="198" y="-3"/>
      <point x="210" y="-2"/>
      <point x="210" y="9" type="curve" smooth="yes"/>
      <point x="210" y="22"/>
      <point x="200" y="28"/>
      <point x="190" y="32" type="curve" smooth="yes"/>
      <point x="171" y="39"/>
      <point x="150" y="45"/>
      <point x="150" y="77" type="curve" smooth="yes"/>
      <point x="150" y="562" type="line" smooth="yes"/>
      <point x="150" y="652"/>
      <point x="157" y="686"/>
      <point x="157" y="698" type="curve" smooth="yes"/>
      <point x="157" y="701"/>
      <point x="154" y="705"/>
      <point x="149" y="705" type="curve" smooth="yes"/>
      <point x="144" y="705"/>
      <point x="139" y="703"/>
      <point x="136" y="700" type="curve" smooth="yes"/>
      <point x="110" y="685"/>
      <point x="86" y="676"/>
      <point x="40" y="667" type="curve" smooth="yes"/>
      <point x="31" y="665"/>
      <point x="29" y="658"/>
      <point x="29" y="651" type="curve" smooth="yes"/>
      <point x="29" y="644"/>
      <point x="32" y="637"/>
      <point x="43" y="634" type="curve" smooth="yes"/>
      <point x="68" y="628"/>
      <point x="78" y="605"/>
      <point x="78" y="567" type="curve" smooth="yes"/>
      <point x="78" y="77" type="line" smooth="yes"/>
      <point x="78" y="45"/>
      <point x="57" y="39"/>
      <point x="39" y="32" type="curve" smooth="yes"/>
      <point x="29" y="28"/>
      <point x="18" y="22"/>
      <point x="18" y="9" type="curve" smooth="yes"/>
      <point x="18" y="-2"/>
      <point x="30" y="-3"/>
    </contour>
  </outline>
</glyph>
<glyph name="m" format="1">
  <advance width="734"/>
  <unicode hex="006D"/>
  <outline>
    <contour>
      <point x="43" y="-3" type="curve" smooth="yes"/>
      <point x="81" y="-3"/>
      <point x="85" y="2"/>
      <point x="118" y="2" type="curve" smooth="yes"/>
      <point x="152" y="2"/>
      <point x="156" y="-3"/>
      <point x="195" y="-3" type="curve" smooth="yes"/>
      <point x="206" y="-3"/>
      <point x="215" y="1"/>
      <point x="215" y="12" type="curve" smooth="yes"/>
      <point x="215" y="25"/>
      <point x="203" y="29"/>
      <point x="193" y="33" type="curve" smooth="yes"/>
      <point x="174" y="39"/>
      <point x="155" y="45"/>
      <point x="155" y="76" type="curve" smooth="yes"/>
      <point x="155" y="314" type="line" smooth="yes"/>
      <point x="155" y="343"/>
      <point x="162" y="364"/>
      <point x="179" y="376" type="curve" smooth="yes"/>
      <point x="202" y="393"/>
      <point x="227" y="400"/>
      <point x="258" y="400" type="curve" smooth="yes"/>
      <point x="297" y="400"/>
      <point x="330" y="359"/>
      <point x="330" y="317" type="curve" smooth="yes"/>
      <point x="330" y="76" type="line" smooth="yes"/>
      <point x="330" y="44"/>
      <point x="308" y="39"/>
      <point x="290" y="33" type="curve" smooth="yes"/>
      <point x="279" y="29"/>
      <point x="269" y="25"/>
      <point x="269" y="12" type="curve" smooth="yes"/>
      <point x="269" y="1"/>
      <point x="278" y="-3"/>
      <point x="288" y="-3" type="curve" smooth="yes"/>
      <point x="327" y="-3"/>
      <point x="334" y="2"/>
      <point x="368" y="2" type="curve" smooth="yes"/>
      <point x="401" y="2"/>
      <point x="408" y="-3"/>
      <point x="446" y="-3" type="curve" smooth="yes"/>
      <point x="459" y="-3"/>
      <point x="465" y="1"/>
      <point x="465" y="12" type="curve" smooth="yes"/>
      <point x="465" y="23"/>
      <point x="456" y="29"/>
      <point x="444" y="33" type="curve" smooth="yes"/>
      <point x="426" y="38"/>
      <point x="403" y="44"/>
      <point x="403" y="76" type="curve" smooth="yes"/>
      <point x="403" y="314" type="line" smooth="yes"/>
      <point x="403" y="344"/>
      <point x="412" y="364"/>
      <point x="429" y="376" type="curve" smooth="yes"/>
      <point x="451" y="393"/>
      <point x="476" y="400"/>
      <point x="507" y="400" type="curve" smooth="yes"/>
      <point x="546" y="400"/>
      <point x="580" y="359"/>
      <point x="580" y="317" type="curve" smooth="yes"/>
      <point x="580" y="76" type="line" smooth="yes"/>
      <point x="580" y="47"/>
      <point x="559" y="39"/>
      <point x="540" y="33" type="curve" smooth="yes"/>
      <point x="528" y="29"/>
      <point x="519" y="25"/>
      <point x="519" y="12" type="curve" smooth="yes"/>
      <point x="519" y="1"/>
      <point x="527" y="-3"/>
      <point x="539" y="-3" type="curve" smooth="yes"/>
      <point x="577" y="-3"/>
      <point x="584" y="2"/>
      <point x="618" y="2" type="curve" smooth="yes"/>
      <point x="651" y="2"/>
      <point x="655" y="-3"/>
      <point x="693" y="-3" type="curve" smooth="yes"/>
      <point x="708" y="-3"/>
      <point x="712" y="1"/>
      <point x="712" y="12" type="curve" smooth="yes"/>
      <point x="712" y="23"/>
      <point x="703" y="27"/>
      <point x="691" y="33" type="curve" smooth="yes"/>
      <point x="673" y="41"/>
      <point x="652" y="47"/>
      <point x="652" y="76" type="curve" smooth="yes"/>
      <point x="652" y="325" type="line" smooth="yes"/>
      <point x="652" y="395"/>
      <point x="619" y="464"/>
      <point x="557" y="464" type="curve" smooth="yes"/>
      <point x="496" y="464"/>
      <point x="445" y="434"/>
      <point x="404" y="396" type="curve"/>
      <point x="402" y="396" type="line"/>
      <point x="382" y="447"/>
      <point x="353" y="464"/>
      <point x="308" y="464" type="curve" smooth="yes"/>
      <point x="235" y="464"/>
      <point x="189" y="428"/>
      <point x="161" y="399" type="curve"/>
      <point x="159" y="399" type="line"/>
      <point x="158" y="400"/>
      <point x="157" y="405"/>
      <point x="157" y="411" type="curve" smooth="yes"/>
      <point x="157" y="430"/>
      <point x="162" y="460"/>
      <point x="162" y="469" type="curve" smooth="yes"/>
      <point x="162" y="475"/>
      <point x="157" y="480"/>
      <point x="152" y="480" type="curve" smooth="yes"/>
      <point x="145" y="480"/>
      <point x="140" y="476"/>
      <point x="134" y="471" type="curve" smooth="yes"/>
      <point x="109" y="454"/>
      <point x="91" y="438"/>
      <point x="52" y="428" type="curve" smooth="yes"/>
      <point x="43" y="425"/>
      <point x="39" y="419"/>
      <point x="39" y="412" type="curve" smooth="yes"/>
      <point x="39" y="404"/>
      <point x="42" y="398"/>
      <point x="50" y="396" type="curve" smooth="yes"/>
      <point x="78" y="390"/>
      <point x="82" y="362"/>
      <point x="82" y="324" type="curve" smooth="yes"/>
      <point x="82" y="76" type="line" smooth="yes"/>
      <point x="82" y="45"/>
      <point x="62" y="39"/>
      <point x="45" y="33" type="curve" smooth="yes"/>
      <point x="32" y="29"/>
      <point x="22" y="23"/>
      <point x="22" y="12" type="curve" smooth="yes"/>
      <point x="22" y="-1"/>
      <point x="32" y="-3"/>
    </contour>
  </outline>
</glyph>
<glyph name="n" format="1">
  <advance width="496"/>
  <unicode hex="006E"/>
  <outline>
    <contour>
      <point x="41" y="-3" type="curve" smooth="yes"/>
      <point x="79" y="-3"/>
      <point x="85" y="4"/>
      <point x="118" y="4" type="curve" smooth="yes"/>
      <point x="152" y="4"/>
      <point x="157" y="-3"/>
      <point x="196" y="-3" type="curve" smooth="yes"/>
      <point x="208" y="-3"/>
      <point x="215" y="1"/>
      <point x="215" y="12" type="curve" smooth="yes"/>
      <point x="215" y="22"/>
      <point x="209" y="28"/>
      <point x="194" y="33" type="curve" smooth="yes"/>
      <point x="176" y="38"/>
      <point x="155" y="45"/>
      <point x="155" y="75" type="curve" smooth="yes"/>
      <point x="155" y="336" type="line" smooth="yes"/>
      <point x="155" y="343"/>
      <point x="157" y="353"/>
      <point x="162" y="358" type="curve" smooth="yes"/>
      <point x="184" y="385"/>
      <point x="218" y="399"/>
      <point x="261" y="399" type="curve" smooth="yes"/>
      <point x="310" y="398"/>
      <point x="342" y="363"/>
      <point x="342" y="304" type="curve" smooth="yes"/>
      <point x="342" y="75" type="line" smooth="yes"/>
      <point x="342" y="45"/>
      <point x="321" y="40"/>
      <point x="303" y="33" type="curve" smooth="yes"/>
      <point x="293" y="28"/>
      <point x="282" y="22"/>
      <point x="282" y="9" type="curve" smooth="yes"/>
      <point x="282" y="-2"/>
      <point x="294" y="-3"/>
      <point x="301" y="-3" type="curve" smooth="yes"/>
      <point x="339" y="-3"/>
      <point x="346" y="4"/>
      <point x="379" y="4" type="curve" smooth="yes"/>
      <point x="413" y="4"/>
      <point x="418" y="-3"/>
      <point x="456" y="-3" type="curve" smooth="yes"/>
      <point x="463" y="-3"/>
      <point x="475" y="-2"/>
      <point x="475" y="9" type="curve" smooth="yes"/>
      <point x="475" y="22"/>
      <point x="464" y="28"/>
      <point x="454" y="33" type="curve" smooth="yes"/>
      <point x="436" y="40"/>
      <point x="415" y="45"/>
      <point x="415" y="75" type="curve" smooth="yes"/>
      <point x="415" y="307" type="line" smooth="yes"/>
      <point x="415" y="395"/>
      <point x="370" y="464"/>
      <point x="309" y="464" type="curve" smooth="yes"/>
      <point x="251" y="464"/>
      <point x="203" y="442"/>
      <point x="159" y="398" type="curve"/>
      <point x="158" y="399"/>
      <point x="157" y="408"/>
      <point x="157" y="417" type="curve" smooth="yes"/>
      <point x="157" y="434"/>
      <point x="162" y="461"/>
      <point x="162" y="471" type="curve" smooth="yes"/>
      <point x="162" y="476"/>
      <point x="160" y="480"/>
      <point x="156" y="480" type="curve" smooth="yes"/>
      <point x="152" y="480"/>
      <point x="149" y="478"/>
      <point x="145" y="475" type="curve" smooth="yes"/>
      <point x="119" y="457"/>
      <point x="94" y="442"/>
      <point x="53" y="429" type="curve" smooth="yes"/>
      <point x="44" y="426"/>
      <point x="39" y="422"/>
      <point x="39" y="412" type="curve" smooth="yes"/>
      <point x="39" y="402"/>
      <point x="45" y="398"/>
      <point x="54" y="395" type="curve" smooth="yes"/>
      <point x="80" y="386"/>
      <point x="82" y="361"/>
      <point x="82" y="327" type="curve" smooth="yes"/>
      <point x="82" y="75" type="line" smooth="yes"/>
      <point x="82" y="45"/>
      <point x="61" y="39"/>
      <point x="43" y="33" type="curve" smooth="yes"/>
      <point x="29" y="28"/>
      <point x="22" y="25"/>
      <point x="22" y="12" type="curve" smooth="yes"/>
      <point x="22" y="1"/>
      <point x="30" y="-3"/>
    </contour>
  </outline>
</glyph>
<glyph name="o" format="1">
  <advance width="463"/>
  <unicode hex="006F"/>
  <outline>
    <contour>
      <point x="219" y="-14" type="curve" smooth="yes"/>
      <point x="345" y="-14"/>
      <point x="431" y="87"/>
      <point x="431" y="239" type="curve" smooth="yes"/>
      <point x="431" y="366"/>
      <point x="345" y="464"/>
      <point x="238" y="464" type="curve" smooth="yes"/>
      <point x="128" y="464"/>
      <point x="32" y="346"/>
      <point x="32" y="211" type="curve" smooth="yes"/>
      <point x="32" y="80"/>
      <point x="110" y="-14"/>
    </contour>
    <contour>
      <point x="238" y="27" type="curve" smooth="yes"/>
      <point x="170" y="27"/>
      <point x="116" y="114"/>
      <point x="116" y="236" type="curve" smooth="yes"/>
      <point x="116" y="359"/>
      <point x="151" y="422"/>
      <point x="222" y="422" type="curve" smooth="yes"/>
      <point x="293" y="422"/>
      <point x="347" y="336"/>
      <point x="347" y="213" type="curve" smooth="yes"/>
      <point x="347" y="84"/>
      <point x="314" y="27"/>
    </contour>
  </outline>
</glyph>
<glyph name="p" format="1">
  <advance width="490"/>
  <unicode hex="0070"/>
  <outline>
    <contour>
      <point x="37" y="-285" type="curve" smooth="yes"/>
      <point x="74" y="-285"/>
      <point x="80" y="-281"/>
      <point x="113" y="-281" type="curve" smooth="yes"/>
      <point x="147" y="-281"/>
      <point x="166" y="-285"/>
      <point x="204" y="-285" type="curve" smooth="yes"/>
      <point x="213" y="-285"/>
      <point x="224" y="-281"/>
      <point x="224" y="-269" type="curve" smooth="yes"/>
      <point x="224" y="-261"/>
      <point x="216" y="-255"/>
      <point x="203" y="-251" type="curve" smooth="yes"/>
      <point x="185" y="-246"/>
      <point x="150" y="-241"/>
      <point x="150" y="-209" type="curve" smooth="yes"/>
      <point x="150" y="-35" type="line" smooth="yes"/>
      <point x="150" y="-28"/>
      <point x="151" y="22"/>
      <point x="154" y="22" type="curve"/>
      <point x="172" y="2"/>
      <point x="221" y="-14"/>
      <point x="247" y="-14" type="curve" smooth="yes"/>
      <point x="366" y="-14"/>
      <point x="459" y="120"/>
      <point x="459" y="253" type="curve" smooth="yes"/>
      <point x="459" y="358"/>
      <point x="401" y="464"/>
      <point x="305" y="465" type="curve" smooth="yes"/>
      <point x="245" y="465"/>
      <point x="171" y="418"/>
      <point x="153" y="397" type="curve"/>
      <point x="152" y="404"/>
      <point x="152" y="408"/>
      <point x="152" y="412" type="curve" smooth="yes"/>
      <point x="152" y="427"/>
      <point x="157" y="457"/>
      <point x="157" y="468" type="curve" smooth="yes"/>
      <point x="157" y="472"/>
      <point x="154" y="477"/>
      <point x="150" y="477" type="curve" smooth="yes"/>
      <point x="148" y="477"/>
      <point x="148" y="476"/>
      <point x="147" y="475" type="curve"/>
      <point x="117" y="463"/>
      <point x="87" y="451"/>
      <point x="41" y="440" type="curve" smooth="yes"/>
      <point x="34" y="438"/>
      <point x="28" y="431"/>
      <point x="28" y="423" type="curve" smooth="yes"/>
      <point x="28" y="414"/>
      <point x="34" y="408"/>
      <point x="43" y="405" type="curve" smooth="yes"/>
      <point x="69" y="398"/>
      <point x="77" y="359"/>
      <point x="77" y="340" type="curve" smooth="yes"/>
      <point x="77" y="-209" type="line" smooth="yes"/>
      <point x="77" y="-235"/>
      <point x="57" y="-244"/>
      <point x="38" y="-251" type="curve" smooth="yes"/>
      <point x="27" y="-255"/>
      <point x="17" y="-261"/>
      <point x="17" y="-269" type="curve" smooth="yes"/>
      <point x="17" y="-281"/>
      <point x="27" y="-285"/>
    </contour>
    <contour>
      <point x="258" y="30" type="curve" smooth="yes"/>
      <point x="195" y="30"/>
      <point x="150" y="78"/>
      <point x="150" y="188" type="curve" smooth="yes"/>
      <point x="150" y="213"/>
      <point x="153" y="286"/>
      <point x="153" y="352" type="curve" smooth="yes"/>
      <point x="153" y="365"/>
      <point x="209" y="400"/>
      <point x="253" y="400" type="curve" smooth="yes"/>
      <point x="306" y="400"/>
      <point x="376" y="366"/>
      <point x="376" y="216" type="curve" smooth="yes"/>
      <point x="376" y="76"/>
      <point x="298" y="30"/>
    </contour>
  </outline>
</glyph>
